<svg xmlns="http://www.w3.org/2000/svg" xmlns:xlink="http://www.w3.org/1999/xlink" width="500" zoomAndPan="magnify" viewBox="0 0 375 112.499997" height="150" preserveAspectRatio="xMidYMid meet" version="1.0"><defs><clipPath id="5928170c84"><path d="M 12 20 L 345 20 L 345 102 L 12 102 Z M 12 20 " clip-rule="nonzero"/></clipPath><clipPath id="0465d1bf7e"><path d="M 206.15625 227.699219 L 12.171875 79.421875 L 169.0625 -125.835938 L 363.050781 22.441406 Z M 206.15625 227.699219 " clip-rule="nonzero"/></clipPath><clipPath id="fe689eb4f8"><path d="M 206.15625 227.699219 L 12.171875 79.421875 L 169.0625 -125.835938 L 363.050781 22.441406 Z M 206.15625 227.699219 " clip-rule="nonzero"/></clipPath><clipPath id="fb825ba574"><path d="M 328 10 L 357 10 L 357 32 L 328 32 Z M 328 10 " clip-rule="nonzero"/></clipPath><clipPath id="c54632188a"><path d="M 206.15625 227.699219 L 12.171875 79.421875 L 169.0625 -125.835938 L 363.050781 22.441406 Z M 206.15625 227.699219 " clip-rule="nonzero"/></clipPath><clipPath id="d5c4c35456"><path d="M 206.15625 227.699219 L 12.171875 79.421875 L 169.0625 -125.835938 L 363.050781 22.441406 Z M 206.15625 227.699219 " clip-rule="nonzero"/></clipPath><clipPath id="f82dad1c23"><path d="M 370 101 L 374.167969 101 L 374.167969 112.003906 L 370 112.003906 Z M 370 101 " clip-rule="nonzero"/></clipPath></defs><g clip-path="url(#5928170c84)"><g clip-path="url(#0465d1bf7e)"><g clip-path="url(#fe689eb4f8)"><path fill="#445" d="M 343.808594 20.359375 C 344.078125 20.5625 344.253906 20.832031 344.339844 21.160156 C 344.429688 21.488281 344.40625 21.808594 344.273438 22.117188 C 342.835938 25.488281 341.121094 28.707031 339.125 31.777344 C 339.023438 31.945312 338.886719 32.089844 338.726562 32.203125 C 338.5625 32.320312 338.382812 32.398438 338.1875 32.445312 C 337.992188 32.488281 337.796875 32.492188 337.601562 32.457031 C 337.40625 32.421875 337.222656 32.347656 337.054688 32.242188 C 336.886719 32.132812 336.746094 31.996094 336.636719 31.828125 C 336.523438 31.664062 336.445312 31.484375 336.40625 31.289062 C 336.367188 31.09375 336.367188 30.898438 336.40625 30.699219 C 336.445312 30.503906 336.523438 30.324219 336.632812 30.160156 C 338.535156 27.234375 340.167969 24.167969 341.535156 20.957031 C 341.613281 20.777344 341.722656 20.617188 341.863281 20.476562 C 342.003906 20.339844 342.164062 20.234375 342.347656 20.160156 C 342.53125 20.085938 342.722656 20.050781 342.917969 20.050781 C 343.113281 20.054688 343.304688 20.09375 343.484375 20.167969 C 343.601562 20.21875 343.707031 20.28125 343.808594 20.359375 Z M 332.238281 38.234375 C 332.273438 38.261719 332.308594 38.289062 332.34375 38.316406 C 332.488281 38.449219 332.601562 38.605469 332.6875 38.78125 C 332.769531 38.960938 332.816406 39.148438 332.824219 39.34375 C 332.832031 39.542969 332.804688 39.734375 332.738281 39.917969 C 332.667969 40.105469 332.570312 40.269531 332.4375 40.414062 C 329.96875 43.109375 327.300781 45.589844 324.433594 47.855469 C 324.28125 47.980469 324.109375 48.066406 323.917969 48.121094 C 323.730469 48.175781 323.535156 48.1875 323.339844 48.167969 C 323.144531 48.144531 322.960938 48.082031 322.789062 47.988281 C 322.617188 47.890625 322.46875 47.765625 322.347656 47.609375 C 322.226562 47.457031 322.136719 47.285156 322.085938 47.09375 C 322.03125 46.90625 322.015625 46.710938 322.039062 46.515625 C 322.0625 46.320312 322.121094 46.136719 322.21875 45.964844 C 322.3125 45.792969 322.4375 45.644531 322.59375 45.523438 C 325.335938 43.363281 327.886719 40.992188 330.246094 38.417969 C 330.371094 38.28125 330.519531 38.171875 330.683594 38.089844 C 330.851562 38.007812 331.027344 37.957031 331.210938 37.941406 C 331.398438 37.921875 331.578125 37.941406 331.757812 37.992188 C 331.9375 38.042969 332.097656 38.125 332.246094 38.238281 Z M 315.515625 51.433594 C 315.679688 51.558594 315.8125 51.714844 315.914062 51.894531 C 316.007812 52.066406 316.066406 52.25 316.089844 52.445312 C 316.113281 52.644531 316.09375 52.835938 316.039062 53.023438 C 315.984375 53.214844 315.898438 53.386719 315.773438 53.539062 C 315.652344 53.695312 315.503906 53.816406 315.332031 53.914062 C 312.128906 55.6875 308.800781 57.171875 305.347656 58.378906 C 305.160156 58.441406 304.96875 58.46875 304.769531 58.457031 C 304.574219 58.445312 304.386719 58.398438 304.210938 58.3125 C 304.03125 58.226562 303.878906 58.109375 303.746094 57.960938 C 303.617188 57.8125 303.519531 57.648438 303.453125 57.460938 C 303.390625 57.273438 303.363281 57.082031 303.375 56.886719 C 303.386719 56.691406 303.433594 56.503906 303.519531 56.324219 C 303.605469 56.148438 303.722656 55.996094 303.871094 55.863281 C 304.019531 55.734375 304.183594 55.632812 304.371094 55.570312 C 307.667969 54.421875 310.839844 53.003906 313.894531 51.3125 C 314.15625 51.167969 314.433594 51.109375 314.730469 51.128906 C 315.027344 51.152344 315.292969 51.253906 315.527344 51.4375 Z M 295.398438 58.378906 C 295.632812 58.558594 295.800781 58.789062 295.898438 59.070312 C 295.996094 59.351562 296.007812 59.636719 295.933594 59.925781 C 295.859375 60.214844 295.710938 60.457031 295.492188 60.65625 C 295.269531 60.859375 295.011719 60.980469 294.71875 61.027344 C 293.703125 61.179688 292.679688 61.3125 291.664062 61.414062 C 289.089844 61.667969 286.515625 61.765625 283.882812 61.855469 C 283.683594 61.867188 283.488281 61.839844 283.300781 61.769531 C 283.109375 61.703125 282.941406 61.601562 282.792969 61.46875 C 282.648438 61.332031 282.53125 61.175781 282.445312 60.992188 C 282.363281 60.8125 282.316406 60.621094 282.3125 60.421875 C 282.304688 60.21875 282.335938 60.027344 282.410156 59.839844 C 282.480469 59.652344 282.585938 59.488281 282.722656 59.34375 C 282.863281 59.199219 283.023438 59.085938 283.207031 59.007812 C 283.390625 58.925781 283.582031 58.886719 283.785156 58.886719 C 286.367188 58.800781 288.886719 58.703125 291.371094 58.457031 C 292.332031 58.359375 293.308594 58.234375 294.269531 58.089844 C 294.6875 58.023438 295.066406 58.121094 295.402344 58.378906 Z M 260.957031 46.175781 C 261.214844 46.371094 261.46875 46.570312 261.722656 46.773438 C 261.875 46.894531 262 47.039062 262.097656 47.210938 C 262.195312 47.386719 262.253906 47.570312 262.277344 47.765625 C 262.300781 47.960938 262.285156 48.152344 262.230469 48.34375 C 262.179688 48.535156 262.089844 48.707031 261.96875 48.859375 C 261.847656 49.015625 261.699219 49.140625 261.527344 49.238281 C 261.355469 49.332031 261.167969 49.394531 260.972656 49.414062 C 260.777344 49.4375 260.585938 49.421875 260.394531 49.367188 C 260.207031 49.316406 260.035156 49.226562 259.878906 49.105469 C 257.144531 46.941406 254.238281 45.050781 251.152344 43.429688 C 250.976562 43.335938 250.828125 43.214844 250.703125 43.0625 C 250.574219 42.914062 250.484375 42.742188 250.425781 42.554688 C 250.367188 42.367188 250.347656 42.175781 250.363281 41.976562 C 250.382812 41.78125 250.4375 41.597656 250.527344 41.421875 C 250.621094 41.246094 250.742188 41.097656 250.890625 40.972656 C 251.042969 40.84375 251.214844 40.753906 251.402344 40.695312 C 251.589844 40.636719 251.78125 40.613281 251.980469 40.632812 C 252.175781 40.652344 252.359375 40.707031 252.535156 40.796875 C 255.496094 42.355469 258.304688 44.148438 260.964844 46.179688 Z M 269.449219 54.113281 C 269.527344 54.171875 269.597656 54.242188 269.664062 54.316406 C 270.960938 55.796875 272.195312 57.351562 273.332031 58.941406 C 273.527344 59.210938 273.714844 59.480469 273.894531 59.746094 C 274.324219 59.988281 274.570312 60.355469 274.632812 60.847656 C 275.15625 61.652344 275.644531 62.449219 276.082031 63.226562 C 276.179688 63.398438 276.238281 63.582031 276.265625 63.777344 C 276.289062 63.972656 276.273438 64.164062 276.21875 64.355469 C 276.167969 64.546875 276.082031 64.71875 275.960938 64.875 C 275.835938 65.027344 275.691406 65.15625 275.519531 65.253906 C 275.347656 65.347656 275.164062 65.410156 274.96875 65.433594 C 274.773438 65.457031 274.578125 65.441406 274.390625 65.390625 C 274.199219 65.335938 274.027344 65.25 273.871094 65.128906 C 273.71875 65.007812 273.589844 64.859375 273.492188 64.6875 C 273.121094 64.027344 272.710938 63.34375 272.265625 62.660156 C 270.707031 62.890625 269.171875 63.222656 267.65625 63.65625 C 266.253906 64.0625 264.898438 64.597656 263.59375 65.265625 C 263.417969 65.355469 263.230469 65.410156 263.03125 65.429688 C 262.835938 65.445312 262.640625 65.425781 262.453125 65.363281 C 262.261719 65.304688 262.09375 65.210938 261.941406 65.082031 C 261.789062 64.953125 261.667969 64.800781 261.578125 64.621094 C 261.488281 64.445312 261.4375 64.257812 261.421875 64.058594 C 261.40625 63.863281 261.429688 63.667969 261.492188 63.480469 C 261.554688 63.292969 261.652344 63.121094 261.78125 62.972656 C 261.914062 62.824219 262.066406 62.703125 262.246094 62.617188 C 263.71875 61.863281 265.246094 61.257812 266.835938 60.800781 C 267.96875 60.46875 269.148438 60.195312 270.398438 59.960938 C 269.464844 58.695312 268.46875 57.457031 267.425781 56.273438 C 267.304688 56.132812 267.210938 55.976562 267.148438 55.804688 C 267.085938 55.632812 267.054688 55.453125 267.054688 55.269531 C 267.058594 55.082031 267.09375 54.90625 267.164062 54.734375 C 267.234375 54.5625 267.328125 54.410156 267.457031 54.277344 C 267.582031 54.140625 267.726562 54.035156 267.894531 53.953125 C 268.058594 53.871094 268.234375 53.824219 268.417969 53.808594 C 268.601562 53.792969 268.78125 53.8125 268.960938 53.863281 C 269.136719 53.917969 269.300781 54 269.445312 54.109375 Z M 242.855469 36.902344 C 243.140625 37.121094 243.320312 37.402344 243.402344 37.753906 C 243.480469 38.101562 243.4375 38.4375 243.277344 38.757812 C 243.113281 39.074219 242.867188 39.304688 242.539062 39.449219 C 242.210938 39.589844 241.875 39.609375 241.53125 39.507812 C 240.3125 39.148438 239.070312 38.824219 237.835938 38.5625 C 235.691406 38.101562 233.523438 37.78125 231.335938 37.605469 C 231.144531 37.582031 230.964844 37.523438 230.792969 37.433594 C 230.625 37.339844 230.476562 37.222656 230.355469 37.070312 C 230.234375 36.921875 230.144531 36.757812 230.085938 36.574219 C 230.027344 36.390625 230.007812 36.199219 230.019531 36.007812 C 230.035156 35.816406 230.085938 35.632812 230.175781 35.460938 C 230.261719 35.289062 230.375 35.140625 230.519531 35.011719 C 230.664062 34.882812 230.828125 34.789062 231.011719 34.726562 C 231.191406 34.660156 231.378906 34.632812 231.574219 34.644531 C 233.890625 34.832031 236.1875 35.167969 238.460938 35.660156 C 239.765625 35.941406 241.082031 36.277344 242.371094 36.660156 C 242.550781 36.710938 242.714844 36.792969 242.863281 36.90625 Z M 279.226562 72.804688 C 279.558594 73.058594 279.75 73.390625 279.800781 73.800781 C 279.808594 73.890625 279.816406 73.976562 279.832031 74.066406 C 280.269531 77.9375 279.589844 81.84375 277.910156 85.066406 C 277.820312 85.242188 277.699219 85.394531 277.546875 85.519531 C 277.398438 85.648438 277.226562 85.738281 277.039062 85.800781 C 276.851562 85.859375 276.660156 85.878906 276.464844 85.863281 C 276.265625 85.84375 276.082031 85.792969 275.90625 85.699219 C 275.730469 85.609375 275.582031 85.488281 275.453125 85.335938 C 275.328125 85.1875 275.234375 85.015625 275.175781 84.828125 C 275.117188 84.640625 275.09375 84.449219 275.113281 84.253906 C 275.128906 84.054688 275.183594 83.871094 275.273438 83.695312 C 276.683594 80.988281 277.25 77.691406 276.878906 74.40625 L 276.851562 74.171875 C 276.8125 73.871094 276.859375 73.589844 276.992188 73.324219 C 277.128906 73.054688 277.324219 72.84375 277.582031 72.695312 C 277.84375 72.546875 278.121094 72.484375 278.421875 72.503906 C 278.71875 72.523438 278.988281 72.625 279.226562 72.804688 Z M 221.679688 35.171875 C 221.917969 35.355469 222.085938 35.589844 222.183594 35.875 C 222.28125 36.160156 222.289062 36.449219 222.210938 36.742188 C 222.132812 37.03125 221.976562 37.277344 221.75 37.476562 C 221.523438 37.671875 221.257812 37.789062 220.960938 37.828125 C 217.507812 38.253906 214.140625 39.027344 210.851562 40.152344 C 210.667969 40.214844 210.476562 40.234375 210.28125 40.21875 C 210.089844 40.203125 209.90625 40.152344 209.730469 40.066406 C 209.558594 39.980469 209.40625 39.863281 209.277344 39.714844 C 209.152344 39.570312 209.054688 39.40625 208.992188 39.21875 C 208.929688 39.035156 208.902344 38.847656 208.914062 38.652344 C 208.925781 38.460938 208.972656 38.273438 209.058594 38.097656 C 209.140625 37.921875 209.253906 37.769531 209.398438 37.640625 C 209.542969 37.507812 209.703125 37.410156 209.886719 37.34375 C 213.371094 36.152344 216.941406 35.332031 220.597656 34.882812 C 221 34.828125 221.363281 34.925781 221.6875 35.175781 Z M 255.742188 69.609375 C 255.894531 69.726562 256.019531 69.867188 256.117188 70.027344 C 256.214844 70.191406 256.277344 70.367188 256.308594 70.558594 C 256.335938 70.746094 256.332031 70.933594 256.289062 71.117188 C 256.246094 71.304688 256.171875 71.476562 256.0625 71.632812 C 254.417969 74.023438 253.636719 76.550781 253.746094 79.152344 C 253.765625 79.65625 253.824219 80.160156 253.914062 80.65625 C 253.953125 80.851562 253.949219 81.046875 253.910156 81.238281 C 253.867188 81.429688 253.792969 81.609375 253.679688 81.769531 C 253.570312 81.933594 253.429688 82.070312 253.265625 82.175781 C 253.101562 82.285156 252.921875 82.355469 252.726562 82.390625 C 252.535156 82.425781 252.339844 82.425781 252.148438 82.382812 C 251.953125 82.34375 251.777344 82.269531 251.613281 82.15625 C 251.453125 82.046875 251.316406 81.90625 251.210938 81.742188 C 251.101562 81.578125 251.03125 81.398438 250.996094 81.203125 C 250.878906 80.566406 250.808594 79.921875 250.785156 79.273438 C 250.652344 76.0625 251.636719 72.835938 253.625 69.945312 C 253.738281 69.785156 253.875 69.648438 254.042969 69.542969 C 254.207031 69.433594 254.386719 69.363281 254.578125 69.328125 C 254.773438 69.292969 254.964844 69.296875 255.160156 69.335938 C 255.351562 69.378906 255.527344 69.453125 255.691406 69.566406 Z M 269.480469 89.808594 C 269.703125 89.980469 269.863281 90.195312 269.960938 90.460938 C 270.0625 90.722656 270.082031 90.992188 270.03125 91.265625 C 269.976562 91.542969 269.855469 91.785156 269.664062 91.988281 C 269.476562 92.195312 269.246094 92.339844 268.976562 92.414062 C 265.6875 93.324219 262.230469 93.09375 259.242188 91.753906 C 258.632812 91.480469 258.050781 91.167969 257.492188 90.808594 C 257.324219 90.703125 257.183594 90.570312 257.070312 90.40625 C 256.957031 90.246094 256.882812 90.070312 256.839844 89.878906 C 256.796875 89.683594 256.792969 89.492188 256.824219 89.296875 C 256.859375 89.101562 256.929688 88.921875 257.035156 88.757812 C 257.140625 88.589844 257.277344 88.453125 257.4375 88.339844 C 257.597656 88.226562 257.773438 88.148438 257.96875 88.105469 C 258.160156 88.0625 258.351562 88.058594 258.546875 88.09375 C 258.742188 88.125 258.921875 88.195312 259.085938 88.300781 C 259.523438 88.582031 259.976562 88.832031 260.449219 89.042969 C 262.777344 90.085938 265.59375 90.273438 268.179688 89.554688 C 268.652344 89.421875 269.085938 89.503906 269.480469 89.804688 Z M 201.613281 42.109375 C 201.710938 42.183594 201.796875 42.265625 201.871094 42.359375 C 201.945312 42.453125 202.007812 42.558594 202.058594 42.667969 C 202.109375 42.777344 202.148438 42.890625 202.171875 43.007812 C 202.195312 43.125 202.203125 43.246094 202.195312 43.367188 C 202.1875 43.488281 202.167969 43.605469 202.132812 43.722656 C 202.097656 43.835938 202.050781 43.945312 201.988281 44.050781 C 201.925781 44.152344 201.855469 44.25 201.769531 44.335938 C 201.683594 44.417969 201.589844 44.496094 201.488281 44.558594 C 200.691406 45.046875 199.898438 45.566406 199.140625 46.101562 C 196.941406 47.644531 194.886719 49.375 193.167969 50.867188 C 193.019531 50.996094 192.851562 51.09375 192.664062 51.15625 C 192.476562 51.214844 192.285156 51.242188 192.089844 51.226562 C 191.894531 51.214844 191.707031 51.160156 191.53125 51.074219 C 191.355469 50.984375 191.203125 50.867188 191.074219 50.71875 C 190.941406 50.570312 190.847656 50.402344 190.785156 50.214844 C 190.722656 50.027344 190.699219 49.835938 190.710938 49.640625 C 190.726562 49.441406 190.777344 49.253906 190.867188 49.078125 C 190.953125 48.902344 191.074219 48.75 191.222656 48.621094 C 192.996094 47.082031 195.125 45.289062 197.429688 43.667969 C 198.246094 43.09375 199.085938 42.539062 199.933594 42.023438 C 200.195312 41.863281 200.480469 41.789062 200.789062 41.804688 C 201.09375 41.820312 201.371094 41.921875 201.617188 42.109375 Z M 178.332031 43.492188 C 179.390625 44.300781 180.371094 45.203125 181.265625 46.195312 C 181.402344 46.339844 181.503906 46.503906 181.574219 46.691406 C 181.644531 46.878906 181.671875 47.074219 181.664062 47.273438 C 181.65625 47.472656 181.609375 47.660156 181.527344 47.84375 C 181.441406 48.023438 181.324219 48.179688 181.175781 48.3125 C 181.027344 48.449219 180.859375 48.546875 180.671875 48.613281 C 180.480469 48.679688 180.289062 48.707031 180.089844 48.691406 C 179.890625 48.679688 179.699219 48.628906 179.523438 48.542969 C 179.34375 48.453125 179.1875 48.332031 179.058594 48.183594 C 178.285156 47.328125 177.441406 46.550781 176.527344 45.851562 C 174.796875 44.527344 172.894531 43.527344 170.824219 42.855469 C 170.636719 42.796875 170.464844 42.703125 170.316406 42.574219 C 170.167969 42.445312 170.046875 42.292969 169.957031 42.117188 C 169.867188 41.945312 169.8125 41.757812 169.796875 41.5625 C 169.78125 41.363281 169.804688 41.171875 169.867188 40.984375 C 169.925781 40.796875 170.019531 40.628906 170.148438 40.480469 C 170.277344 40.328125 170.425781 40.210938 170.601562 40.121094 C 170.777344 40.03125 170.964844 39.976562 171.160156 39.960938 C 171.355469 39.945312 171.550781 39.96875 171.738281 40.027344 C 174.132812 40.804688 176.332031 41.960938 178.332031 43.492188 Z M 185.847656 55.449219 C 186.132812 55.667969 186.316406 55.949219 186.394531 56.296875 C 187.214844 59.847656 187.300781 63.726562 186.625 67.515625 C 186.589844 67.714844 186.523438 67.894531 186.417969 68.066406 C 186.3125 68.234375 186.179688 68.375 186.015625 68.492188 C 185.855469 68.605469 185.675781 68.6875 185.484375 68.730469 C 185.289062 68.773438 185.09375 68.777344 184.898438 68.742188 C 184.703125 68.707031 184.519531 68.636719 184.351562 68.53125 C 184.183594 68.421875 184.046875 68.285156 183.933594 68.121094 C 183.820312 67.957031 183.742188 67.78125 183.703125 67.585938 C 183.660156 67.390625 183.660156 67.195312 183.695312 67 C 184.191406 64.238281 184.234375 61.472656 183.828125 58.695312 C 183.378906 59.023438 182.941406 59.335938 182.5 59.636719 C 180.273438 61.175781 177.894531 62.4375 175.371094 63.421875 C 175.1875 63.492188 174.996094 63.523438 174.796875 63.515625 C 174.601562 63.511719 174.414062 63.46875 174.234375 63.390625 C 174.054688 63.308594 173.894531 63.195312 173.761719 63.054688 C 173.625 62.910156 173.523438 62.746094 173.453125 62.5625 C 173.382812 62.378906 173.347656 62.1875 173.355469 61.992188 C 173.359375 61.792969 173.402344 61.605469 173.484375 61.425781 C 173.5625 61.246094 173.675781 61.089844 173.816406 60.953125 C 173.960938 60.816406 174.125 60.714844 174.308594 60.644531 C 176.617188 59.746094 178.785156 58.59375 180.824219 57.183594 C 181.578125 56.667969 182.339844 56.113281 183.144531 55.492188 C 183.644531 55.4375 184.132812 55.332031 184.613281 55.183594 C 185.066406 55.082031 185.476562 55.171875 185.84375 55.453125 Z M 161.65625 40.078125 C 161.878906 40.246094 162.039062 40.460938 162.136719 40.71875 C 162.238281 40.976562 162.265625 41.242188 162.214844 41.515625 C 162.167969 41.789062 162.054688 42.027344 161.871094 42.238281 C 161.6875 42.445312 161.464844 42.589844 161.199219 42.675781 C 160.992188 42.742188 160.785156 42.808594 160.578125 42.886719 C 158.5 43.652344 156.820312 44.816406 155.714844 46.261719 C 155.644531 46.355469 155.578125 46.441406 155.515625 46.535156 C 155.082031 47.160156 154.753906 47.832031 154.539062 48.558594 C 154.480469 48.746094 154.390625 48.917969 154.265625 49.070312 C 154.140625 49.222656 153.992188 49.34375 153.820312 49.4375 C 153.644531 49.53125 153.460938 49.589844 153.265625 49.609375 C 153.070312 49.628906 152.875 49.609375 152.6875 49.554688 C 152.5 49.496094 152.328125 49.40625 152.175781 49.28125 C 152.023438 49.15625 151.898438 49.007812 151.804688 48.835938 C 151.714844 48.660156 151.65625 48.476562 151.636719 48.28125 C 151.617188 48.085938 151.636719 47.890625 151.691406 47.703125 C 152 46.671875 152.460938 45.71875 153.078125 44.835938 C 153.167969 44.707031 153.261719 44.582031 153.359375 44.453125 C 154.800781 42.5625 156.945312 41.054688 159.554688 40.09375 C 159.800781 40.003906 160.058594 39.917969 160.3125 39.835938 C 160.800781 39.683594 161.25 39.765625 161.65625 40.082031 Z M 165.25 62.273438 C 165.519531 62.480469 165.699219 62.746094 165.785156 63.074219 C 165.871094 63.398438 165.851562 63.71875 165.71875 64.03125 C 165.589844 64.34375 165.375 64.582031 165.082031 64.75 C 164.789062 64.914062 164.472656 64.976562 164.136719 64.925781 C 163.058594 64.773438 162 64.519531 160.96875 64.164062 C 159.582031 63.683594 158.308594 62.992188 157.144531 62.097656 C 156.019531 61.230469 155.03125 60.230469 154.179688 59.09375 C 154.0625 58.933594 153.980469 58.761719 153.929688 58.570312 C 153.882812 58.378906 153.871094 58.1875 153.898438 57.992188 C 153.929688 57.796875 153.992188 57.613281 154.09375 57.445312 C 154.195312 57.277344 154.324219 57.132812 154.480469 57.015625 C 154.636719 56.894531 154.8125 56.8125 155.003906 56.765625 C 155.195312 56.714844 155.386719 56.703125 155.582031 56.734375 C 155.777344 56.761719 155.957031 56.824219 156.128906 56.925781 C 156.296875 57.023438 156.441406 57.152344 156.558594 57.3125 C 157.242188 58.230469 158.039062 59.039062 158.949219 59.734375 C 159.855469 60.4375 160.851562 60.976562 161.933594 61.355469 C 162.789062 61.648438 163.664062 61.859375 164.5625 61.988281 C 164.816406 62.023438 165.042969 62.121094 165.25 62.277344 Z M 182.304688 76.03125 C 182.449219 76.140625 182.566406 76.273438 182.664062 76.429688 C 182.757812 76.582031 182.824219 76.75 182.859375 76.925781 C 182.894531 77.105469 182.894531 77.285156 182.863281 77.464844 C 182.835938 77.640625 182.773438 77.808594 182.679688 77.964844 C 181.957031 79.175781 181.167969 80.339844 180.308594 81.457031 C 178.90625 83.285156 177.359375 84.984375 175.667969 86.550781 C 175.527344 86.691406 175.359375 86.796875 175.175781 86.871094 C 174.988281 86.941406 174.796875 86.976562 174.597656 86.972656 C 174.394531 86.96875 174.207031 86.921875 174.023438 86.839844 C 173.839844 86.757812 173.679688 86.644531 173.546875 86.5 C 173.410156 86.351562 173.304688 86.1875 173.238281 86 C 173.167969 85.808594 173.140625 85.617188 173.148438 85.417969 C 173.15625 85.21875 173.207031 85.027344 173.292969 84.847656 C 173.378906 84.667969 173.496094 84.511719 173.644531 84.375 C 175.210938 82.921875 176.648438 81.347656 177.949219 79.652344 C 178.734375 78.625 179.460938 77.558594 180.121094 76.445312 C 180.222656 76.277344 180.351562 76.132812 180.511719 76.015625 C 180.667969 75.894531 180.84375 75.8125 181.035156 75.765625 C 181.226562 75.714844 181.417969 75.707031 181.613281 75.734375 C 181.808594 75.761719 181.992188 75.828125 182.160156 75.929688 C 182.210938 75.960938 182.257812 75.996094 182.304688 76.03125 Z M 166.960938 90.621094 C 167.058594 90.695312 167.144531 90.78125 167.222656 90.875 C 167.296875 90.972656 167.359375 91.074219 167.410156 91.1875 C 167.460938 91.296875 167.5 91.414062 167.519531 91.53125 C 167.542969 91.652344 167.550781 91.773438 167.542969 91.894531 C 167.535156 92.015625 167.511719 92.136719 167.476562 92.253906 C 167.4375 92.367188 167.386719 92.480469 167.324219 92.582031 C 167.261719 92.6875 167.183594 92.78125 167.097656 92.867188 C 167.007812 92.953125 166.914062 93.023438 166.808594 93.085938 C 163.636719 94.929688 160.324219 96.464844 156.867188 97.691406 C 156.683594 97.757812 156.492188 97.785156 156.292969 97.777344 C 156.097656 97.765625 155.910156 97.71875 155.730469 97.636719 C 155.550781 97.550781 155.398438 97.433594 155.265625 97.289062 C 155.132812 97.140625 155.03125 96.976562 154.964844 96.789062 C 154.898438 96.605469 154.871094 96.414062 154.882812 96.214844 C 154.890625 96.019531 154.9375 95.832031 155.023438 95.652344 C 155.109375 95.476562 155.222656 95.320312 155.371094 95.1875 C 155.515625 95.054688 155.683594 94.957031 155.867188 94.890625 C 159.148438 93.722656 162.296875 92.265625 165.308594 90.515625 C 165.570312 90.363281 165.851562 90.296875 166.152344 90.316406 C 166.457031 90.335938 166.726562 90.441406 166.96875 90.625 Z M 146.9375 97.808594 C 147.171875 97.988281 147.335938 98.214844 147.4375 98.496094 C 147.535156 98.773438 147.546875 99.054688 147.476562 99.34375 C 147.40625 99.628906 147.265625 99.875 147.046875 100.074219 C 146.832031 100.277344 146.578125 100.402344 146.289062 100.453125 C 142.695312 101.070312 139.074219 101.421875 135.429688 101.5 C 135.230469 101.507812 135.042969 101.472656 134.855469 101.402344 C 134.671875 101.332031 134.507812 101.230469 134.367188 101.09375 C 134.222656 100.957031 134.113281 100.796875 134.03125 100.617188 C 133.953125 100.4375 133.910156 100.25 133.90625 100.050781 C 133.902344 99.855469 133.933594 99.664062 134.003906 99.480469 C 134.078125 99.296875 134.179688 99.132812 134.316406 98.988281 C 134.453125 98.847656 134.613281 98.734375 134.792969 98.65625 C 134.972656 98.578125 135.160156 98.535156 135.359375 98.53125 C 138.859375 98.449219 142.332031 98.113281 145.78125 97.519531 C 146.210938 97.445312 146.597656 97.542969 146.941406 97.8125 Z M 125.609375 98.386719 C 125.875 98.589844 126.054688 98.851562 126.140625 99.171875 C 126.230469 99.492188 126.214844 99.808594 126.089844 100.117188 C 125.96875 100.425781 125.765625 100.667969 125.480469 100.839844 C 125.195312 101.011719 124.886719 101.082031 124.554688 101.046875 C 120.949219 100.664062 117.375 100.082031 113.835938 99.304688 C 113.640625 99.261719 113.460938 99.1875 113.296875 99.074219 C 113.136719 98.960938 113 98.824219 112.890625 98.65625 C 112.785156 98.488281 112.714844 98.308594 112.679688 98.113281 C 112.644531 97.917969 112.648438 97.726562 112.6875 97.53125 C 112.730469 97.339844 112.808594 97.160156 112.921875 96.996094 C 113.035156 96.835938 113.175781 96.703125 113.34375 96.59375 C 113.511719 96.488281 113.691406 96.417969 113.886719 96.386719 C 114.082031 96.351562 114.277344 96.355469 114.46875 96.402344 C 117.902344 97.15625 121.367188 97.71875 124.863281 98.089844 C 125.144531 98.121094 125.394531 98.21875 125.617188 98.390625 Z M 104.738281 93.851562 C 105.023438 94.070312 105.207031 94.359375 105.285156 94.710938 C 105.363281 95.066406 105.320312 95.402344 105.148438 95.722656 C 104.980469 96.046875 104.730469 96.273438 104.394531 96.410156 C 104.058594 96.546875 103.714844 96.558594 103.371094 96.445312 C 99.976562 95.332031 96.566406 94.035156 93.242188 92.59375 C 93.0625 92.515625 92.902344 92.402344 92.765625 92.261719 C 92.628906 92.121094 92.527344 91.957031 92.453125 91.773438 C 92.382812 91.589844 92.347656 91.402344 92.351562 91.203125 C 92.355469 91.007812 92.394531 90.816406 92.472656 90.636719 C 92.550781 90.457031 92.660156 90.296875 92.804688 90.160156 C 92.945312 90.023438 93.109375 89.917969 93.292969 89.847656 C 93.476562 89.773438 93.664062 89.742188 93.863281 89.742188 C 94.058594 89.746094 94.246094 89.789062 94.429688 89.867188 C 97.664062 91.273438 100.984375 92.539062 104.292969 93.621094 C 104.457031 93.671875 104.605469 93.75 104.742188 93.855469 Z M 85.078125 85.464844 C 85.226562 85.578125 85.347656 85.710938 85.441406 85.871094 C 85.539062 86.027344 85.601562 86.195312 85.632812 86.378906 C 85.667969 86.558594 85.664062 86.742188 85.628906 86.921875 C 85.59375 87.105469 85.527344 87.273438 85.429688 87.429688 C 85.332031 87.585938 85.210938 87.71875 85.0625 87.828125 C 84.914062 87.941406 84.753906 88.019531 84.574219 88.070312 C 84.398438 88.121094 84.214844 88.136719 84.03125 88.121094 C 83.847656 88.105469 83.675781 88.054688 83.507812 87.972656 C 81.984375 87.207031 80.445312 86.421875 78.953125 85.660156 C 77.320312 84.828125 75.632812 83.96875 73.96875 83.136719 C 73.792969 83.046875 73.640625 82.929688 73.511719 82.777344 C 73.382812 82.628906 73.285156 82.460938 73.222656 82.273438 C 73.160156 82.089844 73.136719 81.898438 73.152344 81.699219 C 73.164062 81.503906 73.214844 81.316406 73.304688 81.140625 C 73.394531 80.964844 73.511719 80.8125 73.660156 80.683594 C 73.808594 80.554688 73.976562 80.457031 74.164062 80.394531 C 74.351562 80.332031 74.542969 80.308594 74.738281 80.324219 C 74.9375 80.335938 75.121094 80.386719 75.296875 80.476562 C 76.972656 81.3125 78.664062 82.179688 80.304688 83.015625 C 81.789062 83.773438 83.328125 84.554688 84.84375 85.316406 C 84.929688 85.359375 85.007812 85.410156 85.085938 85.46875 Z M 65.867188 76.074219 C 66.011719 76.183594 66.132812 76.316406 66.226562 76.46875 C 66.324219 76.625 66.386719 76.789062 66.421875 76.96875 C 66.457031 77.144531 66.460938 77.324219 66.429688 77.503906 C 66.398438 77.679688 66.335938 77.847656 66.246094 78.003906 C 66.152344 78.160156 66.035156 78.296875 65.894531 78.410156 C 65.753906 78.523438 65.597656 78.609375 65.425781 78.664062 C 65.253906 78.71875 65.074219 78.746094 64.894531 78.734375 C 64.714844 78.726562 64.539062 78.6875 64.375 78.613281 C 61.152344 77.207031 57.867188 75.988281 54.507812 74.953125 C 54.320312 74.894531 54.148438 74.804688 53.996094 74.679688 C 53.84375 74.554688 53.722656 74.40625 53.628906 74.230469 C 53.535156 74.058594 53.480469 73.871094 53.460938 73.675781 C 53.441406 73.480469 53.460938 73.289062 53.515625 73.097656 C 53.574219 72.910156 53.664062 72.738281 53.789062 72.585938 C 53.914062 72.433594 54.0625 72.3125 54.238281 72.21875 C 54.410156 72.125 54.597656 72.070312 54.792969 72.050781 C 54.988281 72.03125 55.179688 72.050781 55.371094 72.105469 C 58.835938 73.175781 62.230469 74.433594 65.550781 75.886719 C 65.664062 75.933594 65.769531 75.996094 65.867188 76.074219 Z M 45.382812 70.152344 C 45.648438 70.355469 45.828125 70.617188 45.914062 70.9375 C 46.003906 71.261719 45.984375 71.578125 45.859375 71.886719 C 45.734375 72.199219 45.527344 72.4375 45.242188 72.609375 C 44.953125 72.78125 44.644531 72.847656 44.3125 72.808594 C 40.859375 72.394531 37.40625 72.34375 33.945312 72.65625 C 33.75 72.675781 33.554688 72.65625 33.367188 72.597656 C 33.175781 72.542969 33.007812 72.449219 32.855469 72.324219 C 32.699219 72.199219 32.578125 72.050781 32.484375 71.875 C 32.394531 71.699219 32.335938 71.515625 32.316406 71.316406 C 32.300781 71.121094 32.320312 70.929688 32.378906 70.738281 C 32.433594 70.550781 32.527344 70.378906 32.652344 70.226562 C 32.78125 70.074219 32.929688 69.953125 33.105469 69.863281 C 33.28125 69.769531 33.464844 69.714844 33.664062 69.695312 C 37.332031 69.363281 40.996094 69.417969 44.65625 69.855469 C 44.925781 69.886719 45.167969 69.984375 45.382812 70.148438 Z M 24.3125 72.378906 C 24.523438 72.542969 24.683594 72.75 24.78125 73 C 24.882812 73.246094 24.914062 73.503906 24.878906 73.769531 C 24.839844 74.035156 24.738281 74.273438 24.570312 74.480469 C 24.402344 74.691406 24.195312 74.84375 23.945312 74.941406 C 20.742188 76.164062 17.839844 77.886719 15.238281 80.117188 C 15.089844 80.25 14.921875 80.351562 14.734375 80.417969 C 14.542969 80.480469 14.351562 80.507812 14.152344 80.496094 C 13.953125 80.484375 13.765625 80.433594 13.585938 80.34375 C 13.40625 80.253906 13.253906 80.136719 13.121094 79.984375 C 12.992188 79.832031 12.894531 79.664062 12.832031 79.472656 C 12.769531 79.285156 12.75 79.089844 12.765625 78.890625 C 12.78125 78.691406 12.835938 78.503906 12.925781 78.328125 C 13.019531 78.148438 13.140625 77.996094 13.296875 77.871094 C 16.15625 75.414062 19.351562 73.511719 22.875 72.167969 C 23.394531 71.972656 23.875 72.042969 24.3125 72.378906 Z M 24.3125 72.378906 " fill-opacity="1" fill-rule="nonzero"/></g></g></g><g clip-path="url(#fb825ba574)"><g clip-path="url(#c54632188a)"><g clip-path="url(#d5c4c35456)"><path fill="#445" d="M 346.996094 10.339844 C 347.277344 10.554688 347.460938 10.835938 347.539062 11.179688 C 348.316406 14.445312 349.457031 17.582031 350.957031 20.585938 C 352.453125 23.589844 354.273438 26.386719 356.417969 28.972656 C 356.542969 29.125 356.632812 29.296875 356.691406 29.484375 C 356.75 29.671875 356.769531 29.863281 356.753906 30.058594 C 356.734375 30.257812 356.679688 30.441406 356.589844 30.617188 C 356.496094 30.789062 356.375 30.941406 356.222656 31.066406 C 356.070312 31.191406 355.902344 31.285156 355.714844 31.34375 C 355.523438 31.402344 355.332031 31.421875 355.136719 31.402344 C 354.941406 31.382812 354.753906 31.328125 354.582031 31.238281 C 354.40625 31.144531 354.257812 31.023438 354.128906 30.871094 C 349.933594 25.808594 346.941406 20.109375 345.148438 13.785156 C 340.449219 16.476562 335.621094 19.027344 330.769531 21.390625 C 330.59375 21.476562 330.40625 21.523438 330.210938 21.535156 C 330.015625 21.546875 329.824219 21.519531 329.640625 21.453125 C 329.453125 21.390625 329.289062 21.292969 329.144531 21.164062 C 328.996094 21.03125 328.878906 20.878906 328.792969 20.703125 C 328.707031 20.527344 328.660156 20.339844 328.648438 20.144531 C 328.632812 19.949219 328.660156 19.757812 328.722656 19.574219 C 328.785156 19.386719 328.882812 19.222656 329.011719 19.074219 C 329.140625 18.925781 329.292969 18.808594 329.46875 18.722656 C 334.84375 16.097656 340.183594 13.246094 345.347656 10.238281 C 345.777344 9.984375 346.222656 9.960938 346.679688 10.15625 C 346.792969 10.203125 346.898438 10.265625 346.996094 10.339844 Z M 346.996094 10.339844 " fill-opacity="1" fill-rule="nonzero"/></g></g></g><g clip-path="url(#f82dad1c23)"><path fill="#ea3665" d="M 409.445312 130.351562 L 412.074219 127.722656 C 414.574219 125.222656 414.574219 121.183594 412.074219 118.683594 L 409.445312 116.050781 L 409.445312 112.324219 C 409.445312 108.796875 406.578125 105.933594 403.050781 105.933594 L 399.324219 105.933594 L 396.691406 103.300781 C 394.195312 100.800781 390.152344 100.800781 387.652344 103.300781 L 385.023438 105.933594 L 381.296875 105.933594 C 377.769531 105.933594 374.902344 108.796875 374.902344 112.324219 L 374.902344 116.050781 L 372.273438 118.683594 C 369.773438 121.183594 369.773438 125.222656 372.273438 127.722656 L 374.902344 130.351562 L 374.902344 134.082031 C 374.902344 137.609375 377.769531 140.472656 381.296875 140.472656 L 385.023438 140.472656 L 387.652344 143.101562 C 390.152344 145.601562 394.195312 145.601562 396.691406 143.101562 L 399.324219 140.472656 L 403.050781 140.472656 C 406.578125 140.472656 409.445312 137.609375 409.445312 134.082031 Z M 409.445312 130.351562 " fill-opacity="1" fill-rule="nonzero"/></g></svg>