<svg xmlns="http://www.w3.org/2000/svg" xmlns:xlink="http://www.w3.org/1999/xlink" width="200" zoomAndPan="magnify" viewBox="0 0 150 149.999998" height="200" preserveAspectRatio="xMidYMid meet" version="1.0"><defs><clipPath id="5cb37f5f5d"><path d="M 3 13 L 137 13 L 137 150 L 3 150 Z M 3 13 " clip-rule="nonzero"/></clipPath><clipPath id="79eddf43f8"><path d="M -1.941406 -11.339844 L 160.773438 -7.9375 L 157.371094 154.777344 L -5.34375 151.371094 Z M -1.941406 -11.339844 " clip-rule="nonzero"/></clipPath><clipPath id="05b4c7b0fd"><path d="M -0.597656 -3.8125 L 153.867188 -0.582031 L 150.636719 153.886719 L -3.828125 150.652344 Z M -0.597656 -3.8125 " clip-rule="nonzero"/></clipPath><clipPath id="be3eb5cbf8"><path d="M -1.941406 -11.339844 L 160.773438 -7.933594 L 157.371094 154.78125 L -5.34375 151.375 Z M -1.941406 -11.339844 " clip-rule="nonzero"/></clipPath><clipPath id="c38574ec69"><path d="M 5.734375 10.527344 L 137.539062 13.285156 L 134.589844 154.300781 L 2.78125 151.542969 Z M 5.734375 10.527344 " clip-rule="nonzero"/></clipPath><clipPath id="35d0605b2f"><path d="M 127 8 L 144 8 L 144 20 L 127 20 Z M 127 8 " clip-rule="nonzero"/></clipPath><clipPath id="6b145d2dec"><path d="M -1.941406 -11.339844 L 160.773438 -7.9375 L 157.371094 154.777344 L -5.34375 151.371094 Z M -1.941406 -11.339844 " clip-rule="nonzero"/></clipPath><clipPath id="cbf36f5a37"><path d="M -0.597656 -3.8125 L 153.867188 -0.582031 L 150.636719 153.886719 L -3.828125 150.652344 Z M -0.597656 -3.8125 " clip-rule="nonzero"/></clipPath><clipPath id="e4b0c9304b"><path d="M -1.941406 -11.339844 L 160.773438 -7.933594 L 157.371094 154.78125 L -5.34375 151.375 Z M -1.941406 -11.339844 " clip-rule="nonzero"/></clipPath><clipPath id="af01fc2298"><path d="M 126.789062 8.441406 L 144.136719 8.804688 L 143.902344 19.929688 L 126.554688 19.566406 Z M 126.789062 8.441406 " clip-rule="nonzero"/></clipPath></defs><g clip-path="url(#5cb37f5f5d)"><g clip-path="url(#79eddf43f8)"><g clip-path="url(#05b4c7b0fd)"><g clip-path="url(#be3eb5cbf8)"><g clip-path="url(#c38574ec69)"><path fill="#444455" d="M 134.675781 13.964844 C 134.867188 13.96875 135.039062 14.035156 135.191406 14.15625 C 135.335938 14.277344 135.433594 14.425781 135.476562 14.613281 C 135.949219 16.628906 136.242188 18.671875 136.355469 20.738281 C 136.371094 20.972656 136.300781 21.175781 136.144531 21.351562 C 135.996094 21.53125 135.796875 21.625 135.5625 21.636719 C 135.332031 21.652344 135.125 21.582031 134.949219 21.421875 C 134.777344 21.265625 134.6875 21.066406 134.679688 20.828125 C 134.566406 18.859375 134.289062 16.917969 133.839844 15 C 133.792969 14.773438 133.824219 14.5625 133.949219 14.363281 C 134.066406 14.164062 134.242188 14.042969 134.46875 13.988281 C 134.539062 13.972656 134.605469 13.964844 134.675781 13.964844 Z M 135.367188 25.976562 C 135.390625 25.980469 135.417969 25.980469 135.441406 25.980469 C 135.671875 26.003906 135.859375 26.109375 136.003906 26.289062 C 136.148438 26.46875 136.207031 26.679688 136.1875 26.90625 C 135.960938 28.957031 135.570312 30.980469 135.023438 32.96875 C 134.957031 33.191406 134.828125 33.363281 134.625 33.472656 C 134.421875 33.589844 134.210938 33.617188 133.988281 33.554688 C 133.765625 33.496094 133.59375 33.359375 133.480469 33.15625 C 133.363281 32.957031 133.339844 32.742188 133.402344 32.519531 C 133.929688 30.621094 134.304688 28.691406 134.519531 26.726562 C 134.546875 26.511719 134.640625 26.332031 134.804688 26.1875 C 134.964844 26.042969 135.15625 25.972656 135.371094 25.976562 Z M 132.148438 37.578125 C 132.261719 37.578125 132.375 37.605469 132.480469 37.65625 C 132.691406 37.753906 132.835938 37.910156 132.917969 38.128906 C 132.996094 38.34375 132.988281 38.558594 132.890625 38.769531 C 132.019531 40.644531 131 42.433594 129.828125 44.136719 C 129.691406 44.324219 129.515625 44.445312 129.285156 44.488281 C 129.058594 44.527344 128.851562 44.480469 128.65625 44.351562 C 128.464844 44.21875 128.351562 44.039062 128.308594 43.808594 C 128.265625 43.582031 128.3125 43.371094 128.445312 43.179688 C 129.5625 41.558594 130.539062 39.855469 131.367188 38.0625 C 131.523438 37.730469 131.785156 37.566406 132.152344 37.578125 Z M 125.289062 47.453125 C 125.660156 47.460938 125.914062 47.636719 126.050781 47.984375 C 126.1875 48.324219 126.125 48.628906 125.867188 48.890625 C 125.449219 49.296875 125.03125 49.699219 124.597656 50.085938 C 123.511719 51.058594 122.371094 51.964844 121.199219 52.882812 C 121.019531 53.035156 120.808594 53.097656 120.574219 53.070312 C 120.339844 53.042969 120.152344 52.9375 120.003906 52.753906 C 119.859375 52.566406 119.804688 52.359375 119.835938 52.121094 C 119.863281 51.890625 119.976562 51.703125 120.164062 51.5625 C 121.3125 50.660156 122.429688 49.773438 123.480469 48.832031 C 123.886719 48.46875 124.289062 48.085938 124.679688 47.699219 C 124.847656 47.53125 125.054688 47.449219 125.292969 47.453125 Z M 105.511719 53.382812 C 105.699219 53.386719 105.882812 53.390625 106.0625 53.398438 C 106.292969 53.40625 106.492188 53.496094 106.648438 53.664062 C 106.804688 53.839844 106.882812 54.039062 106.871094 54.269531 C 106.863281 54.5 106.773438 54.699219 106.605469 54.855469 C 106.433594 55.011719 106.234375 55.085938 106 55.074219 C 104.035156 55.003906 102.078125 55.113281 100.128906 55.402344 C 99.898438 55.4375 99.6875 55.386719 99.503906 55.246094 C 99.316406 55.109375 99.207031 54.925781 99.171875 54.695312 C 99.140625 54.464844 99.191406 54.257812 99.332031 54.070312 C 99.464844 53.882812 99.652344 53.773438 99.878906 53.738281 C 101.75 53.460938 103.628906 53.34375 105.519531 53.382812 Z M 112.035156 54.167969 C 112.09375 54.167969 112.148438 54.179688 112.199219 54.1875 C 113.289062 54.433594 114.367188 54.730469 115.417969 55.074219 C 115.597656 55.132812 115.769531 55.191406 115.941406 55.253906 C 116.222656 55.222656 116.453125 55.308594 116.648438 55.511719 C 117.152344 55.699219 117.640625 55.902344 118.101562 56.109375 C 118.3125 56.207031 118.457031 56.363281 118.542969 56.582031 C 118.621094 56.796875 118.617188 57.011719 118.519531 57.21875 C 118.425781 57.433594 118.265625 57.578125 118.050781 57.664062 C 117.835938 57.746094 117.617188 57.734375 117.410156 57.640625 C 117.019531 57.464844 116.601562 57.289062 116.171875 57.125 C 115.535156 57.75 114.949219 58.414062 114.402344 59.117188 C 113.894531 59.773438 113.457031 60.46875 113.085938 61.207031 C 112.984375 61.414062 112.820312 61.5625 112.597656 61.632812 C 112.375 61.707031 112.160156 61.691406 111.953125 61.585938 C 111.746094 61.480469 111.605469 61.316406 111.53125 61.09375 C 111.460938 60.871094 111.476562 60.65625 111.589844 60.449219 C 112.007812 59.613281 112.503906 58.828125 113.074219 58.089844 C 113.480469 57.558594 113.929688 57.039062 114.421875 56.519531 C 113.570312 56.253906 112.703125 56.023438 111.832031 55.828125 C 111.621094 55.78125 111.457031 55.667969 111.332031 55.492188 C 111.203125 55.316406 111.15625 55.121094 111.183594 54.910156 C 111.210938 54.695312 111.300781 54.515625 111.464844 54.371094 C 111.628906 54.230469 111.816406 54.164062 112.035156 54.167969 Z M 94.167969 55.191406 C 94.367188 55.199219 94.546875 55.269531 94.699219 55.398438 C 94.851562 55.535156 94.949219 55.703125 94.976562 55.902344 C 95.011719 56.101562 94.972656 56.285156 94.871094 56.457031 C 94.769531 56.632812 94.625 56.753906 94.433594 56.828125 C 93.757812 57.066406 93.082031 57.332031 92.429688 57.625 C 91.300781 58.128906 90.203125 58.710938 89.148438 59.355469 C 88.949219 59.472656 88.742188 59.496094 88.523438 59.441406 C 88.304688 59.386719 88.136719 59.265625 88.019531 59.070312 C 87.898438 58.878906 87.867188 58.667969 87.914062 58.449219 C 87.964844 58.226562 88.082031 58.054688 88.269531 57.925781 C 89.386719 57.242188 90.550781 56.632812 91.75 56.09375 C 92.441406 55.789062 93.148438 55.503906 93.867188 55.246094 C 93.964844 55.210938 94.066406 55.191406 94.167969 55.191406 Z M 122.730469 59.429688 C 122.96875 59.433594 123.164062 59.523438 123.324219 59.691406 C 123.359375 59.730469 123.386719 59.765625 123.425781 59.804688 C 124.917969 61.417969 125.910156 63.429688 126.222656 65.460938 C 126.257812 65.691406 126.207031 65.898438 126.070312 66.085938 C 125.929688 66.269531 125.746094 66.378906 125.519531 66.417969 C 125.292969 66.449219 125.082031 66.398438 124.898438 66.265625 C 124.710938 66.125 124.597656 65.945312 124.5625 65.714844 C 124.300781 64.007812 123.460938 62.316406 122.195312 60.941406 L 122.101562 60.84375 C 121.84375 60.574219 121.792969 60.269531 121.941406 59.929688 C 122.09375 59.589844 122.355469 59.421875 122.730469 59.429688 Z M 83.9375 61.46875 C 84.308594 61.476562 84.5625 61.65625 84.699219 62.011719 C 84.832031 62.363281 84.769531 62.664062 84.492188 62.921875 C 83.0625 64.265625 81.78125 65.742188 80.660156 67.355469 C 80.523438 67.539062 80.34375 67.652344 80.121094 67.6875 C 79.898438 67.726562 79.691406 67.679688 79.503906 67.550781 C 79.3125 67.417969 79.199219 67.242188 79.15625 67.015625 C 79.113281 66.789062 79.15625 66.582031 79.285156 66.394531 C 80.472656 64.691406 81.828125 63.125 83.347656 61.699219 C 83.511719 61.539062 83.707031 61.464844 83.941406 61.46875 Z M 110.957031 65.808594 C 111.179688 65.8125 111.375 65.894531 111.53125 66.054688 C 111.6875 66.207031 111.769531 66.402344 111.777344 66.621094 C 111.824219 68.261719 112.3125 69.675781 113.226562 70.824219 C 113.40625 71.046875 113.601562 71.257812 113.808594 71.453125 C 113.980469 71.613281 114.070312 71.808594 114.070312 72.039062 C 114.078125 72.273438 114.003906 72.472656 113.847656 72.640625 C 113.6875 72.8125 113.492188 72.898438 113.261719 72.90625 C 113.027344 72.914062 112.832031 72.835938 112.660156 72.675781 C 112.394531 72.425781 112.148438 72.15625 111.921875 71.867188 C 110.789062 70.449219 110.164062 68.648438 110.101562 66.667969 C 110.097656 66.433594 110.175781 66.234375 110.332031 66.066406 C 110.492188 65.898438 110.6875 65.808594 110.917969 65.808594 Z M 123.957031 70.433594 C 124.304688 70.445312 124.550781 70.601562 124.699219 70.914062 C 124.84375 71.226562 124.8125 71.519531 124.597656 71.789062 C 123.40625 73.304688 121.746094 74.351562 119.9375 74.738281 C 119.570312 74.8125 119.203125 74.867188 118.828125 74.890625 C 118.59375 74.902344 118.394531 74.835938 118.21875 74.683594 C 118.042969 74.53125 117.949219 74.339844 117.933594 74.105469 C 117.921875 73.875 117.988281 73.675781 118.140625 73.5 C 118.296875 73.324219 118.484375 73.230469 118.71875 73.214844 C 119.011719 73.195312 119.300781 73.160156 119.585938 73.097656 C 120.996094 72.796875 122.339844 71.941406 123.28125 70.753906 C 123.457031 70.53125 123.679688 70.425781 123.957031 70.433594 Z M 77.101562 71.332031 C 77.238281 71.332031 77.371094 71.367188 77.488281 71.433594 C 77.609375 71.503906 77.710938 71.59375 77.789062 71.710938 C 77.859375 71.824219 77.90625 71.949219 77.917969 72.089844 C 77.933594 72.226562 77.914062 72.359375 77.859375 72.488281 C 77.660156 72.976562 77.46875 73.476562 77.304688 73.976562 C 76.816406 75.410156 76.457031 76.886719 76.171875 78.140625 C 76.121094 78.363281 75.996094 78.539062 75.800781 78.664062 C 75.605469 78.785156 75.390625 78.824219 75.167969 78.773438 C 74.941406 78.722656 74.765625 78.59375 74.640625 78.398438 C 74.519531 78.203125 74.484375 77.992188 74.535156 77.765625 C 74.832031 76.472656 75.203125 74.945312 75.710938 73.433594 C 75.894531 72.902344 76.089844 72.371094 76.304688 71.847656 C 76.453125 71.496094 76.714844 71.320312 77.101562 71.328125 Z M 66.945312 79.726562 C 67.699219 79.742188 68.449219 79.828125 69.1875 79.980469 C 69.414062 80.027344 69.597656 80.144531 69.726562 80.335938 C 69.859375 80.535156 69.898438 80.75 69.851562 80.976562 C 69.804688 81.207031 69.679688 81.382812 69.480469 81.511719 C 69.285156 81.636719 69.070312 81.675781 68.84375 81.625 C 68.207031 81.492188 67.5625 81.417969 66.910156 81.40625 C 65.679688 81.375 64.476562 81.558594 63.308594 81.941406 C 63.089844 82.015625 62.875 82 62.667969 81.894531 C 62.464844 81.792969 62.324219 81.628906 62.25 81.410156 C 62.175781 81.1875 62.191406 80.976562 62.296875 80.765625 C 62.398438 80.5625 62.5625 80.421875 62.78125 80.347656 C 64.136719 79.902344 65.519531 79.695312 66.945312 79.726562 Z M 74.363281 82.671875 C 74.566406 82.675781 74.742188 82.746094 74.894531 82.875 C 76.453125 84.222656 77.785156 85.957031 78.742188 87.914062 C 78.847656 88.125 78.863281 88.335938 78.792969 88.558594 C 78.71875 88.785156 78.574219 88.945312 78.367188 89.050781 C 78.15625 89.152344 77.9375 89.164062 77.714844 89.089844 C 77.496094 89.011719 77.335938 88.867188 77.238281 88.65625 C 76.539062 87.234375 75.636719 85.957031 74.523438 84.824219 C 74.429688 85.125 74.332031 85.414062 74.234375 85.695312 C 73.730469 87.144531 73.070312 88.511719 72.246094 89.800781 C 72.117188 89.996094 71.941406 90.117188 71.714844 90.167969 C 71.492188 90.214844 71.28125 90.175781 71.082031 90.050781 C 70.890625 89.925781 70.765625 89.75 70.722656 89.523438 C 70.671875 89.296875 70.707031 89.085938 70.835938 88.890625 C 71.585938 87.710938 72.191406 86.460938 72.652344 85.136719 C 72.824219 84.648438 72.984375 84.144531 73.140625 83.59375 C 73.355469 83.402344 73.539062 83.191406 73.710938 82.964844 C 73.882812 82.765625 74.097656 82.667969 74.363281 82.671875 Z M 58.203125 83.734375 C 58.542969 83.742188 58.785156 83.898438 58.9375 84.203125 C 59.085938 84.507812 59.0625 84.796875 58.863281 85.070312 C 58.789062 85.171875 58.714844 85.269531 58.648438 85.375 C 57.953125 86.417969 57.578125 87.511719 57.558594 88.535156 C 57.554688 88.605469 57.554688 88.664062 57.558594 88.726562 C 57.570312 89.15625 57.644531 89.570312 57.785156 89.976562 C 57.867188 90.195312 57.851562 90.40625 57.75 90.617188 C 57.652344 90.828125 57.492188 90.96875 57.277344 91.046875 C 57.058594 91.125 56.84375 91.117188 56.632812 91.011719 C 56.425781 90.910156 56.28125 90.757812 56.207031 90.535156 C 56 89.960938 55.894531 89.375 55.878906 88.769531 C 55.875 88.679688 55.878906 88.589844 55.878906 88.496094 C 55.90625 87.152344 56.382812 85.75 57.25 84.441406 C 57.332031 84.316406 57.417969 84.195312 57.511719 84.074219 C 57.679688 83.839844 57.914062 83.726562 58.203125 83.734375 Z M 67.246094 92.65625 C 67.441406 92.660156 67.609375 92.722656 67.761719 92.839844 C 67.90625 92.960938 68.003906 93.113281 68.046875 93.300781 C 68.09375 93.488281 68.074219 93.664062 67.996094 93.839844 C 67.917969 94.011719 67.796875 94.148438 67.625 94.234375 C 67.082031 94.527344 66.515625 94.765625 65.925781 94.945312 C 65.132812 95.1875 64.320312 95.300781 63.492188 95.277344 C 62.691406 95.261719 61.90625 95.132812 61.136719 94.898438 C 60.917969 94.828125 60.753906 94.695312 60.640625 94.488281 C 60.535156 94.289062 60.515625 94.070312 60.582031 93.851562 C 60.652344 93.628906 60.785156 93.464844 60.992188 93.355469 C 61.195312 93.246094 61.40625 93.222656 61.628906 93.292969 C 62.25 93.484375 62.882812 93.585938 63.527344 93.597656 C 64.175781 93.617188 64.808594 93.53125 65.429688 93.34375 C 65.917969 93.191406 66.386719 92.992188 66.835938 92.753906 C 66.964844 92.6875 67.101562 92.65625 67.246094 92.660156 Z M 79.613281 93.242188 C 79.824219 93.246094 80.011719 93.316406 80.164062 93.460938 C 80.320312 93.609375 80.410156 93.78125 80.433594 93.996094 C 80.503906 94.789062 80.535156 95.582031 80.515625 96.378906 C 80.488281 97.679688 80.34375 98.96875 80.097656 100.25 C 80.058594 100.480469 79.945312 100.667969 79.75 100.796875 C 79.558594 100.933594 79.34375 100.980469 79.113281 100.933594 C 78.878906 100.890625 78.699219 100.765625 78.570312 100.574219 C 78.441406 100.375 78.398438 100.164062 78.453125 99.929688 C 78.679688 98.75 78.804688 97.550781 78.835938 96.34375 C 78.851562 95.613281 78.824219 94.882812 78.757812 94.15625 C 78.734375 93.925781 78.796875 93.71875 78.945312 93.539062 C 79.09375 93.359375 79.28125 93.257812 79.515625 93.238281 C 79.550781 93.238281 79.578125 93.234375 79.613281 93.242188 Z M 77.484375 105.011719 C 77.628906 105.015625 77.757812 105.050781 77.882812 105.117188 C 78.003906 105.1875 78.101562 105.277344 78.175781 105.398438 C 78.25 105.515625 78.292969 105.640625 78.308594 105.78125 C 78.316406 105.921875 78.292969 106.058594 78.238281 106.183594 C 77.40625 108.082031 76.40625 109.890625 75.242188 111.601562 C 75.113281 111.792969 74.933594 111.910156 74.707031 111.957031 C 74.476562 111.996094 74.265625 111.957031 74.074219 111.824219 C 73.882812 111.691406 73.765625 111.515625 73.71875 111.285156 C 73.679688 111.0625 73.722656 110.851562 73.851562 110.65625 C 74.957031 109.03125 75.90625 107.316406 76.699219 105.515625 C 76.851562 105.167969 77.113281 105 77.488281 105.011719 Z M 70.753906 114.96875 C 71.121094 114.976562 71.371094 115.148438 71.511719 115.488281 C 71.648438 115.824219 71.59375 116.125 71.339844 116.390625 C 69.90625 117.871094 68.375 119.238281 66.742188 120.492188 C 66.554688 120.632812 66.347656 120.691406 66.117188 120.660156 C 65.886719 120.632812 65.703125 120.523438 65.5625 120.339844 C 65.417969 120.15625 65.363281 119.945312 65.390625 119.71875 C 65.421875 119.484375 65.53125 119.300781 65.71875 119.160156 C 67.285156 117.957031 68.753906 116.644531 70.132812 115.222656 C 70.300781 115.046875 70.511719 114.960938 70.757812 114.96875 Z M 61.226562 122.347656 C 61.410156 122.351562 61.578125 122.410156 61.726562 122.527344 C 61.875 122.644531 61.96875 122.792969 62.019531 122.976562 C 62.070312 123.160156 62.050781 123.335938 61.980469 123.507812 C 61.910156 123.683594 61.792969 123.820312 61.628906 123.914062 C 59.855469 124.9375 58.035156 125.867188 56.15625 126.695312 C 55.949219 126.789062 55.730469 126.800781 55.511719 126.714844 C 55.296875 126.628906 55.140625 126.480469 55.046875 126.265625 C 54.949219 126.058594 54.945312 125.839844 55.03125 125.621094 C 55.117188 125.410156 55.265625 125.25 55.480469 125.15625 C 57.300781 124.359375 59.066406 123.460938 60.78125 122.460938 C 60.917969 122.378906 61.066406 122.34375 61.230469 122.347656 Z M 50.195312 127.242188 C 50.398438 127.246094 50.574219 127.320312 50.726562 127.453125 C 50.882812 127.585938 50.976562 127.757812 51.003906 127.960938 C 51.035156 128.164062 50.996094 128.351562 50.886719 128.523438 C 50.78125 128.699219 50.632812 128.820312 50.433594 128.882812 C 48.515625 129.507812 46.527344 130.054688 44.53125 130.507812 C 44.304688 130.558594 44.09375 130.519531 43.894531 130.394531 C 43.703125 130.273438 43.582031 130.097656 43.527344 129.871094 C 43.476562 129.644531 43.511719 129.433594 43.636719 129.238281 C 43.757812 129.042969 43.9375 128.917969 44.160156 128.867188 C 46.109375 128.429688 48.042969 127.898438 49.914062 127.289062 C 50.007812 127.253906 50.101562 127.242188 50.195312 127.242188 Z M 38.433594 129.976562 C 38.648438 129.984375 38.832031 130.0625 38.988281 130.207031 C 39.144531 130.359375 39.230469 130.539062 39.246094 130.757812 C 39.261719 130.972656 39.203125 131.167969 39.070312 131.332031 C 38.9375 131.503906 38.761719 131.605469 38.550781 131.644531 C 37.601562 131.808594 36.636719 131.960938 35.703125 132.109375 C 34.679688 132.277344 33.625 132.449219 32.585938 132.621094 C 32.355469 132.664062 32.148438 132.613281 31.960938 132.480469 C 31.769531 132.347656 31.660156 132.167969 31.617188 131.9375 C 31.578125 131.707031 31.625 131.5 31.761719 131.308594 C 31.898438 131.121094 32.078125 131.003906 32.308594 130.96875 C 33.347656 130.789062 34.410156 130.621094 35.433594 130.457031 C 36.363281 130.304688 37.328125 130.148438 38.269531 129.992188 C 38.324219 129.984375 38.382812 129.976562 38.4375 129.976562 Z M 26.539062 132.105469 C 26.75 132.109375 26.929688 132.1875 27.089844 132.328125 C 27.242188 132.472656 27.332031 132.652344 27.355469 132.859375 C 27.375 133.074219 27.324219 133.261719 27.199219 133.433594 C 27.074219 133.609375 26.914062 133.714844 26.703125 133.761719 C 24.765625 134.195312 22.859375 134.738281 20.984375 135.386719 C 20.761719 135.460938 20.550781 135.453125 20.339844 135.351562 C 20.132812 135.25 19.992188 135.089844 19.914062 134.871094 C 19.835938 134.652344 19.847656 134.4375 19.949219 134.226562 C 20.050781 134.023438 20.207031 133.878906 20.429688 133.800781 C 22.363281 133.128906 24.328125 132.574219 26.332031 132.128906 C 26.398438 132.113281 26.46875 132.105469 26.539062 132.105469 Z M 15.222656 136.238281 C 15.410156 136.242188 15.578125 136.308594 15.726562 136.425781 C 15.875 136.542969 15.972656 136.691406 16.019531 136.875 C 16.066406 137.058594 16.050781 137.238281 15.972656 137.410156 C 15.902344 137.585938 15.78125 137.71875 15.617188 137.808594 C 13.90625 138.773438 12.3125 139.902344 10.839844 141.203125 C 10.667969 141.355469 10.464844 141.425781 10.234375 141.414062 C 10.003906 141.398438 9.808594 141.308594 9.652344 141.132812 C 9.5 140.957031 9.425781 140.757812 9.445312 140.523438 C 9.457031 140.289062 9.550781 140.097656 9.722656 139.945312 C 11.285156 138.570312 12.972656 137.371094 14.792969 136.351562 C 14.925781 136.277344 15.066406 136.238281 15.21875 136.238281 Z M 6.355469 144.285156 C 6.6875 144.292969 6.925781 144.441406 7.078125 144.730469 C 7.230469 145.023438 7.21875 145.300781 7.046875 145.578125 C 5.992188 147.203125 5.246094 148.957031 4.800781 150.84375 C 4.75 151.074219 4.628906 151.25 4.429688 151.378906 C 4.234375 151.503906 4.019531 151.542969 3.792969 151.488281 C 3.5625 151.433594 3.386719 151.308594 3.261719 151.109375 C 3.144531 150.910156 3.109375 150.695312 3.164062 150.46875 C 3.648438 148.394531 4.472656 146.460938 5.632812 144.671875 C 5.800781 144.40625 6.046875 144.28125 6.355469 144.285156 Z M 6.355469 144.285156 " fill-opacity="1" fill-rule="nonzero"/></g></g></g></g></g><g clip-path="url(#35d0605b2f)"><g clip-path="url(#6b145d2dec)"><g clip-path="url(#cbf36f5a37)"><g clip-path="url(#e4b0c9304b)"><g clip-path="url(#af01fc2298)"><path fill="#444455" d="M 132.789062 8.335938 C 132.988281 8.339844 133.164062 8.40625 133.316406 8.539062 C 136.242188 11.03125 139.574219 12.746094 143.300781 13.6875 C 143.523438 13.746094 143.699219 13.875 143.820312 14.074219 C 143.9375 14.269531 143.96875 14.484375 143.910156 14.707031 C 143.855469 14.933594 143.730469 15.105469 143.527344 15.222656 C 143.332031 15.34375 143.117188 15.371094 142.894531 15.316406 C 139.289062 14.40625 136.023438 12.808594 133.097656 10.523438 C 131.851562 13.316406 130.503906 16.09375 129.078125 18.789062 C 128.96875 18.992188 128.804688 19.125 128.582031 19.191406 C 128.363281 19.261719 128.152344 19.242188 127.949219 19.132812 C 127.742188 19.027344 127.605469 18.863281 127.539062 18.640625 C 127.46875 18.425781 127.488281 18.210938 127.59375 18.007812 C 129.167969 15.015625 130.65625 11.9375 132.003906 8.839844 C 132.113281 8.578125 132.308594 8.421875 132.585938 8.355469 C 132.648438 8.339844 132.722656 8.335938 132.789062 8.335938 Z M 132.789062 8.335938 " fill-opacity="1" fill-rule="nonzero"/></g></g></g></g></g></svg>