<svg xmlns="http://www.w3.org/2000/svg" xmlns:xlink="http://www.w3.org/1999/xlink" width="400" zoomAndPan="magnify" viewBox="0 0 300 149.999998" height="200" preserveAspectRatio="xMidYMid meet" version="1.0"><defs><clipPath id="153b4d4329"><path d="M 19 21 L 247 21 L 247 150 L 19 150 Z M 19 21 " clip-rule="nonzero"/></clipPath><clipPath id="99b76fe879"><path d="M 198.960938 208.429688 L 19.121094 150.3125 L 80.46875 -39.523438 L 260.308594 18.597656 Z M 198.960938 208.429688 " clip-rule="nonzero"/></clipPath><clipPath id="3421d90fa1"><path d="M 198.960938 208.429688 L 19.121094 150.3125 L 80.46875 -39.523438 L 260.308594 18.597656 Z M 198.960938 208.429688 " clip-rule="nonzero"/></clipPath><clipPath id="b9da80aa40"><path d="M 234 13 L 258 13 L 258 28 L 234 28 Z M 234 13 " clip-rule="nonzero"/></clipPath><clipPath id="c018d603d8"><path d="M 198.960938 208.429688 L 19.121094 150.3125 L 80.46875 -39.523438 L 260.308594 18.597656 Z M 198.960938 208.429688 " clip-rule="nonzero"/></clipPath><clipPath id="f044aef873"><path d="M 198.960938 208.429688 L 19.121094 150.3125 L 80.46875 -39.523438 L 260.308594 18.597656 Z M 198.960938 208.429688 " clip-rule="nonzero"/></clipPath></defs><g clip-path="url(#153b4d4329)"><g clip-path="url(#99b76fe879)"><g clip-path="url(#3421d90fa1)"><path fill="#445" d="M 245.796875 21.914062 C 246.046875 21.996094 246.246094 22.144531 246.394531 22.359375 C 246.539062 22.578125 246.605469 22.816406 246.589844 23.078125 C 246.414062 25.902344 245.992188 28.6875 245.332031 31.4375 C 245.296875 31.589844 245.238281 31.726562 245.148438 31.855469 C 245.058594 31.980469 244.949219 32.085938 244.820312 32.167969 C 244.6875 32.25 244.546875 32.300781 244.394531 32.328125 C 244.242188 32.351562 244.089844 32.347656 243.941406 32.3125 C 243.792969 32.273438 243.65625 32.210938 243.53125 32.121094 C 243.40625 32.027344 243.304688 31.917969 243.222656 31.785156 C 243.144531 31.652344 243.09375 31.507812 243.074219 31.355469 C 243.050781 31.203125 243.058594 31.050781 243.097656 30.902344 C 243.730469 28.28125 244.128906 25.625 244.296875 22.9375 C 244.308594 22.785156 244.347656 22.640625 244.414062 22.503906 C 244.480469 22.367188 244.570312 22.246094 244.683594 22.144531 C 244.796875 22.046875 244.925781 21.96875 245.070312 21.921875 C 245.214844 21.871094 245.363281 21.851562 245.515625 21.859375 C 245.613281 21.867188 245.707031 21.882812 245.796875 21.914062 Z M 241.976562 37.917969 C 242.007812 37.929688 242.042969 37.941406 242.074219 37.949219 C 242.214844 38.011719 242.339844 38.09375 242.445312 38.203125 C 242.550781 38.3125 242.632812 38.4375 242.691406 38.578125 C 242.75 38.71875 242.777344 38.863281 242.773438 39.015625 C 242.773438 39.167969 242.742188 39.316406 242.683594 39.457031 C 241.582031 42.054688 240.277344 44.550781 238.773438 46.9375 C 238.691406 47.066406 238.589844 47.175781 238.464844 47.265625 C 238.339844 47.351562 238.203125 47.414062 238.054688 47.445312 C 237.90625 47.480469 237.757812 47.484375 237.609375 47.457031 C 237.457031 47.433594 237.320312 47.378906 237.191406 47.296875 C 237.0625 47.21875 236.953125 47.113281 236.863281 46.988281 C 236.777344 46.867188 236.714844 46.730469 236.683594 46.582031 C 236.648438 46.433594 236.644531 46.28125 236.671875 46.132812 C 236.695312 45.984375 236.75 45.84375 236.832031 45.714844 C 238.269531 43.433594 239.519531 41.050781 240.574219 38.566406 C 240.691406 38.292969 240.882812 38.09375 241.152344 37.96875 C 241.425781 37.84375 241.703125 37.828125 241.984375 37.917969 Z M 233.199219 51.84375 C 233.351562 51.894531 233.488281 51.972656 233.605469 52.078125 C 233.71875 52.179688 233.808594 52.296875 233.875 52.433594 C 233.941406 52.570312 233.980469 52.714844 233.992188 52.867188 C 234 53.019531 233.980469 53.167969 233.929688 53.3125 C 233.878906 53.453125 233.804688 53.582031 233.703125 53.699219 C 231.828125 55.8125 229.785156 57.753906 227.578125 59.523438 C 227.460938 59.617188 227.328125 59.6875 227.179688 59.730469 C 227.035156 59.769531 226.886719 59.785156 226.734375 59.765625 C 226.582031 59.75 226.441406 59.707031 226.308594 59.632812 C 226.175781 59.558594 226.058594 59.460938 225.964844 59.34375 C 225.871094 59.222656 225.800781 59.089844 225.757812 58.945312 C 225.714844 58.800781 225.703125 58.648438 225.722656 58.5 C 225.738281 58.347656 225.78125 58.207031 225.855469 58.070312 C 225.929688 57.9375 226.027344 57.824219 226.144531 57.730469 C 228.25 56.042969 230.195312 54.191406 231.984375 52.171875 C 232.136719 52 232.324219 51.886719 232.546875 51.824219 C 232.769531 51.765625 232.988281 51.773438 233.207031 51.84375 Z M 220.332031 62.085938 C 220.550781 62.160156 220.730469 62.285156 220.875 62.464844 C 221.019531 62.644531 221.101562 62.847656 221.121094 63.078125 C 221.140625 63.304688 221.097656 63.523438 220.988281 63.722656 C 220.878906 63.925781 220.722656 64.082031 220.519531 64.191406 C 219.820312 64.566406 219.109375 64.925781 218.394531 65.261719 C 216.585938 66.109375 214.734375 66.847656 212.839844 67.585938 C 212.695312 67.648438 212.546875 67.675781 212.394531 67.675781 C 212.238281 67.675781 212.089844 67.648438 211.949219 67.585938 C 211.804688 67.527344 211.679688 67.441406 211.574219 67.332031 C 211.464844 67.21875 211.382812 67.09375 211.324219 66.949219 C 211.269531 66.804688 211.242188 66.65625 211.246094 66.5 C 211.25 66.34375 211.285156 66.199219 211.347656 66.054688 C 211.414062 65.914062 211.5 65.792969 211.613281 65.6875 C 211.726562 65.582031 211.855469 65.503906 212.003906 65.449219 C 213.859375 64.722656 215.671875 64 217.417969 63.183594 C 218.09375 62.863281 218.773438 62.523438 219.433594 62.167969 C 219.722656 62.011719 220.023438 61.984375 220.335938 62.085938 Z M 192.097656 62.074219 C 192.335938 62.152344 192.574219 62.230469 192.808594 62.3125 C 192.953125 62.359375 193.082031 62.4375 193.199219 62.535156 C 193.3125 62.636719 193.402344 62.753906 193.46875 62.890625 C 193.539062 63.027344 193.578125 63.171875 193.585938 63.324219 C 193.597656 63.476562 193.578125 63.625 193.527344 63.769531 C 193.476562 63.914062 193.402344 64.042969 193.300781 64.160156 C 193.203125 64.273438 193.082031 64.363281 192.945312 64.429688 C 192.808594 64.496094 192.664062 64.535156 192.511719 64.546875 C 192.359375 64.554688 192.210938 64.535156 192.066406 64.484375 C 189.519531 63.617188 186.914062 62.988281 184.25 62.601562 C 184.097656 62.578125 183.957031 62.53125 183.828125 62.453125 C 183.695312 62.375 183.585938 62.273438 183.492188 62.152344 C 183.402344 62.03125 183.335938 61.894531 183.300781 61.746094 C 183.261719 61.601562 183.253906 61.449219 183.277344 61.300781 C 183.296875 61.148438 183.347656 61.007812 183.425781 60.878906 C 183.503906 60.746094 183.601562 60.636719 183.726562 60.542969 C 183.847656 60.453125 183.980469 60.390625 184.128906 60.351562 C 184.277344 60.3125 184.425781 60.304688 184.578125 60.328125 C 187.136719 60.699219 189.644531 61.28125 192.105469 62.074219 Z M 200.328125 65.667969 C 200.402344 65.691406 200.472656 65.722656 200.539062 65.761719 C 201.863281 66.503906 203.164062 67.320312 204.402344 68.1875 C 204.613281 68.332031 204.820312 68.476562 205.019531 68.625 C 205.398438 68.691406 205.671875 68.894531 205.84375 69.238281 C 206.433594 69.6875 206.992188 70.144531 207.511719 70.597656 C 207.625 70.699219 207.71875 70.816406 207.785156 70.953125 C 207.851562 71.089844 207.894531 71.234375 207.902344 71.386719 C 207.914062 71.535156 207.894531 71.683594 207.847656 71.828125 C 207.796875 71.972656 207.722656 72.105469 207.625 72.21875 C 207.523438 72.332031 207.40625 72.425781 207.269531 72.492188 C 207.132812 72.558594 206.988281 72.597656 206.835938 72.609375 C 206.683594 72.621094 206.535156 72.601562 206.390625 72.554688 C 206.246094 72.503906 206.117188 72.429688 206.003906 72.332031 C 205.558594 71.945312 205.085938 71.550781 204.585938 71.167969 C 203.511719 71.738281 202.476562 72.375 201.484375 73.082031 C 200.566406 73.738281 199.71875 74.480469 198.9375 75.300781 C 198.835938 75.414062 198.710938 75.5 198.574219 75.566406 C 198.433594 75.628906 198.285156 75.664062 198.132812 75.667969 C 197.980469 75.671875 197.832031 75.648438 197.6875 75.59375 C 197.546875 75.539062 197.417969 75.457031 197.304688 75.351562 C 197.195312 75.246094 197.109375 75.125 197.046875 74.984375 C 196.984375 74.84375 196.953125 74.695312 196.949219 74.542969 C 196.945312 74.390625 196.972656 74.242188 197.03125 74.097656 C 197.085938 73.957031 197.167969 73.828125 197.273438 73.71875 C 198.152344 72.792969 199.113281 71.957031 200.148438 71.210938 C 200.890625 70.679688 201.679688 70.175781 202.53125 69.683594 C 201.523438 69.003906 200.476562 68.359375 199.414062 67.761719 C 199.15625 67.617188 198.980469 67.40625 198.886719 67.125 C 198.789062 66.847656 198.800781 66.570312 198.921875 66.300781 C 199.039062 66.03125 199.234375 65.835938 199.5 65.714844 C 199.769531 65.589844 200.046875 65.578125 200.328125 65.667969 Z M 176.523438 59.984375 C 176.785156 60.070312 176.992188 60.230469 177.136719 60.464844 C 177.285156 60.699219 177.34375 60.953125 177.304688 61.226562 C 177.269531 61.5 177.152344 61.734375 176.949219 61.921875 C 176.746094 62.109375 176.503906 62.210938 176.230469 62.226562 C 175.246094 62.277344 174.261719 62.363281 173.292969 62.488281 C 171.613281 62.703125 169.949219 63.03125 168.3125 63.464844 C 168.167969 63.5 168.019531 63.503906 167.871094 63.480469 C 167.726562 63.457031 167.589844 63.40625 167.460938 63.332031 C 167.332031 63.253906 167.222656 63.15625 167.132812 63.035156 C 167.046875 62.917969 166.980469 62.785156 166.941406 62.640625 C 166.90625 62.5 166.894531 62.351562 166.914062 62.203125 C 166.929688 62.054688 166.976562 61.917969 167.050781 61.789062 C 167.121094 61.65625 167.214844 61.546875 167.332031 61.453125 C 167.449219 61.359375 167.578125 61.289062 167.722656 61.246094 C 169.457031 60.785156 171.21875 60.441406 173 60.210938 C 174.023438 60.082031 175.070312 59.988281 176.109375 59.933594 C 176.25 59.925781 176.390625 59.941406 176.527344 59.984375 Z M 212.269531 76.765625 C 212.578125 76.863281 212.800781 77.054688 212.945312 77.34375 C 212.976562 77.40625 213.003906 77.464844 213.035156 77.527344 C 214.355469 80.234375 214.863281 83.253906 214.472656 86.039062 C 214.453125 86.1875 214.402344 86.328125 214.324219 86.460938 C 214.246094 86.589844 214.148438 86.703125 214.027344 86.792969 C 213.90625 86.886719 213.769531 86.949219 213.621094 86.988281 C 213.476562 87.027344 213.328125 87.035156 213.175781 87.015625 C 213.023438 86.992188 212.882812 86.945312 212.753906 86.867188 C 212.621094 86.789062 212.511719 86.691406 212.417969 86.566406 C 212.328125 86.445312 212.261719 86.3125 212.222656 86.164062 C 212.1875 86.015625 212.175781 85.867188 212.199219 85.71875 C 212.527344 83.382812 212.089844 80.832031 210.972656 78.535156 L 210.890625 78.371094 C 210.789062 78.164062 210.75 77.945312 210.777344 77.71875 C 210.804688 77.488281 210.894531 77.285156 211.046875 77.109375 C 211.195312 76.933594 211.382812 76.816406 211.605469 76.75 C 211.828125 76.6875 212.050781 76.695312 212.269531 76.765625 Z M 160.652344 64.183594 C 160.871094 64.253906 161.054688 64.382812 161.199219 64.566406 C 161.34375 64.75 161.425781 64.957031 161.441406 65.1875 C 161.460938 65.421875 161.410156 65.640625 161.296875 65.839844 C 161.179688 66.042969 161.019531 66.199219 160.808594 66.300781 C 158.40625 67.503906 156.152344 68.933594 154.046875 70.601562 C 153.925781 70.691406 153.792969 70.757812 153.648438 70.796875 C 153.503906 70.835938 153.359375 70.847656 153.207031 70.828125 C 153.058594 70.808594 152.917969 70.761719 152.789062 70.6875 C 152.65625 70.613281 152.546875 70.519531 152.453125 70.402344 C 152.359375 70.285156 152.292969 70.152344 152.25 70.007812 C 152.207031 69.863281 152.195312 69.71875 152.210938 69.566406 C 152.226562 69.417969 152.269531 69.277344 152.339844 69.144531 C 152.410156 69.011719 152.503906 68.898438 152.621094 68.804688 C 154.851562 67.039062 157.242188 65.519531 159.789062 64.25 C 160.066406 64.109375 160.355469 64.085938 160.65625 64.183594 Z M 194.339844 80.488281 C 194.632812 80.585938 194.847656 80.765625 194.996094 81.035156 C 195.140625 81.304688 195.175781 81.585938 195.09375 81.878906 C 194.511719 84.046875 194.597656 86.089844 195.34375 87.957031 C 195.488281 88.320312 195.660156 88.671875 195.855469 89.007812 C 195.933594 89.140625 195.980469 89.28125 196 89.433594 C 196.019531 89.585938 196.011719 89.734375 195.972656 89.878906 C 195.933594 90.027344 195.867188 90.160156 195.773438 90.28125 C 195.683594 90.402344 195.570312 90.5 195.4375 90.578125 C 195.304688 90.652344 195.164062 90.703125 195.015625 90.722656 C 194.863281 90.742188 194.714844 90.734375 194.566406 90.695312 C 194.417969 90.65625 194.285156 90.589844 194.164062 90.496094 C 194.042969 90.402344 193.945312 90.292969 193.867188 90.160156 C 193.621094 89.722656 193.402344 89.273438 193.21875 88.808594 C 192.296875 86.503906 192.179688 83.898438 192.882812 81.28125 C 192.925781 81.132812 192.992188 81 193.082031 80.878906 C 193.175781 80.757812 193.289062 80.660156 193.421875 80.585938 C 193.550781 80.507812 193.695312 80.460938 193.84375 80.441406 C 193.996094 80.421875 194.144531 80.429688 194.292969 80.472656 Z M 209.554688 91.664062 C 210 91.808594 210.257812 92.117188 210.328125 92.582031 C 210.398438 93.050781 210.242188 93.417969 209.859375 93.691406 C 207.699219 95.203125 205.117188 95.925781 202.59375 95.71875 C 202.082031 95.675781 201.578125 95.597656 201.078125 95.480469 C 200.929688 95.449219 200.792969 95.386719 200.667969 95.296875 C 200.542969 95.210938 200.441406 95.101562 200.363281 94.972656 C 200.28125 94.84375 200.226562 94.703125 200.203125 94.550781 C 200.179688 94.402344 200.183594 94.253906 200.21875 94.105469 C 200.25 93.957031 200.3125 93.820312 200.402344 93.695312 C 200.488281 93.574219 200.597656 93.46875 200.726562 93.390625 C 200.855469 93.308594 200.996094 93.257812 201.148438 93.230469 C 201.296875 93.207031 201.445312 93.210938 201.59375 93.246094 C 201.984375 93.335938 202.378906 93.398438 202.777344 93.433594 C 204.742188 93.59375 206.84375 93.003906 208.539062 91.816406 C 208.851562 91.59375 209.1875 91.542969 209.550781 91.660156 Z M 147.820312 74.410156 C 148 74.464844 148.15625 74.5625 148.289062 74.699219 C 148.421875 74.832031 148.515625 74.992188 148.570312 75.175781 C 148.625 75.355469 148.632812 75.539062 148.59375 75.722656 C 148.558594 75.910156 148.480469 76.078125 148.359375 76.222656 C 147.90625 76.785156 147.464844 77.367188 147.046875 77.953125 C 145.84375 79.644531 144.792969 81.433594 143.925781 82.964844 C 143.851562 83.097656 143.753906 83.210938 143.632812 83.304688 C 143.511719 83.398438 143.378906 83.464844 143.234375 83.503906 C 143.085938 83.542969 142.9375 83.554688 142.785156 83.535156 C 142.636719 83.519531 142.492188 83.472656 142.359375 83.394531 C 142.230469 83.320312 142.117188 83.222656 142.023438 83.101562 C 141.929688 82.984375 141.863281 82.847656 141.820312 82.703125 C 141.78125 82.554688 141.769531 82.40625 141.789062 82.253906 C 141.808594 82.105469 141.855469 81.960938 141.929688 81.832031 C 142.824219 80.25 143.914062 78.398438 145.175781 76.621094 C 145.621094 75.992188 146.089844 75.375 146.574219 74.777344 C 146.726562 74.59375 146.914062 74.464844 147.140625 74.398438 C 147.371094 74.332031 147.597656 74.332031 147.824219 74.40625 Z M 131.21875 81.414062 C 132.199219 81.730469 133.144531 82.136719 134.050781 82.628906 C 134.1875 82.699219 134.304688 82.792969 134.402344 82.910156 C 134.503906 83.03125 134.574219 83.164062 134.621094 83.308594 C 134.664062 83.457031 134.679688 83.609375 134.664062 83.761719 C 134.648438 83.914062 134.605469 84.058594 134.53125 84.195312 C 134.457031 84.332031 134.363281 84.445312 134.242188 84.542969 C 134.121094 84.640625 133.988281 84.710938 133.839844 84.75 C 133.691406 84.792969 133.539062 84.804688 133.386719 84.789062 C 133.234375 84.769531 133.089844 84.722656 132.957031 84.644531 C 132.171875 84.222656 131.359375 83.875 130.511719 83.601562 C 128.910156 83.082031 127.265625 82.84375 125.582031 82.886719 C 125.429688 82.890625 125.285156 82.867188 125.140625 82.8125 C 125 82.757812 124.875 82.679688 124.761719 82.574219 C 124.652344 82.46875 124.566406 82.347656 124.503906 82.207031 C 124.441406 82.070312 124.410156 81.921875 124.402344 81.773438 C 124.398438 81.621094 124.425781 81.472656 124.480469 81.328125 C 124.535156 81.1875 124.613281 81.0625 124.71875 80.949219 C 124.824219 80.839844 124.945312 80.753906 125.082031 80.691406 C 125.222656 80.628906 125.367188 80.597656 125.519531 80.59375 C 127.464844 80.539062 129.367188 80.816406 131.21875 81.414062 Z M 139.773438 88.191406 C 140.039062 88.273438 140.242188 88.433594 140.390625 88.667969 C 141.902344 91.039062 142.964844 93.84375 143.449219 96.78125 C 143.476562 96.929688 143.472656 97.082031 143.441406 97.230469 C 143.410156 97.382812 143.347656 97.519531 143.257812 97.644531 C 143.171875 97.773438 143.0625 97.875 142.929688 97.957031 C 142.800781 98.039062 142.660156 98.09375 142.507812 98.117188 C 142.355469 98.144531 142.207031 98.136719 142.058594 98.101562 C 141.90625 98.066406 141.769531 98.003906 141.644531 97.914062 C 141.519531 97.824219 141.417969 97.714844 141.339844 97.582031 C 141.257812 97.449219 141.207031 97.308594 141.183594 97.15625 C 140.832031 95.019531 140.152344 92.992188 139.140625 91.074219 C 138.898438 91.429688 138.660156 91.769531 138.414062 92.101562 C 137.1875 93.796875 135.78125 95.328125 134.195312 96.695312 C 134.082031 96.792969 133.949219 96.867188 133.804688 96.914062 C 133.660156 96.960938 133.511719 96.976562 133.359375 96.964844 C 133.207031 96.953125 133.066406 96.914062 132.929688 96.84375 C 132.792969 96.773438 132.675781 96.679688 132.578125 96.566406 C 132.480469 96.449219 132.40625 96.320312 132.359375 96.175781 C 132.3125 96.03125 132.296875 95.882812 132.308594 95.730469 C 132.320312 95.578125 132.359375 95.433594 132.429688 95.296875 C 132.5 95.164062 132.589844 95.046875 132.707031 94.949219 C 134.15625 93.699219 135.441406 92.296875 136.5625 90.746094 C 136.980469 90.175781 137.390625 89.578125 137.816406 88.917969 C 138.164062 88.746094 138.496094 88.546875 138.804688 88.316406 C 139.109375 88.121094 139.429688 88.082031 139.773438 88.191406 Z M 118.191406 83.226562 C 118.632812 83.371094 118.890625 83.671875 118.96875 84.128906 C 119.046875 84.585938 118.898438 84.957031 118.527344 85.234375 C 118.390625 85.335938 118.257812 85.4375 118.128906 85.550781 C 116.8125 86.644531 115.886719 87.925781 115.457031 89.261719 C 115.429688 89.347656 115.402344 89.429688 115.382812 89.515625 C 115.226562 90.078125 115.160156 90.652344 115.191406 91.238281 C 115.199219 91.390625 115.175781 91.539062 115.125 91.679688 C 115.074219 91.824219 114.996094 91.953125 114.894531 92.066406 C 114.792969 92.179688 114.671875 92.265625 114.535156 92.332031 C 114.394531 92.398438 114.25 92.433594 114.097656 92.441406 C 113.945312 92.449219 113.800781 92.425781 113.65625 92.375 C 113.511719 92.324219 113.386719 92.246094 113.273438 92.144531 C 113.160156 92.042969 113.070312 91.921875 113.003906 91.785156 C 112.941406 91.644531 112.902344 91.5 112.898438 91.347656 C 112.855469 90.519531 112.945312 89.703125 113.167969 88.902344 C 113.199219 88.789062 113.234375 88.671875 113.273438 88.550781 C 113.835938 86.804688 115.011719 85.152344 116.664062 83.78125 C 116.820312 83.648438 116.984375 83.519531 117.148438 83.398438 C 117.464844 83.160156 117.8125 83.105469 118.191406 83.226562 Z M 126.53125 98.46875 C 126.777344 98.550781 126.976562 98.699219 127.125 98.914062 C 127.273438 99.128906 127.339844 99.367188 127.324219 99.628906 C 127.308594 99.890625 127.214844 100.117188 127.042969 100.316406 C 126.871094 100.511719 126.660156 100.636719 126.402344 100.6875 C 125.578125 100.855469 124.742188 100.941406 123.898438 100.949219 C 122.761719 100.957031 121.65625 100.78125 120.578125 100.429688 C 119.535156 100.089844 118.558594 99.613281 117.644531 99.003906 C 117.519531 98.921875 117.414062 98.816406 117.328125 98.6875 C 117.242188 98.5625 117.1875 98.425781 117.15625 98.273438 C 117.128906 98.125 117.128906 97.976562 117.15625 97.828125 C 117.1875 97.679688 117.242188 97.539062 117.328125 97.414062 C 117.414062 97.285156 117.519531 97.179688 117.644531 97.097656 C 117.769531 97.011719 117.910156 96.953125 118.058594 96.925781 C 118.207031 96.894531 118.355469 96.894531 118.503906 96.921875 C 118.65625 96.953125 118.792969 97.011719 118.917969 97.09375 C 119.652344 97.585938 120.441406 97.96875 121.285156 98.246094 C 122.125 98.523438 122.988281 98.660156 123.875 98.65625 C 124.574219 98.648438 125.265625 98.574219 125.953125 98.4375 C 126.148438 98.398438 126.339844 98.410156 126.527344 98.472656 Z M 142.496094 104.097656 C 142.773438 104.1875 142.984375 104.355469 143.132812 104.605469 C 143.28125 104.855469 143.324219 105.121094 143.269531 105.40625 C 143.054688 106.476562 142.78125 107.527344 142.445312 108.5625 C 141.890625 110.257812 141.203125 111.890625 140.375 113.46875 C 140.308594 113.609375 140.214844 113.726562 140.097656 113.828125 C 139.980469 113.929688 139.847656 114.003906 139.703125 114.050781 C 139.554688 114.101562 139.40625 114.117188 139.25 114.105469 C 139.097656 114.09375 138.953125 114.050781 138.816406 113.976562 C 138.679688 113.90625 138.5625 113.8125 138.460938 113.691406 C 138.363281 113.574219 138.292969 113.441406 138.246094 113.292969 C 138.203125 113.144531 138.1875 112.992188 138.203125 112.839844 C 138.222656 112.6875 138.265625 112.542969 138.339844 112.40625 C 139.105469 110.945312 139.746094 109.425781 140.257812 107.855469 C 140.566406 106.90625 140.820312 105.941406 141.015625 104.960938 C 141.042969 104.808594 141.101562 104.671875 141.1875 104.546875 C 141.269531 104.417969 141.378906 104.3125 141.503906 104.226562 C 141.632812 104.144531 141.769531 104.085938 141.917969 104.058594 C 142.070312 104.027344 142.21875 104.027344 142.367188 104.058594 C 142.410156 104.066406 142.457031 104.082031 142.496094 104.097656 Z M 135.082031 118.679688 C 135.265625 118.738281 135.421875 118.835938 135.554688 118.972656 C 135.6875 119.109375 135.78125 119.273438 135.832031 119.457031 C 135.886719 119.640625 135.890625 119.828125 135.851562 120.011719 C 135.8125 120.199219 135.730469 120.367188 135.605469 120.511719 C 133.769531 122.671875 131.753906 124.644531 129.550781 126.429688 C 129.433594 126.527344 129.300781 126.597656 129.15625 126.640625 C 129.007812 126.683594 128.859375 126.699219 128.707031 126.683594 C 128.554688 126.667969 128.414062 126.621094 128.277344 126.550781 C 128.144531 126.476562 128.03125 126.382812 127.933594 126.261719 C 127.835938 126.144531 127.769531 126.011719 127.722656 125.867188 C 127.679688 125.722656 127.667969 125.570312 127.683594 125.421875 C 127.699219 125.269531 127.742188 125.125 127.8125 124.992188 C 127.886719 124.859375 127.980469 124.742188 128.101562 124.644531 C 130.191406 122.953125 132.105469 121.078125 133.847656 119.027344 C 134 118.847656 134.191406 118.726562 134.414062 118.664062 C 134.640625 118.601562 134.863281 118.605469 135.085938 118.679688 Z M 122.347656 129.074219 C 122.5625 129.144531 122.742188 129.269531 122.886719 129.445312 C 123.03125 129.625 123.113281 129.824219 123.136719 130.054688 C 123.160156 130.28125 123.117188 130.496094 123.011719 130.699219 C 122.90625 130.898438 122.753906 131.058594 122.554688 131.167969 C 120.097656 132.542969 117.550781 133.730469 114.914062 134.730469 C 114.773438 134.785156 114.625 134.8125 114.472656 134.804688 C 114.320312 134.800781 114.175781 134.769531 114.035156 134.707031 C 113.898438 134.644531 113.773438 134.558594 113.671875 134.445312 C 113.566406 134.335938 113.488281 134.210938 113.433594 134.066406 C 113.378906 133.925781 113.351562 133.777344 113.359375 133.625 C 113.363281 133.472656 113.394531 133.328125 113.457031 133.1875 C 113.519531 133.046875 113.605469 132.925781 113.71875 132.824219 C 113.828125 132.71875 113.957031 132.640625 114.097656 132.585938 C 116.628906 131.625 119.070312 130.484375 121.433594 129.164062 C 121.726562 129 122.03125 128.96875 122.351562 129.074219 Z M 106.960938 134.992188 C 107.207031 135.070312 107.402344 135.214844 107.550781 135.425781 C 107.699219 135.636719 107.765625 135.871094 107.757812 136.128906 C 107.746094 136.386719 107.660156 136.613281 107.496094 136.8125 C 107.335938 137.011719 107.128906 137.140625 106.878906 137.203125 C 104.152344 137.851562 101.398438 138.351562 98.617188 138.695312 C 98.464844 138.714844 98.316406 138.707031 98.167969 138.667969 C 98.019531 138.625 97.886719 138.558594 97.765625 138.464844 C 97.644531 138.375 97.546875 138.261719 97.46875 138.128906 C 97.394531 137.996094 97.347656 137.851562 97.328125 137.699219 C 97.308594 137.546875 97.320312 137.398438 97.359375 137.25 C 97.402344 137.101562 97.46875 136.96875 97.5625 136.847656 C 97.65625 136.726562 97.769531 136.628906 97.90625 136.554688 C 98.039062 136.480469 98.179688 136.433594 98.332031 136.417969 C 101.027344 136.082031 103.699219 135.601562 106.339844 134.96875 C 106.550781 134.917969 106.761719 134.925781 106.964844 134.996094 Z M 90.585938 137.070312 C 90.851562 137.15625 91.058594 137.316406 91.207031 137.554688 C 91.355469 137.792969 91.410156 138.050781 91.371094 138.328125 C 91.328125 138.605469 91.203125 138.835938 90.996094 139.019531 C 90.785156 139.207031 90.539062 139.300781 90.261719 139.308594 C 87.5 139.375 84.683594 139.308594 81.886719 139.113281 C 81.738281 139.101562 81.59375 139.0625 81.457031 138.996094 C 81.320312 138.925781 81.203125 138.835938 81.101562 138.722656 C 81.003906 138.605469 80.929688 138.476562 80.878906 138.332031 C 80.832031 138.1875 80.8125 138.039062 80.824219 137.886719 C 80.835938 137.734375 80.875 137.589844 80.941406 137.457031 C 81.011719 137.320312 81.101562 137.203125 81.214844 137.101562 C 81.332031 137 81.460938 136.925781 81.605469 136.878906 C 81.75 136.832031 81.898438 136.8125 82.050781 136.824219 C 84.769531 137.015625 87.515625 137.078125 90.203125 137.015625 C 90.335938 137.011719 90.464844 137.03125 90.589844 137.070312 Z M 74.105469 136.023438 C 74.386719 136.117188 74.597656 136.292969 74.746094 136.546875 C 74.890625 136.804688 74.929688 137.078125 74.867188 137.367188 C 74.800781 137.65625 74.648438 137.882812 74.410156 138.054688 C 74.167969 138.226562 73.898438 138.292969 73.605469 138.257812 C 72.300781 138.09375 70.972656 137.917969 69.691406 137.746094 C 68.289062 137.5625 66.835938 137.371094 65.410156 137.191406 C 65.257812 137.171875 65.117188 137.125 64.984375 137.050781 C 64.851562 136.976562 64.738281 136.878906 64.644531 136.757812 C 64.550781 136.636719 64.484375 136.503906 64.445312 136.355469 C 64.40625 136.210938 64.394531 136.0625 64.414062 135.910156 C 64.429688 135.757812 64.476562 135.617188 64.554688 135.484375 C 64.628906 135.351562 64.726562 135.238281 64.847656 135.144531 C 64.96875 135.054688 65.101562 134.984375 65.246094 134.945312 C 65.394531 134.90625 65.542969 134.894531 65.695312 134.914062 C 67.128906 135.089844 68.585938 135.285156 69.992188 135.472656 C 71.273438 135.640625 72.59375 135.816406 73.894531 135.980469 C 73.96875 135.988281 74.039062 136.003906 74.109375 136.027344 Z M 57.6875 134.136719 C 57.964844 134.222656 58.175781 134.394531 58.324219 134.644531 C 58.472656 134.894531 58.515625 135.160156 58.460938 135.445312 C 58.40625 135.730469 58.265625 135.960938 58.035156 136.136719 C 57.804688 136.3125 57.542969 136.390625 57.253906 136.371094 C 54.546875 136.175781 51.835938 136.136719 49.125 136.246094 C 48.972656 136.253906 48.824219 136.230469 48.683594 136.179688 C 48.539062 136.128906 48.410156 136.050781 48.296875 135.949219 C 48.1875 135.84375 48.097656 135.726562 48.03125 135.585938 C 47.96875 135.449219 47.933594 135.304688 47.925781 135.152344 C 47.917969 135 47.941406 134.851562 47.992188 134.710938 C 48.042969 134.566406 48.121094 134.4375 48.222656 134.324219 C 48.328125 134.210938 48.445312 134.125 48.585938 134.058594 C 48.722656 133.996094 48.867188 133.960938 49.019531 133.953125 C 51.820312 133.835938 54.617188 133.878906 57.410156 134.082031 C 57.503906 134.085938 57.597656 134.105469 57.6875 134.136719 Z M 41.242188 135.101562 C 41.488281 135.179688 41.683594 135.324219 41.832031 135.539062 C 41.980469 135.75 42.046875 135.984375 42.035156 136.242188 C 42.023438 136.5 41.9375 136.730469 41.769531 136.929688 C 41.605469 137.128906 41.394531 137.253906 41.144531 137.3125 C 38.523438 137.898438 35.992188 138.753906 33.554688 139.875 C 33.414062 139.9375 33.269531 139.972656 33.117188 139.980469 C 32.964844 139.988281 32.816406 139.964844 32.671875 139.914062 C 32.53125 139.863281 32.402344 139.785156 32.289062 139.679688 C 32.175781 139.578125 32.089844 139.457031 32.023438 139.320312 C 31.960938 139.179688 31.925781 139.035156 31.917969 138.882812 C 31.910156 138.730469 31.933594 138.582031 31.988281 138.4375 C 32.039062 138.292969 32.117188 138.167969 32.222656 138.054688 C 32.324219 137.941406 32.445312 137.855469 32.585938 137.792969 C 35.171875 136.601562 37.855469 135.695312 40.632812 135.074219 C 40.839844 135.027344 41.039062 135.035156 41.238281 135.101562 Z M 26.464844 142.15625 C 26.890625 142.292969 27.148438 142.582031 27.234375 143.019531 C 27.324219 143.460938 27.199219 143.824219 26.859375 144.117188 C 24.839844 145.832031 23.171875 147.835938 21.851562 150.132812 C 21.777344 150.265625 21.679688 150.382812 21.558594 150.480469 C 21.4375 150.574219 21.304688 150.644531 21.15625 150.6875 C 21.007812 150.726562 20.855469 150.738281 20.703125 150.722656 C 20.550781 150.703125 20.40625 150.65625 20.273438 150.578125 C 20.140625 150.503906 20.027344 150.402344 19.933594 150.28125 C 19.839844 150.160156 19.769531 150.023438 19.730469 149.875 C 19.691406 149.726562 19.683594 149.574219 19.703125 149.421875 C 19.726562 149.269531 19.777344 149.128906 19.855469 148.996094 C 21.308594 146.46875 23.144531 144.261719 25.363281 142.371094 C 25.691406 142.09375 26.058594 142.023438 26.464844 142.15625 Z M 26.464844 142.15625 " fill-opacity="1" fill-rule="nonzero"/></g></g></g><g clip-path="url(#b9da80aa40)"><g clip-path="url(#c018d603d8)"><g clip-path="url(#f044aef873)"><path fill="#445" d="M 245.539062 13.796875 C 245.800781 13.878906 246.003906 14.035156 246.152344 14.265625 C 249.007812 18.683594 252.691406 22.242188 257.203125 24.941406 C 257.335938 25.019531 257.445312 25.117188 257.535156 25.242188 C 257.628906 25.363281 257.691406 25.496094 257.730469 25.644531 C 257.765625 25.792969 257.773438 25.941406 257.75 26.09375 C 257.730469 26.242188 257.679688 26.382812 257.601562 26.515625 C 257.523438 26.644531 257.425781 26.757812 257.300781 26.847656 C 257.179688 26.9375 257.042969 27.003906 256.898438 27.039062 C 256.75 27.078125 256.601562 27.085938 256.449219 27.0625 C 256.300781 27.042969 256.160156 26.992188 256.027344 26.914062 C 251.667969 24.304688 248.015625 20.925781 245.078125 16.78125 C 242.351562 19.953125 239.492188 23.054688 236.566406 26.027344 C 236.460938 26.136719 236.335938 26.21875 236.195312 26.277344 C 236.058594 26.335938 235.910156 26.363281 235.761719 26.363281 C 235.609375 26.367188 235.460938 26.335938 235.324219 26.28125 C 235.183594 26.222656 235.058594 26.140625 234.949219 26.035156 C 234.84375 25.929688 234.757812 25.804688 234.699219 25.667969 C 234.640625 25.527344 234.609375 25.382812 234.605469 25.230469 C 234.605469 25.078125 234.632812 24.933594 234.6875 24.792969 C 234.746094 24.652344 234.824219 24.527344 234.929688 24.417969 C 238.171875 21.121094 241.324219 17.667969 244.308594 14.144531 C 244.558594 13.851562 244.875 13.71875 245.261719 13.742188 C 245.355469 13.75 245.449219 13.765625 245.539062 13.796875 Z M 245.539062 13.796875 " fill-opacity="1" fill-rule="nonzero"/></g></g></g></svg>