<svg xmlns="http://www.w3.org/2000/svg" xmlns:xlink="http://www.w3.org/1999/xlink" width="600" zoomAndPan="magnify" viewBox="0 0 450 149.999998" height="200" preserveAspectRatio="xMidYMid meet" version="1.0"><defs><clipPath id="35c1d7c8cb"><path d="M 219 46 L 389 46 L 389 93 L 219 93 Z M 219 46 " clip-rule="nonzero"/></clipPath><clipPath id="997f3b56a3"><path d="M 297.632812 -42.167969 L 419.230469 43.070312 L 333.992188 164.671875 L 212.394531 79.433594 Z M 297.632812 -42.167969 " clip-rule="nonzero"/></clipPath><clipPath id="6b7eb03e4e"><path d="M 297.632812 -42.167969 L 419.230469 43.070312 L 333.992188 164.671875 L 212.394531 79.433594 Z M 297.632812 -42.167969 " clip-rule="nonzero"/></clipPath><clipPath id="e23a755ea1"><path d="M 297.632812 -42.167969 L 419.230469 43.070312 L 333.992188 164.671875 L 212.394531 79.433594 Z M 297.632812 -42.167969 " clip-rule="nonzero"/></clipPath><clipPath id="6a80d83872"><path d="M 292.339844 -21.699219 L 390.84375 47.351562 L 316.96875 152.734375 L 218.46875 83.6875 Z M 292.339844 -21.699219 " clip-rule="nonzero"/></clipPath><clipPath id="0440c613b0"><path d="M 380 41 L 396 41 L 396 52 L 380 52 Z M 380 41 " clip-rule="nonzero"/></clipPath><clipPath id="1a6c390514"><path d="M 297.632812 -42.167969 L 419.230469 43.070312 L 333.992188 164.671875 L 212.394531 79.433594 Z M 297.632812 -42.167969 " clip-rule="nonzero"/></clipPath><clipPath id="7c93a87c39"><path d="M 297.632812 -42.167969 L 419.230469 43.070312 L 333.992188 164.671875 L 212.394531 79.433594 Z M 297.632812 -42.167969 " clip-rule="nonzero"/></clipPath><clipPath id="c75f07234d"><path d="M 297.632812 -42.167969 L 419.230469 43.070312 L 333.992188 164.671875 L 212.394531 79.433594 Z M 297.632812 -42.167969 " clip-rule="nonzero"/></clipPath><clipPath id="828a704d58"><path d="M 385.152344 38.21875 L 398.117188 47.308594 L 392.289062 55.621094 L 379.328125 46.53125 Z M 385.152344 38.21875 " clip-rule="nonzero"/></clipPath><clipPath id="57e570d27b"><path d="M 29 72 L 142 72 L 142 137 L 29 137 Z M 29 72 " clip-rule="nonzero"/></clipPath><clipPath id="b015020382"><path d="M 57.433594 61.382812 L 141.675781 104.195312 L 106 174.402344 L 21.753906 131.585938 Z M 57.433594 61.382812 " clip-rule="nonzero"/></clipPath><clipPath id="fbe9c58b13"><path d="M 90.925781 -4.519531 L 227.320312 64.796875 L 158.003906 201.191406 L 21.605469 131.875 Z M 90.925781 -4.519531 " clip-rule="nonzero"/></clipPath><clipPath id="c8ff401224"><path d="M 90.925781 -4.519531 L 227.320312 64.796875 L 158.003906 201.191406 L 21.605469 131.875 Z M 90.925781 -4.519531 " clip-rule="nonzero"/></clipPath><clipPath id="046c22bf1d"><path d="M 88.496094 17.128906 L 198.984375 73.277344 L 138.910156 191.484375 L 28.421875 135.332031 Z M 88.496094 17.128906 " clip-rule="nonzero"/></clipPath><clipPath id="76dd430679"><path d="M 127 43 L 235 43 L 235 95 L 127 95 Z M 127 43 " clip-rule="nonzero"/></clipPath><clipPath id="ccf5b43616"><path d="M 142.855469 43.667969 L 234.453125 90.222656 L 210.667969 137.023438 L 119.070312 90.472656 Z M 142.855469 43.667969 " clip-rule="nonzero"/></clipPath><clipPath id="d03a3ba9ca"><path d="M 195.046875 -59.027344 L 344.148438 16.746094 L 268.371094 165.847656 L 119.273438 90.070312 Z M 195.046875 -59.027344 " clip-rule="nonzero"/></clipPath><clipPath id="64e703a309"><path d="M 195.046875 -59.027344 L 344.148438 16.746094 L 268.371094 165.847656 L 119.273438 90.070312 Z M 195.046875 -59.027344 " clip-rule="nonzero"/></clipPath><clipPath id="f2722d064f"><path d="M 192.390625 -35.363281 L 313.167969 26.015625 L 247.5 155.234375 L 126.722656 93.851562 Z M 192.390625 -35.363281 " clip-rule="nonzero"/></clipPath></defs><g clip-path="url(#35c1d7c8cb)"><g clip-path="url(#997f3b56a3)"><g clip-path="url(#6b7eb03e4e)"><g clip-path="url(#e23a755ea1)"><g clip-path="url(#6a80d83872)"><path fill="#444455" d="M 388.324219 46.414062 C 388.46875 46.511719 388.566406 46.648438 388.617188 46.816406 C 388.667969 46.984375 388.667969 47.148438 388.601562 47.3125 C 387.9375 49.078125 387.121094 50.773438 386.15625 52.398438 C 386.050781 52.582031 385.894531 52.703125 385.6875 52.757812 C 385.480469 52.816406 385.285156 52.785156 385.101562 52.675781 C 384.917969 52.570312 384.796875 52.410156 384.746094 52.203125 C 384.695312 51.996094 384.726562 51.800781 384.839844 51.617188 C 385.753906 50.066406 386.53125 48.453125 387.167969 46.773438 C 387.242188 46.574219 387.378906 46.433594 387.574219 46.34375 C 387.761719 46.253906 387.957031 46.25 388.15625 46.324219 C 388.21875 46.347656 388.273438 46.375 388.324219 46.414062 Z M 382.746094 55.867188 C 382.765625 55.882812 382.785156 55.894531 382.804688 55.90625 C 382.964844 56.042969 383.054688 56.21875 383.074219 56.425781 C 383.089844 56.636719 383.03125 56.824219 382.898438 56.988281 C 381.683594 58.429688 380.359375 59.761719 378.933594 60.992188 C 378.769531 61.128906 378.585938 61.191406 378.375 61.171875 C 378.164062 61.15625 377.988281 61.070312 377.851562 60.910156 C 377.714844 60.75 377.652344 60.5625 377.667969 60.351562 C 377.683594 60.140625 377.773438 59.964844 377.933594 59.828125 C 379.300781 58.65625 380.566406 57.382812 381.726562 56.007812 C 381.855469 55.855469 382.015625 55.765625 382.214844 55.738281 C 382.410156 55.710938 382.589844 55.757812 382.75 55.871094 Z M 374.414062 63.023438 C 374.5 63.085938 374.574219 63.164062 374.628906 63.253906 C 374.738281 63.433594 374.769531 63.625 374.71875 63.832031 C 374.667969 64.039062 374.554688 64.195312 374.371094 64.304688 C 372.761719 65.285156 371.078125 66.121094 369.324219 66.816406 C 369.125 66.890625 368.929688 66.890625 368.734375 66.808594 C 368.539062 66.722656 368.40625 66.582031 368.328125 66.386719 C 368.25 66.1875 368.253906 65.992188 368.339844 65.796875 C 368.421875 65.605469 368.566406 65.46875 368.761719 65.390625 C 370.433594 64.730469 372.039062 63.933594 373.578125 62.992188 C 373.863281 62.820312 374.144531 62.832031 374.417969 63.027344 Z M 364.199219 67.027344 C 364.476562 67.21875 364.578125 67.484375 364.507812 67.816406 C 364.4375 68.144531 364.234375 68.34375 363.90625 68.410156 C 363.382812 68.507812 362.863281 68.597656 362.339844 68.671875 C 361.019531 68.855469 359.699219 68.960938 358.339844 69.066406 C 358.128906 69.085938 357.9375 69.027344 357.769531 68.886719 C 357.609375 68.75 357.519531 68.574219 357.5 68.359375 C 357.484375 68.144531 357.550781 67.957031 357.691406 67.792969 C 357.832031 67.632812 358.011719 67.546875 358.226562 67.535156 C 359.554688 67.4375 360.855469 67.332031 362.128906 67.152344 C 362.621094 67.082031 363.121094 66.996094 363.609375 66.902344 C 363.824219 66.859375 364.023438 66.902344 364.203125 67.03125 Z M 346.199219 61.472656 C 346.335938 61.570312 346.472656 61.667969 346.605469 61.765625 C 346.777344 61.886719 346.878906 62.054688 346.914062 62.265625 C 346.945312 62.476562 346.902344 62.667969 346.777344 62.835938 C 346.652344 63.007812 346.484375 63.113281 346.277344 63.144531 C 346.066406 63.175781 345.878906 63.128906 345.707031 63.003906 C 344.253906 61.953125 342.714844 61.039062 341.089844 60.269531 C 340.898438 60.179688 340.765625 60.03125 340.699219 59.832031 C 340.625 59.636719 340.632812 59.4375 340.726562 59.25 C 340.816406 59.058594 340.960938 58.925781 341.160156 58.855469 C 341.359375 58.78125 341.554688 58.792969 341.746094 58.882812 C 343.308594 59.621094 344.789062 60.484375 346.199219 61.476562 Z M 350.742188 65.382812 C 350.785156 65.414062 350.820312 65.449219 350.855469 65.480469 C 351.558594 66.21875 352.222656 66.992188 352.847656 67.789062 C 352.949219 67.921875 353.050781 68.054688 353.152344 68.191406 C 353.378906 68.308594 353.511719 68.488281 353.554688 68.742188 C 353.84375 69.140625 354.109375 69.542969 354.355469 69.933594 C 354.464844 70.117188 354.496094 70.308594 354.449219 70.515625 C 354.398438 70.722656 354.289062 70.878906 354.105469 70.988281 C 353.925781 71.105469 353.730469 71.132812 353.527344 71.089844 C 353.320312 71.039062 353.160156 70.921875 353.050781 70.746094 C 352.84375 70.410156 352.617188 70.070312 352.375 69.726562 C 351.574219 69.875 350.796875 70.082031 350.019531 70.335938 C 349.304688 70.574219 348.621094 70.878906 347.964844 71.25 C 347.78125 71.359375 347.582031 71.382812 347.378906 71.324219 C 347.171875 71.269531 347.015625 71.148438 346.914062 70.960938 C 346.808594 70.777344 346.785156 70.582031 346.84375 70.375 C 346.902344 70.171875 347.023438 70.015625 347.210938 69.917969 C 347.957031 69.496094 348.730469 69.152344 349.539062 68.882812 C 350.113281 68.6875 350.71875 68.519531 351.355469 68.378906 C 350.847656 67.742188 350.304688 67.125 349.746094 66.539062 C 349.609375 66.398438 349.539062 66.226562 349.535156 66.027344 C 349.527344 65.832031 349.59375 65.65625 349.71875 65.511719 C 349.847656 65.359375 350.007812 65.273438 350.207031 65.246094 C 350.402344 65.222656 350.578125 65.269531 350.742188 65.382812 Z M 336.679688 57.082031 C 336.828125 57.1875 336.925781 57.332031 336.976562 57.507812 C 337.027344 57.6875 337.011719 57.863281 336.933594 58.03125 C 336.855469 58.199219 336.734375 58.320312 336.570312 58.398438 C 336.402344 58.480469 336.230469 58.496094 336.050781 58.453125 C 335.414062 58.292969 334.769531 58.152344 334.128906 58.042969 C 333.015625 57.851562 331.886719 57.734375 330.757812 57.6875 C 330.550781 57.675781 330.378906 57.589844 330.242188 57.433594 C 330.105469 57.28125 330.039062 57.105469 330.046875 56.898438 C 330.054688 56.691406 330.136719 56.515625 330.285156 56.371094 C 330.4375 56.230469 330.613281 56.160156 330.820312 56.160156 C 332.015625 56.207031 333.207031 56.332031 334.390625 56.535156 C 335.066406 56.65625 335.75 56.800781 336.425781 56.96875 C 336.515625 56.992188 336.605469 57.03125 336.679688 57.082031 Z M 356.175781 74.800781 C 356.351562 74.925781 356.457031 75.09375 356.496094 75.304688 C 356.5 75.351562 356.503906 75.390625 356.511719 75.4375 C 356.824219 77.421875 356.554688 79.449219 355.757812 81.148438 C 355.667969 81.339844 355.523438 81.472656 355.328125 81.542969 C 355.128906 81.613281 354.929688 81.601562 354.742188 81.515625 C 354.550781 81.425781 354.417969 81.28125 354.34375 81.085938 C 354.273438 80.882812 354.28125 80.691406 354.371094 80.496094 C 355.039062 79.070312 355.261719 77.363281 355 75.675781 L 354.980469 75.554688 C 354.921875 75.222656 355.039062 74.960938 355.324219 74.78125 C 355.613281 74.601562 355.898438 74.605469 356.175781 74.800781 Z M 325.734375 56.640625 C 326.015625 56.835938 326.117188 57.101562 326.039062 57.441406 C 325.960938 57.773438 325.757812 57.96875 325.417969 58.023438 C 323.652344 58.316406 321.929688 58.789062 320.261719 59.4375 C 320.066406 59.511719 319.871094 59.503906 319.683594 59.417969 C 319.496094 59.332031 319.363281 59.191406 319.285156 58.996094 C 319.210938 58.800781 319.210938 58.609375 319.296875 58.417969 C 319.378906 58.226562 319.515625 58.089844 319.707031 58.011719 C 321.472656 57.324219 323.296875 56.824219 325.171875 56.515625 C 325.375 56.480469 325.566406 56.523438 325.738281 56.644531 Z M 344.011719 73.65625 C 344.179688 73.773438 344.285156 73.933594 344.324219 74.132812 C 344.363281 74.332031 344.328125 74.519531 344.21875 74.691406 C 343.421875 75.957031 343.074219 77.277344 343.1875 78.613281 C 343.207031 78.871094 343.246094 79.132812 343.304688 79.386719 C 343.351562 79.59375 343.324219 79.785156 343.207031 79.964844 C 343.09375 80.144531 342.9375 80.253906 342.730469 80.304688 C 342.523438 80.351562 342.332031 80.316406 342.152344 80.207031 C 341.972656 80.09375 341.859375 79.9375 341.8125 79.726562 C 341.738281 79.402344 341.691406 79.074219 341.664062 78.742188 C 341.527344 77.089844 341.964844 75.40625 342.925781 73.875 C 343.042969 73.695312 343.203125 73.582031 343.40625 73.535156 C 343.613281 73.488281 343.808594 73.523438 343.980469 73.636719 Z M 351.515625 83.765625 C 351.773438 83.953125 351.878906 84.195312 351.832031 84.507812 C 351.785156 84.820312 351.613281 85.023438 351.3125 85.121094 C 349.640625 85.664062 347.851562 85.613281 346.28125 84.988281 C 345.964844 84.859375 345.660156 84.710938 345.363281 84.539062 C 345.179688 84.429688 345.0625 84.277344 345.007812 84.074219 C 344.949219 83.867188 344.976562 83.675781 345.085938 83.488281 C 345.191406 83.308594 345.34375 83.191406 345.550781 83.136719 C 345.757812 83.082031 345.945312 83.109375 346.132812 83.214844 C 346.363281 83.347656 346.601562 83.46875 346.847656 83.566406 C 348.070312 84.054688 349.523438 84.089844 350.839844 83.667969 C 351.085938 83.585938 351.308594 83.621094 351.515625 83.765625 Z M 315.542969 60.644531 C 315.648438 60.714844 315.730469 60.808594 315.785156 60.917969 C 315.84375 61.03125 315.871094 61.152344 315.871094 61.28125 C 315.871094 61.40625 315.839844 61.519531 315.78125 61.632812 C 315.722656 61.746094 315.636719 61.835938 315.53125 61.90625 C 315.132812 62.171875 314.734375 62.457031 314.355469 62.75 C 313.253906 63.589844 312.234375 64.527344 311.382812 65.335938 C 311.230469 65.476562 311.042969 65.546875 310.835938 65.542969 C 310.625 65.535156 310.441406 65.453125 310.300781 65.300781 C 310.152344 65.148438 310.085938 64.960938 310.089844 64.75 C 310.097656 64.542969 310.179688 64.363281 310.332031 64.21875 C 311.210938 63.386719 312.269531 62.417969 313.425781 61.53125 C 313.832031 61.222656 314.25 60.917969 314.679688 60.632812 C 314.96875 60.4375 315.257812 60.4375 315.546875 60.640625 Z M 303.582031 61.847656 C 304.144531 62.246094 304.671875 62.6875 305.152344 63.179688 C 305.300781 63.328125 305.382812 63.511719 305.378906 63.722656 C 305.378906 63.941406 305.304688 64.125 305.152344 64.273438 C 304.996094 64.425781 304.8125 64.492188 304.597656 64.488281 C 304.382812 64.484375 304.203125 64.40625 304.054688 64.25 C 303.640625 63.828125 303.191406 63.445312 302.703125 63.101562 C 301.785156 62.457031 300.78125 61.984375 299.699219 61.679688 C 299.496094 61.625 299.34375 61.503906 299.242188 61.320312 C 299.136719 61.136719 299.113281 60.941406 299.167969 60.738281 C 299.222656 60.53125 299.34375 60.382812 299.53125 60.277344 C 299.714844 60.171875 299.910156 60.148438 300.109375 60.207031 C 301.363281 60.554688 302.519531 61.101562 303.582031 61.847656 Z M 307.707031 67.847656 C 307.859375 67.957031 307.957031 68.097656 308.007812 68.273438 C 308.503906 70.085938 308.632812 72.078125 308.363281 74.046875 C 308.335938 74.261719 308.242188 74.429688 308.074219 74.5625 C 307.90625 74.695312 307.714844 74.746094 307.5 74.71875 C 307.289062 74.6875 307.121094 74.585938 306.988281 74.417969 C 306.863281 74.246094 306.8125 74.054688 306.847656 73.84375 C 307.039062 72.410156 307.007812 70.984375 306.738281 69.5625 C 306.511719 69.742188 306.292969 69.914062 306.074219 70.078125 C 304.957031 70.917969 303.761719 71.617188 302.480469 72.175781 C 302.285156 72.261719 302.089844 72.261719 301.894531 72.1875 C 301.699219 72.105469 301.558594 71.96875 301.472656 71.777344 C 301.390625 71.582031 301.386719 71.386719 301.46875 71.191406 C 301.542969 70.996094 301.679688 70.855469 301.875 70.769531 C 303.042969 70.257812 304.140625 69.617188 305.160156 68.847656 C 305.535156 68.566406 305.914062 68.265625 306.316406 67.925781 C 306.574219 67.890625 306.824219 67.824219 307.066406 67.738281 C 307.300781 67.675781 307.511719 67.710938 307.707031 67.847656 Z M 294.921875 60.445312 C 295.175781 60.621094 295.277344 60.867188 295.238281 61.171875 C 295.199219 61.480469 295.03125 61.6875 294.742188 61.792969 C 294.636719 61.832031 294.527344 61.871094 294.425781 61.914062 C 293.367188 62.351562 292.527344 62.988281 291.992188 63.757812 C 291.957031 63.808594 291.925781 63.851562 291.894531 63.902344 C 291.6875 64.230469 291.53125 64.585938 291.433594 64.964844 C 291.382812 65.171875 291.265625 65.324219 291.082031 65.433594 C 290.902344 65.542969 290.707031 65.566406 290.503906 65.515625 C 290.296875 65.464844 290.140625 65.347656 290.03125 65.164062 C 289.929688 64.984375 289.898438 64.789062 289.953125 64.585938 C 290.089844 64.046875 290.304688 63.546875 290.601562 63.078125 C 290.644531 63.011719 290.691406 62.945312 290.738281 62.875 C 291.445312 61.871094 292.515625 61.050781 293.835938 60.496094 C 293.964844 60.445312 294.089844 60.398438 294.222656 60.351562 C 294.46875 60.261719 294.703125 60.292969 294.921875 60.445312 Z M 297.242188 71.800781 C 297.390625 71.902344 297.484375 72.035156 297.539062 72.203125 C 297.585938 72.367188 297.585938 72.53125 297.523438 72.695312 C 297.464844 72.863281 297.355469 72.984375 297.210938 73.082031 C 297.0625 73.171875 296.902344 73.210938 296.726562 73.191406 C 296.167969 73.132812 295.617188 73.027344 295.078125 72.867188 C 294.355469 72.648438 293.683594 72.320312 293.066406 71.878906 C 292.464844 71.460938 291.933594 70.964844 291.472656 70.398438 C 291.34375 70.234375 291.285156 70.046875 291.304688 69.835938 C 291.328125 69.628906 291.421875 69.453125 291.585938 69.324219 C 291.75 69.1875 291.933594 69.132812 292.148438 69.152344 C 292.355469 69.171875 292.527344 69.265625 292.660156 69.429688 C 293.035156 69.890625 293.460938 70.289062 293.945312 70.625 C 294.425781 70.96875 294.949219 71.226562 295.519531 71.398438 C 295.964844 71.53125 296.421875 71.621094 296.882812 71.667969 C 297.015625 71.683594 297.132812 71.730469 297.242188 71.804688 Z M 306.320312 78.527344 C 306.476562 78.636719 306.582031 78.785156 306.625 78.972656 C 306.667969 79.164062 306.648438 79.34375 306.554688 79.515625 C 306.207031 80.152344 305.828125 80.769531 305.40625 81.363281 C 304.726562 82.335938 303.964844 83.242188 303.125 84.085938 C 302.976562 84.242188 302.796875 84.324219 302.585938 84.324219 C 302.371094 84.328125 302.183594 84.257812 302.03125 84.101562 C 301.878906 83.953125 301.804688 83.769531 301.800781 83.554688 C 301.804688 83.339844 301.882812 83.15625 302.039062 83.007812 C 302.8125 82.226562 303.515625 81.382812 304.152344 80.484375 C 304.539062 79.9375 304.886719 79.371094 305.207031 78.785156 C 305.304688 78.597656 305.457031 78.476562 305.660156 78.414062 C 305.863281 78.355469 306.058594 78.371094 306.246094 78.476562 C 306.269531 78.492188 306.296875 78.503906 306.320312 78.527344 Z M 298.726562 86.367188 C 298.835938 86.441406 298.914062 86.535156 298.972656 86.648438 C 299.03125 86.761719 299.058594 86.882812 299.054688 87.011719 C 299.050781 87.136719 299.019531 87.257812 298.957031 87.371094 C 298.894531 87.480469 298.808594 87.570312 298.703125 87.640625 C 297.109375 88.65625 295.433594 89.515625 293.679688 90.222656 C 293.484375 90.304688 293.289062 90.300781 293.09375 90.21875 C 292.898438 90.132812 292.757812 89.996094 292.679688 89.796875 C 292.601562 89.601562 292.601562 89.410156 292.683594 89.210938 C 292.769531 89.019531 292.90625 88.878906 293.105469 88.800781 C 294.769531 88.132812 296.359375 87.3125 297.875 86.351562 C 298.164062 86.164062 298.449219 86.167969 298.730469 86.367188 Z M 288.566406 90.492188 C 288.839844 90.6875 288.941406 90.945312 288.878906 91.273438 C 288.808594 91.601562 288.613281 91.796875 288.289062 91.871094 C 286.449219 92.265625 284.59375 92.519531 282.71875 92.644531 C 282.507812 92.65625 282.320312 92.59375 282.160156 92.453125 C 282 92.3125 281.914062 92.136719 281.902344 91.929688 C 281.886719 91.714844 281.949219 91.527344 282.089844 91.371094 C 282.230469 91.210938 282.40625 91.125 282.617188 91.113281 C 284.417969 90.996094 286.199219 90.75 287.964844 90.371094 C 288.183594 90.324219 288.386719 90.367188 288.570312 90.496094 Z M 277.59375 91.246094 C 277.734375 91.34375 277.832031 91.476562 277.882812 91.636719 C 277.9375 91.804688 277.933594 91.960938 277.878906 92.128906 C 277.824219 92.289062 277.71875 92.417969 277.578125 92.511719 C 277.433594 92.609375 277.277344 92.648438 277.105469 92.636719 C 275.242188 92.515625 273.390625 92.292969 271.546875 91.964844 C 271.339844 91.933594 271.171875 91.828125 271.046875 91.65625 C 270.929688 91.480469 270.882812 91.289062 270.921875 91.078125 C 270.953125 90.871094 271.0625 90.707031 271.238281 90.582031 C 271.410156 90.464844 271.605469 90.421875 271.816406 90.457031 C 273.597656 90.777344 275.394531 90.992188 277.203125 91.109375 C 277.347656 91.117188 277.476562 91.164062 277.597656 91.25 Z M 266.746094 89.351562 C 266.898438 89.460938 266.996094 89.605469 267.046875 89.785156 C 267.09375 89.964844 267.078125 90.140625 267 90.308594 C 266.917969 90.476562 266.792969 90.601562 266.621094 90.675781 C 266.453125 90.757812 266.277344 90.769531 266.097656 90.71875 C 264.324219 90.21875 262.542969 89.621094 260.796875 88.949219 C 260.597656 88.875 260.457031 88.738281 260.371094 88.542969 C 260.289062 88.355469 260.285156 88.15625 260.359375 87.957031 C 260.433594 87.761719 260.570312 87.621094 260.765625 87.535156 C 260.957031 87.449219 261.152344 87.445312 261.351562 87.519531 C 263.046875 88.175781 264.785156 88.757812 266.511719 89.246094 C 266.597656 89.269531 266.679688 89.304688 266.746094 89.351562 Z M 256.445312 85.449219 C 256.601562 85.566406 256.703125 85.71875 256.746094 85.910156 C 256.789062 86.105469 256.761719 86.28125 256.664062 86.457031 C 256.566406 86.628906 256.425781 86.746094 256.238281 86.804688 C 256.050781 86.867188 255.867188 86.855469 255.6875 86.773438 C 254.882812 86.417969 254.074219 86.042969 253.292969 85.683594 C 252.429688 85.285156 251.542969 84.882812 250.667969 84.484375 C 250.472656 84.402344 250.34375 84.257812 250.265625 84.0625 C 250.191406 83.863281 250.199219 83.667969 250.28125 83.472656 C 250.371094 83.28125 250.511719 83.148438 250.710938 83.070312 C 250.910156 82.996094 251.105469 83.003906 251.296875 83.089844 C 252.179688 83.484375 253.066406 83.894531 253.925781 84.292969 C 254.710938 84.652344 255.519531 85.019531 256.316406 85.378906 C 256.359375 85.402344 256.40625 85.425781 256.445312 85.453125 Z M 246.347656 81.023438 C 246.507812 81.132812 246.605469 81.28125 246.652344 81.472656 C 246.695312 81.660156 246.671875 81.839844 246.582031 82.007812 C 246.492188 82.179688 246.355469 82.296875 246.171875 82.363281 C 245.992188 82.433594 245.8125 82.433594 245.632812 82.363281 C 243.941406 81.707031 242.222656 81.148438 240.472656 80.6875 C 240.265625 80.632812 240.109375 80.519531 240 80.332031 C 239.894531 80.148438 239.867188 79.957031 239.921875 79.753906 C 239.972656 79.546875 240.089844 79.390625 240.273438 79.285156 C 240.457031 79.179688 240.648438 79.148438 240.855469 79.203125 C 242.664062 79.675781 244.4375 80.253906 246.179688 80.933594 C 246.238281 80.957031 246.292969 80.984375 246.347656 81.023438 Z M 235.671875 78.40625 C 235.808594 78.503906 235.90625 78.636719 235.960938 78.804688 C 236.011719 78.96875 236.007812 79.132812 235.953125 79.292969 C 235.894531 79.457031 235.792969 79.582031 235.644531 79.675781 C 235.503906 79.773438 235.34375 79.8125 235.171875 79.796875 C 233.386719 79.660156 231.605469 79.707031 229.828125 79.941406 C 229.621094 79.972656 229.429688 79.921875 229.261719 79.796875 C 229.09375 79.667969 228.992188 79.5 228.960938 79.285156 C 228.9375 79.074219 228.984375 78.886719 229.113281 78.71875 C 229.242188 78.550781 229.410156 78.449219 229.621094 78.421875 C 231.503906 78.175781 233.390625 78.121094 235.289062 78.273438 C 235.425781 78.285156 235.554688 78.324219 235.667969 78.40625 Z M 224.863281 80.003906 C 225.109375 80.175781 225.214844 80.410156 225.1875 80.707031 C 225.152344 81.003906 225.003906 81.210938 224.730469 81.332031 C 223.105469 82.03125 221.648438 82.976562 220.355469 84.183594 C 220.199219 84.332031 220.015625 84.402344 219.800781 84.398438 C 219.585938 84.394531 219.40625 84.316406 219.261719 84.15625 C 219.113281 84 219.042969 83.816406 219.050781 83.601562 C 219.0625 83.390625 219.144531 83.210938 219.304688 83.066406 C 220.726562 81.738281 222.332031 80.695312 224.117188 79.925781 C 224.382812 79.8125 224.628906 79.839844 224.863281 80.003906 Z M 224.863281 80.003906 " fill-opacity="1" fill-rule="nonzero"/></g></g></g></g></g><g clip-path="url(#0440c613b0)"><g clip-path="url(#1a6c390514)"><g clip-path="url(#7c93a87c39)"><g clip-path="url(#c75f07234d)"><g clip-path="url(#828a704d58)"><path fill="#444455" d="M 389.757812 41.1875 C 389.90625 41.289062 390.003906 41.433594 390.050781 41.605469 C 391.003906 44.984375 392.65625 47.976562 395.003906 50.585938 C 395.144531 50.738281 395.210938 50.929688 395.199219 51.136719 C 395.191406 51.347656 395.105469 51.523438 394.949219 51.664062 C 394.792969 51.808594 394.609375 51.875 394.394531 51.863281 C 394.183594 51.851562 394.007812 51.765625 393.867188 51.609375 C 391.597656 49.089844 389.9375 46.21875 388.875 43 C 386.511719 44.484375 384.082031 45.90625 381.632812 47.222656 C 381.445312 47.324219 381.253906 47.339844 381.050781 47.277344 C 380.851562 47.21875 380.699219 47.097656 380.601562 46.910156 C 380.5 46.726562 380.476562 46.53125 380.539062 46.328125 C 380.597656 46.128906 380.71875 45.980469 380.90625 45.878906 C 383.617188 44.410156 386.308594 42.832031 388.902344 41.171875 C 389.121094 41.027344 389.347656 41.007812 389.589844 41.097656 C 389.648438 41.121094 389.707031 41.152344 389.757812 41.1875 Z M 389.757812 41.1875 " fill-opacity="1" fill-rule="nonzero"/></g></g></g></g></g><g clip-path="url(#57e570d27b)"><g clip-path="url(#b015020382)"><g clip-path="url(#fbe9c58b13)"><g clip-path="url(#c8ff401224)"><g clip-path="url(#046c22bf1d)"><path fill="#444455" d="M 196.28125 72.6875 C 196.441406 72.769531 196.5625 72.890625 196.636719 73.054688 C 196.710938 73.21875 196.734375 73.386719 196.695312 73.5625 C 196.269531 75.460938 195.683594 77.308594 194.9375 79.105469 C 194.855469 79.308594 194.710938 79.457031 194.507812 79.539062 C 194.308594 79.628906 194.101562 79.628906 193.898438 79.542969 C 193.695312 79.460938 193.550781 79.316406 193.46875 79.109375 C 193.386719 78.90625 193.386719 78.703125 193.480469 78.5 C 194.1875 76.785156 194.746094 75.027344 195.152344 73.222656 C 195.199219 73.007812 195.316406 72.84375 195.5 72.722656 C 195.683594 72.605469 195.882812 72.574219 196.097656 72.621094 C 196.160156 72.632812 196.21875 72.65625 196.28125 72.6875 Z M 191.960938 83.140625 C 191.980469 83.152344 192.003906 83.160156 192.023438 83.171875 C 192.207031 83.289062 192.324219 83.453125 192.375 83.664062 C 192.421875 83.875 192.386719 84.078125 192.277344 84.261719 C 191.246094 85.90625 190.089844 87.460938 188.8125 88.917969 C 188.667969 89.082031 188.488281 89.171875 188.273438 89.183594 C 188.054688 89.199219 187.863281 89.136719 187.699219 88.992188 C 187.535156 88.851562 187.445312 88.667969 187.429688 88.449219 C 187.414062 88.230469 187.480469 88.039062 187.625 87.878906 C 188.847656 86.484375 189.953125 85.003906 190.9375 83.429688 C 191.046875 83.257812 191.199219 83.140625 191.398438 83.085938 C 191.59375 83.027344 191.78125 83.050781 191.964844 83.140625 Z M 184.5 91.648438 C 184.59375 91.695312 184.679688 91.765625 184.75 91.851562 C 184.886719 92.019531 184.945312 92.210938 184.925781 92.425781 C 184.90625 92.644531 184.8125 92.820312 184.640625 92.960938 C 183.140625 94.191406 181.542969 95.289062 179.855469 96.253906 C 179.664062 96.359375 179.464844 96.386719 179.253906 96.328125 C 179.042969 96.273438 178.886719 96.148438 178.777344 95.957031 C 178.667969 95.769531 178.644531 95.570312 178.703125 95.355469 C 178.761719 95.148438 178.886719 94.988281 179.074219 94.878906 C 180.683594 93.964844 182.207031 92.917969 183.640625 91.738281 C 183.90625 91.519531 184.195312 91.488281 184.503906 91.648438 Z M 174.660156 97.210938 C 174.96875 97.371094 175.113281 97.621094 175.085938 97.96875 C 175.0625 98.316406 174.886719 98.546875 174.558594 98.664062 C 174.042969 98.839844 173.523438 99.007812 173 99.15625 C 171.679688 99.539062 170.347656 99.839844 168.980469 100.140625 C 168.765625 100.191406 168.5625 100.160156 168.371094 100.042969 C 168.183594 99.925781 168.070312 99.757812 168.019531 99.539062 C 167.972656 99.324219 168.011719 99.125 168.132812 98.9375 C 168.253906 98.753906 168.421875 98.636719 168.640625 98.597656 C 169.980469 98.300781 171.292969 98.007812 172.5625 97.640625 C 173.058594 97.496094 173.554688 97.339844 174.039062 97.171875 C 174.253906 97.09375 174.460938 97.109375 174.664062 97.214844 Z M 155.492188 94.15625 C 155.648438 94.238281 155.800781 94.3125 155.953125 94.394531 C 156.140625 94.496094 156.273438 94.652344 156.335938 94.859375 C 156.398438 95.070312 156.382812 95.269531 156.28125 95.460938 C 156.179688 95.65625 156.023438 95.785156 155.816406 95.851562 C 155.605469 95.914062 155.40625 95.890625 155.210938 95.789062 C 153.574219 94.925781 151.875 94.21875 150.109375 93.667969 C 149.898438 93.605469 149.742188 93.476562 149.644531 93.28125 C 149.539062 93.089844 149.519531 92.890625 149.585938 92.679688 C 149.652344 92.472656 149.78125 92.320312 149.976562 92.214844 C 150.167969 92.113281 150.367188 92.09375 150.574219 92.160156 C 152.273438 92.6875 153.910156 93.355469 155.496094 94.160156 Z M 160.691406 97.484375 C 160.742188 97.507812 160.785156 97.539062 160.824219 97.570312 C 161.644531 98.21875 162.4375 98.914062 163.1875 99.632812 C 163.316406 99.753906 163.4375 99.875 163.558594 100 C 163.808594 100.085938 163.96875 100.253906 164.050781 100.503906 C 164.402344 100.871094 164.730469 101.242188 165.039062 101.605469 C 165.175781 101.773438 165.234375 101.964844 165.21875 102.183594 C 165.195312 102.402344 165.105469 102.578125 164.9375 102.71875 C 164.773438 102.859375 164.578125 102.917969 164.363281 102.902344 C 164.144531 102.882812 163.964844 102.785156 163.824219 102.621094 C 163.566406 102.3125 163.285156 101.992188 162.992188 101.679688 C 162.195312 101.949219 161.429688 102.269531 160.675781 102.644531 C 159.980469 102.992188 159.324219 103.398438 158.710938 103.875 C 158.539062 104.011719 158.339844 104.066406 158.121094 104.035156 C 157.902344 104.007812 157.726562 103.90625 157.597656 103.734375 C 157.464844 103.558594 157.410156 103.359375 157.441406 103.144531 C 157.46875 102.925781 157.574219 102.75 157.75 102.621094 C 158.449219 102.085938 159.1875 101.621094 159.972656 101.230469 C 160.53125 100.949219 161.125 100.6875 161.753906 100.449219 C 161.144531 99.875 160.503906 99.328125 159.84375 98.808594 C 159.683594 98.683594 159.589844 98.519531 159.558594 98.320312 C 159.519531 98.117188 159.5625 97.933594 159.667969 97.765625 C 159.777344 97.59375 159.929688 97.480469 160.128906 97.425781 C 160.324219 97.375 160.511719 97.390625 160.691406 97.484375 Z M 145.144531 91.058594 C 145.3125 91.144531 145.433594 91.277344 145.511719 91.449219 C 145.585938 91.625 145.597656 91.804688 145.542969 91.988281 C 145.488281 92.171875 145.378906 92.3125 145.226562 92.417969 C 145.066406 92.523438 144.894531 92.566406 144.703125 92.550781 C 144.03125 92.476562 143.351562 92.425781 142.683594 92.40625 C 141.519531 92.375 140.351562 92.417969 139.195312 92.535156 C 138.980469 92.550781 138.792969 92.488281 138.628906 92.351562 C 138.46875 92.214844 138.375 92.042969 138.355469 91.832031 C 138.332031 91.617188 138.390625 91.425781 138.519531 91.261719 C 138.652344 91.09375 138.824219 90.996094 139.035156 90.964844 C 140.261719 90.839844 141.492188 90.796875 142.730469 90.832031 C 143.4375 90.855469 144.15625 90.902344 144.867188 90.980469 C 144.964844 90.988281 145.0625 91.015625 145.144531 91.058594 Z M 167.601562 106.304688 C 167.800781 106.40625 167.929688 106.5625 168 106.769531 C 168.011719 106.816406 168.023438 106.859375 168.039062 106.90625 C 168.640625 108.886719 168.660156 110.992188 168.097656 112.839844 C 168.03125 113.050781 167.902344 113.203125 167.710938 113.308594 C 167.519531 113.40625 167.316406 113.425781 167.113281 113.363281 C 166.902344 113.296875 166.746094 113.167969 166.644531 112.980469 C 166.542969 112.785156 166.523438 112.585938 166.585938 112.375 C 167.0625 110.824219 167.042969 109.050781 166.527344 107.371094 L 166.492188 107.246094 C 166.382812 106.914062 166.464844 106.632812 166.730469 106.410156 C 167 106.183594 167.289062 106.148438 167.601562 106.304688 Z M 133.917969 92.195312 C 134.230469 92.355469 134.375 92.609375 134.34375 92.964844 C 134.3125 93.316406 134.132812 93.546875 133.792969 93.652344 C 132.039062 94.207031 130.347656 94.933594 128.738281 95.84375 C 128.550781 95.941406 128.351562 95.964844 128.148438 95.90625 C 127.941406 95.84375 127.785156 95.71875 127.679688 95.53125 C 127.574219 95.34375 127.550781 95.148438 127.605469 94.941406 C 127.664062 94.734375 127.785156 94.574219 127.96875 94.46875 C 129.671875 93.507812 131.457031 92.738281 133.324219 92.148438 C 133.527344 92.082031 133.726562 92.097656 133.921875 92.195312 Z M 155.027344 106.898438 C 155.214844 106.996094 155.347656 107.144531 155.414062 107.34375 C 155.484375 107.539062 155.472656 107.734375 155.390625 107.925781 C 154.757812 109.335938 154.59375 110.730469 154.902344 112.074219 C 154.960938 112.339844 155.039062 112.597656 155.136719 112.847656 C 155.214844 113.050781 155.214844 113.253906 155.121094 113.449219 C 155.03125 113.652344 154.886719 113.789062 154.683594 113.867188 C 154.480469 113.949219 154.277344 113.9375 154.082031 113.851562 C 153.878906 113.765625 153.746094 113.617188 153.664062 113.414062 C 153.542969 113.089844 153.445312 112.765625 153.371094 112.425781 C 152.992188 110.765625 153.195312 108.980469 153.953125 107.28125 C 154.046875 107.082031 154.191406 106.945312 154.390625 106.863281 C 154.597656 106.789062 154.800781 106.792969 154.996094 106.882812 Z M 164.148438 116.125 C 164.4375 116.277344 164.582031 116.511719 164.578125 116.835938 C 164.574219 117.160156 164.429688 117.394531 164.136719 117.539062 C 162.507812 118.332031 160.675781 118.539062 158.988281 118.128906 C 158.644531 118.042969 158.3125 117.9375 157.984375 117.808594 C 157.78125 117.722656 157.636719 117.582031 157.550781 117.382812 C 157.464844 117.183594 157.464844 116.980469 157.546875 116.777344 C 157.628906 116.578125 157.769531 116.433594 157.972656 116.347656 C 158.175781 116.261719 158.371094 116.261719 158.578125 116.34375 C 158.832031 116.445312 159.09375 116.53125 159.359375 116.597656 C 160.675781 116.917969 162.164062 116.742188 163.445312 116.121094 C 163.683594 116.003906 163.914062 116.007812 164.148438 116.125 Z M 124.101562 97.753906 C 124.21875 97.8125 124.316406 97.894531 124.390625 98 C 124.464844 98.109375 124.511719 98.226562 124.53125 98.355469 C 124.546875 98.484375 124.53125 98.605469 124.488281 98.730469 C 124.441406 98.851562 124.371094 98.957031 124.273438 99.042969 C 123.90625 99.375 123.539062 99.722656 123.195312 100.078125 C 122.195312 101.09375 121.289062 102.199219 120.539062 103.144531 C 120.402344 103.3125 120.222656 103.40625 120.011719 103.433594 C 119.792969 103.457031 119.597656 103.402344 119.429688 103.265625 C 119.257812 103.128906 119.160156 102.953125 119.136719 102.734375 C 119.109375 102.519531 119.167969 102.328125 119.304688 102.15625 C 120.082031 101.179688 121.019531 100.039062 122.070312 98.96875 C 122.4375 98.59375 122.824219 98.222656 123.21875 97.867188 C 123.488281 97.628906 123.78125 97.585938 124.105469 97.75 Z M 112.074219 100.71875 C 112.707031 101.039062 113.308594 101.417969 113.871094 101.847656 C 114.042969 101.980469 114.152344 102.15625 114.179688 102.371094 C 114.210938 102.589844 114.160156 102.789062 114.027344 102.960938 C 113.894531 103.140625 113.714844 103.238281 113.496094 103.265625 C 113.273438 103.292969 113.078125 103.238281 112.90625 103.101562 C 112.421875 102.726562 111.90625 102.402344 111.359375 102.125 C 110.332031 101.597656 109.238281 101.261719 108.089844 101.109375 C 107.875 101.082031 107.699219 100.980469 107.570312 100.808594 C 107.4375 100.636719 107.386719 100.441406 107.414062 100.226562 C 107.441406 100.007812 107.539062 99.835938 107.714844 99.703125 C 107.886719 99.570312 108.082031 99.515625 108.296875 99.546875 C 109.625 99.71875 110.882812 100.109375 112.074219 100.71875 Z M 117.152344 106.242188 C 117.324219 106.328125 117.445312 106.457031 117.523438 106.628906 C 118.292969 108.40625 118.710938 110.421875 118.722656 112.46875 C 118.726562 112.6875 118.652344 112.875 118.5 113.035156 C 118.347656 113.195312 118.160156 113.273438 117.9375 113.277344 C 117.71875 113.277344 117.53125 113.199219 117.375 113.042969 C 117.21875 112.890625 117.140625 112.703125 117.144531 112.480469 C 117.132812 110.992188 116.894531 109.539062 116.410156 108.128906 C 116.210938 108.34375 116.011719 108.550781 115.8125 108.75 C 114.792969 109.769531 113.675781 110.660156 112.449219 111.414062 C 112.261719 111.527344 112.066406 111.554688 111.851562 111.507812 C 111.644531 111.453125 111.480469 111.335938 111.363281 111.152344 C 111.253906 110.964844 111.21875 110.765625 111.273438 110.554688 C 111.324219 110.34375 111.441406 110.179688 111.628906 110.066406 C 112.746094 109.371094 113.769531 108.5625 114.699219 107.628906 C 115.042969 107.285156 115.382812 106.925781 115.746094 106.523438 C 116.003906 106.445312 116.246094 106.34375 116.484375 106.222656 C 116.710938 106.125 116.933594 106.128906 117.152344 106.242188 Z M 103.039062 100.542969 C 103.324219 100.6875 103.464844 100.917969 103.46875 101.238281 C 103.46875 101.558594 103.332031 101.796875 103.050781 101.941406 C 102.945312 101.996094 102.84375 102.050781 102.746094 102.113281 C 101.730469 102.710938 100.964844 103.484375 100.53125 104.34375 C 100.5 104.402344 100.476562 104.449219 100.453125 104.507812 C 100.289062 104.875 100.179688 105.257812 100.132812 105.660156 C 100.113281 105.875 100.015625 106.050781 99.84375 106.1875 C 99.675781 106.324219 99.484375 106.378906 99.265625 106.355469 C 99.050781 106.332031 98.871094 106.238281 98.734375 106.066406 C 98.601562 105.894531 98.542969 105.703125 98.570312 105.484375 C 98.628906 104.917969 98.78125 104.375 99.011719 103.855469 C 99.046875 103.777344 99.085938 103.703125 99.125 103.625 C 99.695312 102.5 100.671875 101.507812 101.9375 100.753906 C 102.0625 100.679688 102.183594 100.613281 102.3125 100.546875 C 102.550781 100.417969 102.792969 100.417969 103.039062 100.542969 Z M 107.050781 111.789062 C 107.214844 111.871094 107.332031 111.996094 107.410156 112.15625 C 107.484375 112.316406 107.507812 112.484375 107.46875 112.660156 C 107.429688 112.839844 107.339844 112.980469 107.203125 113.101562 C 107.066406 113.214844 106.910156 113.277344 106.726562 113.28125 C 106.148438 113.304688 105.574219 113.277344 105 113.191406 C 104.230469 113.070312 103.496094 112.832031 102.800781 112.476562 C 102.128906 112.136719 101.515625 111.707031 100.964844 111.195312 C 100.804688 111.046875 100.71875 110.863281 100.710938 110.644531 C 100.703125 110.429688 100.773438 110.238281 100.921875 110.082031 C 101.070312 109.921875 101.25 109.835938 101.46875 109.828125 C 101.6875 109.816406 101.875 109.886719 102.035156 110.035156 C 102.480469 110.449219 102.976562 110.796875 103.515625 111.070312 C 104.058594 111.347656 104.628906 111.535156 105.234375 111.628906 C 105.707031 111.699219 106.1875 111.726562 106.667969 111.703125 C 106.800781 111.703125 106.929688 111.730469 107.050781 111.792969 Z M 117.285156 117.332031 C 117.460938 117.425781 117.589844 117.558594 117.664062 117.746094 C 117.734375 117.933594 117.738281 118.117188 117.671875 118.308594 C 117.40625 119.007812 117.109375 119.695312 116.765625 120.359375 C 116.210938 121.449219 115.566406 122.484375 114.835938 123.46875 C 114.707031 123.648438 114.535156 123.757812 114.316406 123.789062 C 114.097656 123.824219 113.898438 123.777344 113.722656 123.644531 C 113.542969 123.511719 113.441406 123.335938 113.40625 123.117188 C 113.378906 122.898438 113.429688 122.699219 113.570312 122.523438 C 114.246094 121.617188 114.84375 120.65625 115.359375 119.644531 C 115.671875 119.03125 115.945312 118.402344 116.1875 117.757812 C 116.261719 117.554688 116.398438 117.40625 116.597656 117.316406 C 116.796875 117.222656 116.996094 117.214844 117.203125 117.292969 C 117.230469 117.308594 117.257812 117.316406 117.285156 117.332031 Z M 110.675781 126.433594 C 110.796875 126.492188 110.894531 126.578125 110.96875 126.683594 C 111.042969 126.792969 111.089844 126.910156 111.105469 127.042969 C 111.121094 127.171875 111.105469 127.296875 111.058594 127.421875 C 111.011719 127.542969 110.933594 127.648438 110.839844 127.734375 C 109.359375 129 107.773438 130.121094 106.089844 131.097656 C 105.898438 131.207031 105.699219 131.230469 105.488281 131.179688 C 105.277344 131.121094 105.117188 131 105.007812 130.808594 C 104.898438 130.617188 104.871094 130.421875 104.925781 130.210938 C 104.984375 130 105.105469 129.839844 105.296875 129.730469 C 106.898438 128.804688 108.398438 127.742188 109.804688 126.539062 C 110.074219 126.304688 110.367188 126.269531 110.679688 126.433594 Z M 100.910156 132.113281 C 101.21875 132.273438 101.359375 132.523438 101.34375 132.867188 C 101.320312 133.207031 101.148438 133.4375 100.828125 133.5625 C 99.011719 134.226562 97.152344 134.757812 95.257812 135.15625 C 95.042969 135.199219 94.84375 135.164062 94.660156 135.042969 C 94.476562 134.921875 94.367188 134.753906 94.320312 134.542969 C 94.273438 134.328125 94.3125 134.128906 94.433594 133.949219 C 94.554688 133.765625 94.722656 133.652344 94.933594 133.609375 C 96.753906 133.230469 98.535156 132.71875 100.28125 132.078125 C 100.496094 131.996094 100.707031 132.011719 100.914062 132.117188 Z M 89.828125 134.472656 C 89.984375 134.554688 90.105469 134.671875 90.179688 134.832031 C 90.257812 134.992188 90.28125 135.15625 90.25 135.332031 C 90.214844 135.503906 90.125 135.648438 89.996094 135.765625 C 89.863281 135.886719 89.710938 135.949219 89.53125 135.964844 C 87.613281 136.109375 85.691406 136.152344 83.765625 136.085938 C 83.546875 136.082031 83.359375 136 83.210938 135.839844 C 83.0625 135.679688 82.988281 135.488281 83 135.269531 C 83 135.054688 83.085938 134.867188 83.246094 134.71875 C 83.40625 134.570312 83.601562 134.5 83.820312 134.507812 C 85.683594 134.574219 87.546875 134.535156 89.40625 134.390625 C 89.558594 134.375 89.699219 134.40625 89.832031 134.476562 Z M 78.492188 134.113281 C 78.660156 134.203125 78.78125 134.335938 78.855469 134.511719 C 78.933594 134.6875 78.941406 134.871094 78.886719 135.054688 C 78.828125 135.238281 78.71875 135.382812 78.554688 135.484375 C 78.394531 135.589844 78.214844 135.628906 78.023438 135.601562 C 76.140625 135.347656 74.238281 134.996094 72.359375 134.566406 C 72.148438 134.515625 71.984375 134.398438 71.871094 134.214844 C 71.757812 134.03125 71.722656 133.832031 71.769531 133.617188 C 71.820312 133.40625 71.9375 133.242188 72.121094 133.128906 C 72.308594 133.011719 72.507812 132.976562 72.71875 133.027344 C 74.546875 133.453125 76.402344 133.792969 78.234375 134.039062 C 78.328125 134.050781 78.414062 134.074219 78.492188 134.113281 Z M 67.414062 131.628906 C 67.59375 131.722656 67.71875 131.863281 67.789062 132.050781 C 67.859375 132.242188 67.859375 132.429688 67.785156 132.621094 C 67.710938 132.8125 67.582031 132.953125 67.398438 133.039062 C 67.21875 133.128906 67.027344 133.144531 66.832031 133.089844 C 65.964844 132.839844 65.082031 132.574219 64.234375 132.320312 C 63.296875 132.042969 62.332031 131.757812 61.382812 131.480469 C 61.171875 131.421875 61.015625 131.296875 60.910156 131.109375 C 60.804688 130.914062 60.785156 130.714844 60.84375 130.503906 C 60.90625 130.296875 61.027344 130.140625 61.222656 130.03125 C 61.414062 129.929688 61.613281 129.902344 61.824219 129.964844 C 62.777344 130.242188 63.742188 130.53125 64.679688 130.808594 C 65.527344 131.0625 66.40625 131.320312 67.273438 131.574219 C 67.320312 131.589844 67.371094 131.605469 67.417969 131.628906 Z M 56.472656 128.574219 C 56.652344 128.664062 56.773438 128.804688 56.847656 128.988281 C 56.921875 129.171875 56.921875 129.363281 56.855469 129.546875 C 56.785156 129.734375 56.667969 129.875 56.488281 129.96875 C 56.3125 130.066406 56.132812 130.089844 55.9375 130.046875 C 54.117188 129.621094 52.285156 129.300781 50.429688 129.085938 C 50.210938 129.058594 50.035156 128.964844 49.902344 128.792969 C 49.765625 128.621094 49.710938 128.425781 49.734375 128.210938 C 49.757812 127.996094 49.855469 127.816406 50.027344 127.679688 C 50.199219 127.546875 50.386719 127.488281 50.609375 127.515625 C 52.519531 127.738281 54.410156 128.066406 56.289062 128.507812 C 56.351562 128.523438 56.414062 128.542969 56.472656 128.574219 Z M 45.203125 127.457031 C 45.359375 127.535156 45.476562 127.65625 45.554688 127.816406 C 45.632812 127.976562 45.652344 128.144531 45.617188 128.320312 C 45.582031 128.492188 45.496094 128.636719 45.363281 128.75 C 45.230469 128.871094 45.074219 128.933594 44.898438 128.945312 C 43.054688 129.0625 41.246094 129.367188 39.46875 129.867188 C 39.257812 129.925781 39.054688 129.90625 38.867188 129.800781 C 38.675781 129.695312 38.550781 129.535156 38.488281 129.324219 C 38.429688 129.113281 38.449219 128.914062 38.5625 128.722656 C 38.667969 128.53125 38.824219 128.40625 39.035156 128.347656 C 40.917969 127.820312 42.835938 127.496094 44.792969 127.371094 C 44.9375 127.363281 45.070312 127.386719 45.199219 127.453125 Z M 34.410156 130.648438 C 34.6875 130.789062 34.828125 131.015625 34.839844 131.320312 C 34.851562 131.628906 34.726562 131.859375 34.464844 132.023438 C 32.910156 132.972656 31.5625 134.148438 30.417969 135.566406 C 30.277344 135.742188 30.105469 135.839844 29.882812 135.867188 C 29.664062 135.894531 29.46875 135.839844 29.300781 135.699219 C 29.125 135.5625 29.027344 135.382812 29.003906 135.164062 C 28.984375 134.945312 29.042969 134.75 29.183594 134.582031 C 30.441406 133.023438 31.929688 131.722656 33.640625 130.679688 C 33.890625 130.523438 34.148438 130.515625 34.410156 130.648438 Z M 34.410156 130.648438 " fill-opacity="1" fill-rule="nonzero"/></g></g></g></g></g><g clip-path="url(#76dd430679)"><g clip-path="url(#ccf5b43616)"><g clip-path="url(#d03a3ba9ca)"><g clip-path="url(#64e703a309)"><g clip-path="url(#f2722d064f)"><path fill="#444455" d="M 310.214844 25.371094 C 310.390625 25.460938 310.519531 25.59375 310.605469 25.773438 C 310.6875 25.953125 310.710938 26.136719 310.667969 26.328125 C 310.203125 28.402344 309.5625 30.421875 308.746094 32.386719 C 308.65625 32.609375 308.5 32.769531 308.277344 32.863281 C 308.058594 32.960938 307.832031 32.960938 307.613281 32.867188 C 307.386719 32.777344 307.230469 32.617188 307.140625 32.390625 C 307.050781 32.171875 307.054688 31.949219 307.152344 31.722656 C 307.929688 29.851562 308.539062 27.929688 308.980469 25.953125 C 309.035156 25.722656 309.160156 25.542969 309.363281 25.410156 C 309.5625 25.28125 309.777344 25.246094 310.011719 25.296875 C 310.082031 25.3125 310.148438 25.335938 310.214844 25.371094 Z M 305.492188 36.796875 C 305.515625 36.808594 305.539062 36.820312 305.5625 36.832031 C 305.761719 36.957031 305.890625 37.140625 305.945312 37.367188 C 305.996094 37.601562 305.957031 37.820312 305.835938 38.023438 C 304.710938 39.820312 303.449219 41.519531 302.050781 43.113281 C 301.894531 43.292969 301.695312 43.394531 301.460938 43.40625 C 301.222656 43.421875 301.011719 43.355469 300.835938 43.195312 C 300.652344 43.039062 300.554688 42.839844 300.539062 42.601562 C 300.523438 42.363281 300.59375 42.15625 300.753906 41.976562 C 302.089844 40.453125 303.300781 38.835938 304.375 37.113281 C 304.496094 36.925781 304.660156 36.800781 304.878906 36.738281 C 305.089844 36.675781 305.296875 36.699219 305.496094 36.800781 Z M 297.335938 46.097656 C 297.441406 46.152344 297.535156 46.226562 297.609375 46.320312 C 297.761719 46.503906 297.824219 46.710938 297.800781 46.949219 C 297.777344 47.1875 297.675781 47.378906 297.492188 47.535156 C 295.847656 48.878906 294.105469 50.078125 292.261719 51.132812 C 292.050781 51.25 291.835938 51.28125 291.601562 51.214844 C 291.371094 51.152344 291.203125 51.015625 291.082031 50.808594 C 290.960938 50.601562 290.9375 50.382812 291 50.152344 C 291.0625 49.925781 291.199219 49.75 291.40625 49.632812 C 293.167969 48.628906 294.832031 47.488281 296.398438 46.195312 C 296.6875 45.957031 297.003906 45.925781 297.339844 46.097656 Z M 286.578125 52.179688 C 286.917969 52.351562 287.074219 52.628906 287.046875 53.007812 C 287.019531 53.386719 286.828125 53.640625 286.472656 53.765625 C 285.90625 53.957031 285.335938 54.144531 284.765625 54.308594 C 283.324219 54.722656 281.867188 55.050781 280.371094 55.382812 C 280.136719 55.4375 279.914062 55.402344 279.707031 55.273438 C 279.503906 55.144531 279.375 54.964844 279.320312 54.726562 C 279.269531 54.488281 279.3125 54.273438 279.445312 54.066406 C 279.578125 53.863281 279.761719 53.738281 280 53.695312 C 281.464844 53.371094 282.898438 53.050781 284.289062 52.648438 C 284.828125 52.492188 285.371094 52.320312 285.902344 52.136719 C 286.136719 52.054688 286.363281 52.070312 286.582031 52.183594 Z M 265.625 48.839844 C 265.796875 48.929688 265.964844 49.011719 266.128906 49.101562 C 266.335938 49.210938 266.480469 49.382812 266.550781 49.609375 C 266.617188 49.839844 266.601562 50.058594 266.488281 50.265625 C 266.378906 50.476562 266.207031 50.621094 265.980469 50.691406 C 265.75 50.761719 265.53125 50.738281 265.320312 50.625 C 263.53125 49.683594 261.671875 48.910156 259.742188 48.308594 C 259.515625 48.234375 259.339844 48.09375 259.234375 47.882812 C 259.121094 47.675781 259.101562 47.453125 259.171875 47.226562 C 259.242188 47 259.382812 46.832031 259.597656 46.71875 C 259.804688 46.605469 260.027344 46.585938 260.253906 46.65625 C 262.109375 47.234375 263.898438 47.964844 265.628906 48.84375 Z M 271.3125 52.476562 C 271.367188 52.503906 271.414062 52.539062 271.457031 52.570312 C 272.355469 53.28125 273.21875 54.039062 274.039062 54.828125 C 274.179688 54.960938 274.3125 55.09375 274.445312 55.226562 C 274.71875 55.324219 274.894531 55.503906 274.984375 55.78125 C 275.367188 56.179688 275.726562 56.582031 276.0625 56.984375 C 276.214844 57.167969 276.277344 57.375 276.257812 57.617188 C 276.234375 57.851562 276.136719 58.046875 275.953125 58.199219 C 275.769531 58.355469 275.558594 58.417969 275.324219 58.398438 C 275.085938 58.378906 274.890625 58.273438 274.738281 58.09375 C 274.453125 57.753906 274.148438 57.40625 273.824219 57.0625 C 272.953125 57.359375 272.117188 57.710938 271.292969 58.117188 C 270.535156 58.496094 269.816406 58.945312 269.144531 59.460938 C 268.957031 59.609375 268.738281 59.671875 268.503906 59.640625 C 268.261719 59.609375 268.070312 59.5 267.929688 59.308594 C 267.78125 59.117188 267.722656 58.902344 267.757812 58.664062 C 267.789062 58.425781 267.902344 58.234375 268.097656 58.09375 C 268.859375 57.507812 269.667969 57 270.523438 56.574219 C 271.136719 56.261719 271.785156 55.980469 272.472656 55.722656 C 271.804688 55.09375 271.105469 54.492188 270.386719 53.925781 C 270.210938 53.789062 270.105469 53.609375 270.070312 53.390625 C 270.03125 53.171875 270.074219 52.96875 270.195312 52.785156 C 270.3125 52.597656 270.476562 52.472656 270.695312 52.414062 C 270.910156 52.355469 271.113281 52.378906 271.3125 52.476562 Z M 254.316406 45.453125 C 254.5 45.546875 254.632812 45.691406 254.714844 45.882812 C 254.796875 46.074219 254.8125 46.269531 254.75 46.46875 C 254.691406 46.667969 254.574219 46.824219 254.402344 46.9375 C 254.230469 47.054688 254.042969 47.101562 253.832031 47.082031 C 253.101562 47.003906 252.355469 46.949219 251.625 46.929688 C 250.351562 46.890625 249.078125 46.9375 247.8125 47.066406 C 247.578125 47.085938 247.375 47.015625 247.195312 46.867188 C 247.015625 46.71875 246.917969 46.527344 246.894531 46.296875 C 246.867188 46.066406 246.929688 45.855469 247.070312 45.675781 C 247.21875 45.492188 247.40625 45.386719 247.636719 45.351562 C 248.976562 45.214844 250.324219 45.167969 251.679688 45.207031 C 252.453125 45.234375 253.234375 45.285156 254.015625 45.367188 C 254.121094 45.378906 254.226562 45.40625 254.316406 45.453125 Z M 278.863281 62.121094 C 279.082031 62.230469 279.226562 62.402344 279.300781 62.628906 C 279.3125 62.679688 279.324219 62.726562 279.339844 62.777344 C 280 64.941406 280.023438 67.242188 279.40625 69.265625 C 279.335938 69.492188 279.195312 69.660156 278.984375 69.773438 C 278.773438 69.882812 278.554688 69.902344 278.328125 69.835938 C 278.101562 69.765625 277.929688 69.625 277.820312 69.417969 C 277.707031 69.203125 277.6875 68.988281 277.753906 68.757812 C 278.273438 67.0625 278.253906 65.121094 277.691406 63.285156 L 277.652344 63.152344 C 277.535156 62.789062 277.621094 62.480469 277.914062 62.234375 C 278.207031 61.984375 278.523438 61.945312 278.863281 62.121094 Z M 242.042969 46.695312 C 242.386719 46.871094 242.542969 47.148438 242.511719 47.539062 C 242.476562 47.921875 242.28125 48.175781 241.910156 48.289062 C 239.988281 48.894531 238.140625 49.691406 236.382812 50.683594 C 236.175781 50.792969 235.960938 50.816406 235.738281 50.75 C 235.511719 50.683594 235.339844 50.550781 235.226562 50.34375 C 235.109375 50.140625 235.082031 49.925781 235.144531 49.695312 C 235.207031 49.46875 235.339844 49.296875 235.539062 49.179688 C 237.402344 48.132812 239.355469 47.289062 241.394531 46.644531 C 241.617188 46.574219 241.835938 46.589844 242.046875 46.699219 Z M 265.117188 62.769531 C 265.324219 62.875 265.46875 63.035156 265.542969 63.253906 C 265.617188 63.46875 265.605469 63.683594 265.515625 63.890625 C 264.828125 65.429688 264.648438 66.957031 264.984375 68.429688 C 265.046875 68.714844 265.132812 69 265.238281 69.273438 C 265.324219 69.496094 265.320312 69.714844 265.222656 69.933594 C 265.125 70.152344 264.964844 70.300781 264.746094 70.386719 C 264.519531 70.472656 264.300781 70.464844 264.085938 70.371094 C 263.867188 70.273438 263.714844 70.113281 263.628906 69.890625 C 263.496094 69.539062 263.390625 69.179688 263.308594 68.8125 C 262.894531 66.996094 263.117188 65.046875 263.945312 63.1875 C 264.046875 62.96875 264.203125 62.820312 264.425781 62.730469 C 264.648438 62.648438 264.871094 62.652344 265.082031 62.753906 Z M 275.089844 72.855469 C 275.40625 73.023438 275.5625 73.277344 275.558594 73.632812 C 275.554688 73.988281 275.394531 74.242188 275.078125 74.398438 C 273.296875 75.265625 271.296875 75.496094 269.449219 75.046875 C 269.074219 74.953125 268.710938 74.835938 268.351562 74.695312 C 268.128906 74.601562 267.972656 74.449219 267.878906 74.230469 C 267.785156 74.011719 267.785156 73.789062 267.875 73.566406 C 267.964844 73.347656 268.117188 73.191406 268.335938 73.097656 C 268.558594 73.007812 268.777344 73.003906 269 73.09375 C 269.277344 73.207031 269.5625 73.300781 269.855469 73.371094 C 271.292969 73.722656 272.917969 73.53125 274.320312 72.851562 C 274.582031 72.722656 274.832031 72.726562 275.089844 72.855469 Z M 231.3125 52.773438 C 231.441406 52.839844 231.550781 52.925781 231.628906 53.039062 C 231.710938 53.160156 231.761719 53.289062 231.78125 53.429688 C 231.796875 53.570312 231.785156 53.707031 231.734375 53.839844 C 231.6875 53.972656 231.609375 54.089844 231.5 54.183594 C 231.097656 54.542969 230.699219 54.921875 230.320312 55.3125 C 229.230469 56.421875 228.238281 57.628906 227.417969 58.664062 C 227.269531 58.847656 227.074219 58.953125 226.839844 58.980469 C 226.601562 59.007812 226.386719 58.945312 226.203125 58.800781 C 226.015625 58.648438 225.910156 58.453125 225.886719 58.21875 C 225.855469 57.984375 225.921875 57.769531 226.066406 57.585938 C 226.917969 56.519531 227.945312 55.273438 229.089844 54.101562 C 229.496094 53.691406 229.917969 53.285156 230.347656 52.898438 C 230.640625 52.636719 230.964844 52.589844 231.316406 52.769531 Z M 218.167969 56.015625 C 218.859375 56.367188 219.511719 56.777344 220.128906 57.246094 C 220.320312 57.390625 220.4375 57.582031 220.46875 57.820312 C 220.503906 58.0625 220.445312 58.277344 220.300781 58.464844 C 220.152344 58.660156 219.957031 58.765625 219.71875 58.796875 C 219.476562 58.824219 219.265625 58.765625 219.078125 58.617188 C 218.546875 58.210938 217.984375 57.855469 217.386719 57.550781 C 216.261719 56.976562 215.066406 56.605469 213.8125 56.4375 C 213.578125 56.414062 213.382812 56.300781 213.242188 56.109375 C 213.097656 55.925781 213.039062 55.710938 213.070312 55.476562 C 213.097656 55.238281 213.210938 55.046875 213.402344 54.902344 C 213.585938 54.757812 213.800781 54.699219 214.035156 54.730469 C 215.488281 54.921875 216.863281 55.347656 218.167969 56.015625 Z M 223.71875 62.050781 C 223.902344 62.144531 224.039062 62.285156 224.121094 62.476562 C 224.960938 64.417969 225.421875 66.617188 225.429688 68.855469 C 225.4375 69.097656 225.355469 69.300781 225.191406 69.476562 C 225.023438 69.652344 224.816406 69.738281 224.578125 69.742188 C 224.335938 69.742188 224.132812 69.65625 223.957031 69.488281 C 223.789062 69.316406 223.703125 69.113281 223.710938 68.871094 C 223.695312 67.242188 223.433594 65.65625 222.90625 64.113281 C 222.683594 64.347656 222.46875 64.574219 222.25 64.792969 C 221.136719 65.90625 219.914062 66.878906 218.578125 67.703125 C 218.371094 67.828125 218.15625 67.859375 217.921875 67.808594 C 217.695312 67.75 217.515625 67.617188 217.386719 67.417969 C 217.265625 67.214844 217.230469 66.996094 217.289062 66.765625 C 217.34375 66.535156 217.472656 66.355469 217.679688 66.230469 C 218.898438 65.472656 220.019531 64.585938 221.035156 63.570312 C 221.410156 63.195312 221.785156 62.796875 222.179688 62.355469 C 222.460938 62.273438 222.726562 62.164062 222.984375 62.03125 C 223.234375 61.921875 223.476562 61.925781 223.71875 62.050781 Z M 208.289062 55.820312 C 208.597656 55.980469 208.753906 56.234375 208.757812 56.582031 C 208.761719 56.929688 208.609375 57.191406 208.300781 57.351562 C 208.1875 57.410156 208.074219 57.472656 207.96875 57.539062 C 206.859375 58.191406 206.023438 59.039062 205.546875 59.976562 C 205.515625 60.039062 205.488281 60.09375 205.460938 60.152344 C 205.28125 60.554688 205.164062 60.976562 205.113281 61.414062 C 205.089844 61.652344 204.984375 61.839844 204.796875 61.988281 C 204.613281 62.140625 204.402344 62.199219 204.164062 62.175781 C 203.929688 62.148438 203.730469 62.046875 203.582031 61.859375 C 203.4375 61.671875 203.375 61.460938 203.402344 61.222656 C 203.46875 60.601562 203.632812 60.011719 203.886719 59.441406 C 203.925781 59.359375 203.964844 59.277344 204.011719 59.191406 C 204.636719 57.960938 205.699219 56.875 207.085938 56.050781 C 207.21875 55.972656 207.355469 55.898438 207.492188 55.828125 C 207.753906 55.6875 208.019531 55.683594 208.289062 55.820312 Z M 212.675781 68.117188 C 212.855469 68.207031 212.980469 68.339844 213.070312 68.515625 C 213.148438 68.691406 213.171875 68.875 213.128906 69.070312 C 213.089844 69.261719 212.992188 69.417969 212.84375 69.546875 C 212.691406 69.671875 212.519531 69.742188 212.320312 69.746094 C 211.6875 69.773438 211.058594 69.742188 210.433594 69.648438 C 209.589844 69.515625 208.789062 69.257812 208.03125 68.867188 C 207.296875 68.492188 206.625 68.023438 206.019531 67.464844 C 205.847656 67.304688 205.753906 67.105469 205.742188 66.863281 C 205.734375 66.628906 205.8125 66.421875 205.972656 66.25 C 206.136719 66.070312 206.335938 65.980469 206.574219 65.972656 C 206.808594 65.960938 207.015625 66.035156 207.191406 66.199219 C 207.679688 66.652344 208.21875 67.027344 208.8125 67.328125 C 209.402344 67.632812 210.027344 67.839844 210.6875 67.941406 C 211.207031 68.019531 211.730469 68.042969 212.253906 68.023438 C 212.402344 68.019531 212.542969 68.050781 212.675781 68.117188 Z M 223.863281 74.175781 C 224.054688 74.273438 224.195312 74.425781 224.273438 74.625 C 224.355469 74.832031 224.359375 75.035156 224.285156 75.242188 C 223.996094 76.007812 223.667969 76.757812 223.292969 77.484375 C 222.6875 78.675781 221.980469 79.808594 221.183594 80.878906 C 221.042969 81.078125 220.855469 81.199219 220.617188 81.234375 C 220.378906 81.273438 220.160156 81.222656 219.964844 81.074219 C 219.769531 80.929688 219.660156 80.738281 219.621094 80.5 C 219.59375 80.257812 219.648438 80.042969 219.800781 79.851562 C 220.539062 78.859375 221.191406 77.808594 221.757812 76.703125 C 222.097656 76.03125 222.398438 75.34375 222.664062 74.640625 C 222.742188 74.417969 222.894531 74.253906 223.109375 74.15625 C 223.328125 74.054688 223.546875 74.046875 223.773438 74.128906 C 223.804688 74.148438 223.832031 74.15625 223.863281 74.175781 Z M 216.636719 84.121094 C 216.769531 84.1875 216.875 84.28125 216.957031 84.394531 C 217.039062 84.515625 217.089844 84.644531 217.105469 84.789062 C 217.121094 84.929688 217.105469 85.066406 217.054688 85.203125 C 217.003906 85.335938 216.917969 85.453125 216.8125 85.542969 C 215.195312 86.929688 213.464844 88.15625 211.621094 89.222656 C 211.414062 89.34375 211.195312 89.367188 210.96875 89.308594 C 210.734375 89.246094 210.558594 89.113281 210.441406 88.90625 C 210.320312 88.699219 210.292969 88.484375 210.351562 88.25 C 210.414062 88.023438 210.546875 87.847656 210.753906 87.726562 C 212.503906 86.714844 214.148438 85.550781 215.683594 84.238281 C 215.980469 83.984375 216.296875 83.945312 216.640625 84.125 Z M 205.960938 90.332031 C 206.300781 90.503906 206.453125 90.777344 206.433594 91.15625 C 206.410156 91.527344 206.222656 91.78125 205.871094 91.914062 C 203.882812 92.644531 201.855469 93.222656 199.785156 93.65625 C 199.550781 93.703125 199.328125 93.664062 199.132812 93.535156 C 198.929688 93.402344 198.808594 93.21875 198.757812 92.988281 C 198.707031 92.753906 198.75 92.535156 198.878906 92.339844 C 199.011719 92.136719 199.195312 92.015625 199.429688 91.96875 C 201.417969 91.550781 203.367188 90.992188 205.273438 90.292969 C 205.507812 90.207031 205.742188 90.222656 205.964844 90.335938 Z M 193.847656 92.914062 C 194.019531 93 194.148438 93.128906 194.230469 93.304688 C 194.320312 93.480469 194.339844 93.65625 194.308594 93.847656 C 194.269531 94.039062 194.175781 94.195312 194.03125 94.324219 C 193.886719 94.457031 193.71875 94.527344 193.523438 94.542969 C 191.425781 94.699219 189.324219 94.746094 187.21875 94.671875 C 186.980469 94.667969 186.777344 94.582031 186.613281 94.40625 C 186.453125 94.230469 186.371094 94.023438 186.382812 93.785156 C 186.382812 93.546875 186.476562 93.34375 186.652344 93.179688 C 186.828125 93.019531 187.039062 92.941406 187.277344 92.949219 C 189.316406 93.023438 191.355469 92.976562 193.386719 92.820312 C 193.550781 92.804688 193.707031 92.839844 193.851562 92.914062 Z M 181.453125 92.519531 C 181.640625 92.613281 181.773438 92.761719 181.855469 92.953125 C 181.9375 93.148438 181.945312 93.347656 181.886719 93.546875 C 181.820312 93.746094 181.703125 93.90625 181.523438 94.015625 C 181.347656 94.132812 181.15625 94.175781 180.945312 94.148438 C 178.886719 93.867188 176.804688 93.484375 174.753906 93.015625 C 174.523438 92.960938 174.34375 92.832031 174.214844 92.628906 C 174.09375 92.429688 174.058594 92.210938 174.109375 91.976562 C 174.160156 91.746094 174.292969 91.566406 174.492188 91.441406 C 174.695312 91.3125 174.914062 91.277344 175.144531 91.332031 C 177.140625 91.792969 179.171875 92.167969 181.171875 92.4375 C 181.273438 92.449219 181.367188 92.476562 181.453125 92.519531 Z M 169.347656 89.800781 C 169.542969 89.90625 169.679688 90.058594 169.757812 90.265625 C 169.835938 90.476562 169.832031 90.679688 169.75 90.886719 C 169.671875 91.09375 169.53125 91.25 169.328125 91.34375 C 169.132812 91.441406 168.925781 91.457031 168.710938 91.398438 C 167.757812 91.125 166.796875 90.835938 165.867188 90.558594 C 164.84375 90.253906 163.792969 89.945312 162.753906 89.640625 C 162.523438 89.578125 162.355469 89.4375 162.238281 89.234375 C 162.121094 89.023438 162.097656 88.804688 162.164062 88.574219 C 162.230469 88.34375 162.367188 88.175781 162.578125 88.058594 C 162.785156 87.941406 163.003906 87.917969 163.234375 87.984375 C 164.277344 88.285156 165.332031 88.601562 166.355469 88.90625 C 167.285156 89.183594 168.246094 89.46875 169.191406 89.742188 C 169.246094 89.761719 169.300781 89.777344 169.351562 89.804688 Z M 157.386719 86.464844 C 157.582031 86.5625 157.714844 86.714844 157.796875 86.917969 C 157.875 87.117188 157.878906 87.324219 157.804688 87.527344 C 157.730469 87.734375 157.597656 87.886719 157.402344 87.988281 C 157.210938 88.09375 157.011719 88.121094 156.800781 88.070312 C 154.8125 87.609375 152.804688 87.257812 150.78125 87.019531 C 150.542969 86.992188 150.351562 86.890625 150.203125 86.703125 C 150.050781 86.515625 149.992188 86.304688 150.019531 86.066406 C 150.042969 85.832031 150.152344 85.636719 150.339844 85.488281 C 150.527344 85.34375 150.734375 85.277344 150.972656 85.304688 C 153.0625 85.546875 155.132812 85.910156 157.183594 86.390625 C 157.253906 86.40625 157.320312 86.429688 157.386719 86.464844 Z M 145.066406 85.242188 C 145.238281 85.328125 145.363281 85.460938 145.453125 85.636719 C 145.535156 85.808594 145.558594 85.992188 145.519531 86.183594 C 145.480469 86.375 145.386719 86.53125 145.242188 86.65625 C 145.09375 86.789062 144.921875 86.859375 144.734375 86.867188 C 142.71875 86.996094 140.738281 87.332031 138.796875 87.878906 C 138.566406 87.941406 138.347656 87.917969 138.140625 87.804688 C 137.929688 87.6875 137.792969 87.515625 137.726562 87.285156 C 137.664062 87.050781 137.683594 86.835938 137.804688 86.625 C 137.921875 86.417969 138.09375 86.28125 138.324219 86.214844 C 140.382812 85.640625 142.480469 85.285156 144.617188 85.148438 C 144.773438 85.140625 144.921875 85.167969 145.0625 85.238281 Z M 133.265625 88.730469 C 133.570312 88.886719 133.722656 89.128906 133.738281 89.464844 C 133.75 89.800781 133.613281 90.054688 133.328125 90.234375 C 131.628906 91.269531 130.15625 92.558594 128.902344 94.105469 C 128.753906 94.296875 128.5625 94.40625 128.320312 94.4375 C 128.082031 94.464844 127.867188 94.40625 127.679688 94.253906 C 127.488281 94.101562 127.382812 93.90625 127.359375 93.667969 C 127.335938 93.429688 127.402344 93.214844 127.554688 93.03125 C 128.929688 91.324219 130.554688 89.902344 132.425781 88.761719 C 132.699219 88.59375 132.984375 88.585938 133.265625 88.730469 Z M 133.265625 88.730469 " fill-opacity="1" fill-rule="nonzero"/></g></g></g></g></g></svg>