<svg xmlns="http://www.w3.org/2000/svg" xmlns:xlink="http://www.w3.org/1999/xlink" width="400" zoomAndPan="magnify" viewBox="0 0 300 149.999998" height="200" preserveAspectRatio="xMidYMid meet" version="1.0"><defs><clipPath id="5a13cd0641"><path d="M 99 51 L 257 51 L 257 111 L 99 111 Z M 99 51 " clip-rule="nonzero"/></clipPath><clipPath id="8fc2c96e75"><path d="M 157.570312 -21.09375 L 285.273438 43.808594 L 220.371094 171.511719 L 92.667969 106.609375 Z M 157.570312 -21.09375 " clip-rule="nonzero"/></clipPath><clipPath id="2ad30905ad"><path d="M 157.570312 -21.09375 L 285.273438 43.808594 L 220.371094 171.511719 L 92.667969 106.609375 Z M 157.570312 -21.09375 " clip-rule="nonzero"/></clipPath><clipPath id="efe779ba65"><path d="M 157.570312 -21.09375 L 285.273438 43.808594 L 220.371094 171.511719 L 92.667969 106.609375 Z M 157.570312 -21.09375 " clip-rule="nonzero"/></clipPath><clipPath id="82191157f2"><path d="M 155.292969 -0.824219 L 258.742188 51.75 L 202.496094 162.421875 L 99.046875 109.847656 Z M 155.292969 -0.824219 " clip-rule="nonzero"/></clipPath><clipPath id="bf283a1778"><path d="M 248 45 L 264 45 L 264 56 L 248 56 Z M 248 45 " clip-rule="nonzero"/></clipPath><clipPath id="14a608c3d3"><path d="M 157.570312 -21.09375 L 285.273438 43.808594 L 220.371094 171.511719 L 92.667969 106.609375 Z M 157.570312 -21.09375 " clip-rule="nonzero"/></clipPath><clipPath id="fbe7c7ccf8"><path d="M 157.570312 -21.09375 L 285.273438 43.808594 L 220.371094 171.511719 L 92.667969 106.609375 Z M 157.570312 -21.09375 " clip-rule="nonzero"/></clipPath><clipPath id="fc755d4e4a"><path d="M 157.570312 -21.09375 L 285.273438 43.808594 L 220.371094 171.511719 L 92.667969 106.609375 Z M 157.570312 -21.09375 " clip-rule="nonzero"/></clipPath><clipPath id="4f914a3227"><path d="M 252.066406 43.800781 L 265.683594 50.71875 L 261.246094 59.449219 L 247.632812 52.53125 Z M 252.066406 43.800781 " clip-rule="nonzero"/></clipPath><clipPath id="b7a628b0b5"><path d="M 21 89 L 127 89 L 127 134 L 21 134 Z M 21 89 " clip-rule="nonzero"/></clipPath><clipPath id="99109e3125"><path d="M 112.0625 162.507812 L 21.429688 133.21875 L 35.5 89.683594 L 126.132812 118.976562 Z M 112.0625 162.507812 " clip-rule="nonzero"/></clipPath><clipPath id="1007c7394f"><path d="M 140.578125 171.722656 L 21.398438 133.207031 L 61.988281 7.605469 L 181.167969 46.121094 Z M 140.578125 171.722656 " clip-rule="nonzero"/></clipPath></defs><g clip-path="url(#5a13cd0641)"><g clip-path="url(#8fc2c96e75)"><g clip-path="url(#2ad30905ad)"><g clip-path="url(#efe779ba65)"><g clip-path="url(#82191157f2)"><path fill="#444455" d="M 256.210938 51.195312 C 256.359375 51.269531 256.472656 51.386719 256.546875 51.539062 C 256.613281 51.691406 256.636719 51.847656 256.597656 52.015625 C 256.199219 53.792969 255.652344 55.523438 254.953125 57.203125 C 254.875 57.394531 254.742188 57.53125 254.550781 57.613281 C 254.363281 57.695312 254.171875 57.695312 253.980469 57.613281 C 253.789062 57.539062 253.652344 57.402344 253.578125 57.207031 C 253.5 57.019531 253.503906 56.828125 253.585938 56.636719 C 254.25 55.03125 254.773438 53.386719 255.152344 51.695312 C 255.199219 51.496094 255.308594 51.34375 255.480469 51.230469 C 255.652344 51.117188 255.835938 51.089844 256.039062 51.132812 C 256.097656 51.144531 256.152344 51.164062 256.210938 51.195312 Z M 252.164062 60.980469 C 252.1875 60.992188 252.207031 61 252.226562 61.011719 C 252.398438 61.121094 252.507812 61.273438 252.554688 61.472656 C 252.597656 61.667969 252.566406 61.859375 252.460938 62.03125 C 251.5 63.570312 250.414062 65.027344 249.21875 66.390625 C 249.082031 66.546875 248.914062 66.628906 248.710938 66.640625 C 248.507812 66.65625 248.328125 66.597656 248.175781 66.460938 C 248.023438 66.328125 247.9375 66.15625 247.925781 65.953125 C 247.910156 65.75 247.972656 65.570312 248.109375 65.417969 C 249.253906 64.113281 250.289062 62.726562 251.207031 61.25 C 251.3125 61.089844 251.453125 60.984375 251.640625 60.929688 C 251.820312 60.878906 252 60.898438 252.167969 60.984375 Z M 245.179688 68.945312 C 245.269531 68.992188 245.347656 69.058594 245.414062 69.136719 C 245.542969 69.292969 245.597656 69.472656 245.578125 69.675781 C 245.558594 69.878906 245.472656 70.042969 245.3125 70.175781 C 243.90625 71.328125 242.414062 72.355469 240.832031 73.261719 C 240.652344 73.359375 240.46875 73.386719 240.269531 73.332031 C 240.070312 73.277344 239.925781 73.160156 239.824219 72.984375 C 239.722656 72.804688 239.699219 72.617188 239.753906 72.417969 C 239.804688 72.226562 239.925781 72.074219 240.101562 71.972656 C 241.609375 71.117188 243.035156 70.136719 244.375 69.03125 C 244.625 68.828125 244.894531 68.796875 245.183594 68.949219 Z M 235.964844 74.15625 C 236.257812 74.304688 236.390625 74.539062 236.367188 74.867188 C 236.34375 75.191406 236.179688 75.40625 235.875 75.515625 C 235.390625 75.679688 234.902344 75.839844 234.414062 75.980469 C 233.179688 76.335938 231.929688 76.617188 230.648438 76.898438 C 230.449219 76.945312 230.257812 76.917969 230.078125 76.804688 C 229.90625 76.695312 229.796875 76.539062 229.75 76.335938 C 229.707031 76.132812 229.742188 75.949219 229.855469 75.773438 C 229.96875 75.597656 230.128906 75.492188 230.332031 75.453125 C 231.585938 75.175781 232.8125 74.902344 234.003906 74.558594 C 234.464844 74.425781 234.929688 74.273438 235.386719 74.117188 C 235.585938 74.046875 235.78125 74.0625 235.96875 74.160156 Z M 218.019531 71.296875 C 218.167969 71.371094 218.308594 71.445312 218.449219 71.519531 C 218.628906 71.613281 218.75 71.761719 218.8125 71.953125 C 218.871094 72.152344 218.855469 72.339844 218.761719 72.519531 C 218.664062 72.699219 218.519531 72.820312 218.324219 72.882812 C 218.125 72.941406 217.941406 72.921875 217.757812 72.824219 C 216.226562 72.015625 214.636719 71.355469 212.980469 70.839844 C 212.785156 70.777344 212.636719 70.65625 212.546875 70.476562 C 212.449219 70.296875 212.429688 70.109375 212.492188 69.914062 C 212.554688 69.71875 212.671875 69.574219 212.855469 69.480469 C 213.035156 69.382812 213.222656 69.363281 213.417969 69.425781 C 215.007812 69.921875 216.539062 70.542969 218.023438 71.296875 Z M 222.890625 74.410156 C 222.9375 74.433594 222.976562 74.464844 223.011719 74.492188 C 223.78125 75.101562 224.523438 75.75 225.226562 76.425781 C 225.34375 76.539062 225.460938 76.652344 225.574219 76.765625 C 225.808594 76.847656 225.957031 77.003906 226.035156 77.238281 C 226.363281 77.582031 226.671875 77.929688 226.957031 78.269531 C 227.089844 78.429688 227.144531 78.605469 227.128906 78.8125 C 227.109375 79.015625 227.023438 79.183594 226.867188 79.3125 C 226.710938 79.445312 226.527344 79.5 226.324219 79.484375 C 226.121094 79.464844 225.953125 79.375 225.824219 79.21875 C 225.582031 78.929688 225.316406 78.632812 225.042969 78.339844 C 224.296875 78.589844 223.578125 78.890625 222.875 79.242188 C 222.222656 79.566406 221.609375 79.949219 221.035156 80.394531 C 220.875 80.519531 220.6875 80.574219 220.484375 80.546875 C 220.277344 80.519531 220.113281 80.425781 219.992188 80.261719 C 219.867188 80.097656 219.816406 79.914062 219.84375 79.710938 C 219.875 79.507812 219.96875 79.34375 220.136719 79.222656 C 220.789062 78.71875 221.480469 78.285156 222.214844 77.917969 C 222.742188 77.652344 223.292969 77.414062 223.882812 77.1875 C 223.3125 76.652344 222.710938 76.136719 222.097656 75.652344 C 221.945312 75.535156 221.859375 75.378906 221.828125 75.195312 C 221.792969 75.003906 221.832031 74.832031 221.933594 74.675781 C 222.035156 74.511719 222.175781 74.410156 222.363281 74.355469 C 222.546875 74.308594 222.71875 74.324219 222.890625 74.410156 Z M 208.335938 68.394531 C 208.492188 68.476562 208.605469 68.597656 208.675781 68.761719 C 208.746094 68.925781 208.757812 69.09375 208.703125 69.265625 C 208.65625 69.4375 208.554688 69.570312 208.40625 69.667969 C 208.261719 69.769531 208.097656 69.808594 207.917969 69.789062 C 207.292969 69.722656 206.65625 69.675781 206.027344 69.660156 C 204.9375 69.628906 203.847656 69.667969 202.761719 69.777344 C 202.5625 69.792969 202.386719 69.734375 202.234375 69.605469 C 202.082031 69.476562 201.996094 69.316406 201.976562 69.117188 C 201.953125 68.917969 202.007812 68.742188 202.128906 68.585938 C 202.253906 68.425781 202.414062 68.335938 202.613281 68.308594 C 203.757812 68.191406 204.914062 68.152344 206.074219 68.183594 C 206.734375 68.207031 207.40625 68.25 208.074219 68.320312 C 208.167969 68.332031 208.253906 68.355469 208.335938 68.394531 Z M 229.359375 82.671875 C 229.546875 82.765625 229.667969 82.910156 229.730469 83.105469 C 229.742188 83.148438 229.753906 83.1875 229.769531 83.234375 C 230.332031 85.085938 230.351562 87.058594 229.824219 88.789062 C 229.761719 88.984375 229.640625 89.128906 229.464844 89.226562 C 229.28125 89.320312 229.09375 89.335938 228.902344 89.277344 C 228.707031 89.21875 228.558594 89.097656 228.464844 88.917969 C 228.367188 88.738281 228.351562 88.550781 228.40625 88.355469 C 228.851562 86.902344 228.835938 85.242188 228.355469 83.667969 L 228.320312 83.554688 C 228.21875 83.242188 228.292969 82.980469 228.542969 82.765625 C 228.792969 82.554688 229.066406 82.523438 229.359375 82.671875 Z M 197.820312 69.460938 C 198.113281 69.609375 198.25 69.847656 198.222656 70.179688 C 198.191406 70.507812 198.023438 70.726562 197.707031 70.824219 C 196.0625 71.34375 194.480469 72.023438 192.972656 72.875 C 192.796875 72.96875 192.609375 72.988281 192.421875 72.933594 C 192.226562 72.875 192.082031 72.761719 191.984375 72.585938 C 191.882812 72.410156 191.859375 72.226562 191.914062 72.03125 C 191.964844 71.835938 192.078125 71.6875 192.25 71.585938 C 193.84375 70.691406 195.519531 69.964844 197.265625 69.414062 C 197.457031 69.355469 197.640625 69.367188 197.824219 69.460938 Z M 217.585938 83.226562 C 217.761719 83.316406 217.882812 83.453125 217.949219 83.640625 C 218.011719 83.824219 218.003906 84.007812 217.925781 84.1875 C 217.335938 85.507812 217.179688 86.8125 217.46875 88.074219 C 217.523438 88.320312 217.597656 88.5625 217.6875 88.796875 C 217.761719 88.988281 217.761719 89.175781 217.671875 89.359375 C 217.589844 89.550781 217.453125 89.675781 217.265625 89.753906 C 217.074219 89.824219 216.886719 89.816406 216.699219 89.738281 C 216.511719 89.652344 216.382812 89.519531 216.3125 89.324219 C 216.195312 89.023438 216.105469 88.71875 216.035156 88.402344 C 215.679688 86.84375 215.871094 85.175781 216.582031 83.582031 C 216.667969 83.398438 216.800781 83.269531 216.992188 83.195312 C 217.183594 83.125 217.371094 83.128906 217.554688 83.210938 Z M 226.125 91.867188 C 226.398438 92.007812 226.53125 92.226562 226.527344 92.53125 C 226.523438 92.835938 226.386719 93.054688 226.117188 93.1875 C 224.589844 93.929688 222.875 94.125 221.292969 93.742188 C 220.972656 93.660156 220.660156 93.5625 220.355469 93.4375 C 220.164062 93.359375 220.03125 93.230469 219.949219 93.042969 C 219.871094 92.855469 219.871094 92.664062 219.945312 92.472656 C 220.023438 92.289062 220.15625 92.152344 220.34375 92.074219 C 220.53125 91.992188 220.71875 91.992188 220.910156 92.066406 C 221.148438 92.164062 221.390625 92.246094 221.640625 92.304688 C 222.875 92.605469 224.265625 92.445312 225.46875 91.859375 C 225.691406 91.753906 225.90625 91.753906 226.125 91.867188 Z M 188.632812 74.664062 C 188.742188 74.71875 188.832031 74.796875 188.902344 74.894531 C 188.96875 74.996094 189.015625 75.105469 189.03125 75.226562 C 189.046875 75.347656 189.035156 75.464844 188.992188 75.578125 C 188.949219 75.691406 188.882812 75.792969 188.792969 75.871094 C 188.445312 76.179688 188.105469 76.507812 187.78125 76.839844 C 186.847656 77.789062 186 78.824219 185.292969 79.710938 C 185.167969 79.867188 185 79.957031 184.800781 79.980469 C 184.597656 80.003906 184.414062 79.953125 184.253906 79.824219 C 184.09375 79.699219 184.003906 79.53125 183.980469 79.328125 C 183.957031 79.125 184.011719 78.945312 184.140625 78.789062 C 184.867188 77.875 185.746094 76.804688 186.726562 75.800781 C 187.074219 75.449219 187.433594 75.101562 187.804688 74.769531 C 188.054688 74.546875 188.332031 74.507812 188.632812 74.660156 Z M 177.371094 77.441406 C 177.964844 77.742188 178.523438 78.09375 179.050781 78.496094 C 179.214844 78.621094 179.316406 78.785156 179.34375 78.988281 C 179.371094 79.195312 179.324219 79.378906 179.199219 79.542969 C 179.074219 79.707031 178.90625 79.796875 178.699219 79.824219 C 178.496094 79.847656 178.3125 79.796875 178.152344 79.667969 C 177.695312 79.320312 177.214844 79.015625 176.703125 78.757812 C 175.738281 78.265625 174.714844 77.949219 173.640625 77.804688 C 173.441406 77.78125 173.273438 77.683594 173.152344 77.523438 C 173.027344 77.363281 172.980469 77.179688 173.007812 76.980469 C 173.03125 76.773438 173.125 76.613281 173.289062 76.488281 C 173.449219 76.363281 173.632812 76.316406 173.832031 76.339844 C 175.078125 76.503906 176.253906 76.867188 177.371094 77.441406 Z M 182.125 82.609375 C 182.285156 82.691406 182.398438 82.8125 182.472656 82.972656 C 183.191406 84.636719 183.585938 86.523438 183.59375 88.441406 C 183.597656 88.648438 183.53125 88.820312 183.386719 88.972656 C 183.242188 89.121094 183.066406 89.195312 182.859375 89.199219 C 182.65625 89.199219 182.480469 89.125 182.332031 88.980469 C 182.1875 88.835938 182.113281 88.660156 182.117188 88.453125 C 182.109375 87.058594 181.882812 85.699219 181.429688 84.378906 C 181.242188 84.578125 181.054688 84.773438 180.867188 84.960938 C 179.914062 85.914062 178.867188 86.746094 177.722656 87.453125 C 177.546875 87.558594 177.359375 87.585938 177.164062 87.539062 C 176.964844 87.492188 176.8125 87.378906 176.703125 87.207031 C 176.601562 87.035156 176.570312 86.847656 176.621094 86.648438 C 176.667969 86.453125 176.777344 86.296875 176.953125 86.191406 C 178 85.542969 178.957031 84.78125 179.828125 83.910156 C 180.148438 83.589844 180.46875 83.25 180.808594 82.875 C 181.046875 82.804688 181.277344 82.707031 181.5 82.59375 C 181.710938 82.5 181.917969 82.503906 182.125 82.609375 Z M 168.910156 77.273438 C 169.175781 77.410156 169.308594 77.628906 169.3125 77.925781 C 169.3125 78.226562 169.183594 78.449219 168.921875 78.585938 C 168.824219 78.636719 168.726562 78.6875 168.636719 78.746094 C 167.6875 79.304688 166.96875 80.03125 166.5625 80.835938 C 166.535156 80.886719 166.511719 80.933594 166.488281 80.984375 C 166.335938 81.332031 166.234375 81.691406 166.191406 82.066406 C 166.171875 82.269531 166.082031 82.429688 165.917969 82.558594 C 165.761719 82.6875 165.582031 82.738281 165.378906 82.71875 C 165.175781 82.695312 165.007812 82.605469 164.878906 82.445312 C 164.757812 82.285156 164.699219 82.105469 164.726562 81.902344 C 164.78125 81.371094 164.921875 80.863281 165.140625 80.375 C 165.171875 80.304688 165.207031 80.234375 165.246094 80.164062 C 165.78125 79.109375 166.695312 78.179688 167.882812 77.472656 C 167.996094 77.402344 168.109375 77.339844 168.230469 77.28125 C 168.453125 77.160156 168.679688 77.160156 168.910156 77.273438 Z M 172.667969 87.804688 C 172.820312 87.882812 172.929688 87.996094 173.003906 88.148438 C 173.074219 88.300781 173.09375 88.457031 173.058594 88.621094 C 173.023438 88.789062 172.9375 88.921875 172.808594 89.03125 C 172.679688 89.136719 172.535156 89.195312 172.363281 89.203125 C 171.820312 89.222656 171.28125 89.199219 170.746094 89.117188 C 170.023438 89.003906 169.339844 88.78125 168.6875 88.449219 C 168.058594 88.128906 167.484375 87.726562 166.96875 87.246094 C 166.820312 87.109375 166.738281 86.9375 166.730469 86.734375 C 166.722656 86.535156 166.789062 86.351562 166.929688 86.207031 C 167.066406 86.054688 167.238281 85.976562 167.441406 85.96875 C 167.644531 85.957031 167.820312 86.023438 167.972656 86.164062 C 168.390625 86.550781 168.851562 86.875 169.359375 87.132812 C 169.863281 87.394531 170.398438 87.566406 170.964844 87.65625 C 171.410156 87.722656 171.859375 87.746094 172.308594 87.726562 C 172.433594 87.722656 172.554688 87.75 172.667969 87.808594 Z M 182.25 92.996094 C 182.414062 93.082031 182.535156 93.207031 182.601562 93.378906 C 182.671875 93.558594 182.675781 93.730469 182.609375 93.90625 C 182.363281 94.566406 182.085938 95.207031 181.761719 95.828125 C 181.246094 96.851562 180.640625 97.820312 179.953125 98.738281 C 179.835938 98.90625 179.675781 99.011719 179.46875 99.039062 C 179.265625 99.074219 179.078125 99.03125 178.914062 98.902344 C 178.746094 98.78125 178.648438 98.613281 178.617188 98.410156 C 178.59375 98.207031 178.640625 98.019531 178.769531 97.855469 C 179.402344 97.007812 179.960938 96.105469 180.445312 95.160156 C 180.738281 94.585938 180.996094 93.996094 181.222656 93.394531 C 181.289062 93.203125 181.417969 93.0625 181.605469 92.980469 C 181.792969 92.894531 181.980469 92.882812 182.171875 92.957031 C 182.199219 92.972656 182.222656 92.980469 182.25 92.996094 Z M 176.0625 101.515625 C 176.175781 101.570312 176.265625 101.652344 176.335938 101.75 C 176.40625 101.851562 176.449219 101.960938 176.460938 102.085938 C 176.476562 102.207031 176.460938 102.324219 176.417969 102.441406 C 176.375 102.554688 176.304688 102.652344 176.210938 102.734375 C 174.828125 103.921875 173.34375 104.96875 171.765625 105.882812 C 171.589844 105.988281 171.402344 106.007812 171.203125 105.957031 C 171.007812 105.902344 170.855469 105.789062 170.753906 105.613281 C 170.652344 105.433594 170.628906 105.25 170.679688 105.050781 C 170.730469 104.855469 170.847656 104.707031 171.023438 104.601562 C 172.523438 103.738281 173.929688 102.738281 175.246094 101.613281 C 175.5 101.394531 175.769531 101.363281 176.066406 101.515625 Z M 166.917969 106.835938 C 167.207031 106.980469 167.339844 107.214844 167.324219 107.539062 C 167.300781 107.859375 167.140625 108.074219 166.839844 108.1875 C 165.136719 108.8125 163.398438 109.3125 161.625 109.679688 C 161.425781 109.722656 161.238281 109.6875 161.066406 109.578125 C 160.894531 109.464844 160.789062 109.308594 160.75 109.109375 C 160.703125 108.90625 160.742188 108.722656 160.851562 108.550781 C 160.964844 108.378906 161.121094 108.273438 161.324219 108.234375 C 163.027344 107.878906 164.695312 107.398438 166.328125 106.800781 C 166.53125 106.726562 166.730469 106.738281 166.921875 106.835938 Z M 156.542969 109.042969 C 156.691406 109.117188 156.800781 109.230469 156.871094 109.378906 C 156.945312 109.527344 156.964844 109.679688 156.933594 109.847656 C 156.902344 110.007812 156.820312 110.144531 156.699219 110.253906 C 156.574219 110.367188 156.429688 110.425781 156.265625 110.4375 C 154.46875 110.574219 152.667969 110.617188 150.863281 110.550781 C 150.660156 110.550781 150.484375 110.472656 150.34375 110.320312 C 150.207031 110.171875 150.140625 109.996094 150.148438 109.789062 C 150.148438 109.585938 150.230469 109.414062 150.378906 109.273438 C 150.53125 109.136719 150.710938 109.066406 150.914062 109.074219 C 152.660156 109.140625 154.40625 109.101562 156.148438 108.964844 C 156.289062 108.953125 156.421875 108.980469 156.546875 109.046875 Z M 145.925781 108.707031 C 146.085938 108.789062 146.199219 108.914062 146.269531 109.078125 C 146.339844 109.246094 146.347656 109.417969 146.296875 109.585938 C 146.242188 109.757812 146.140625 109.894531 145.988281 109.988281 C 145.835938 110.089844 145.671875 110.125 145.488281 110.101562 C 143.726562 109.863281 141.945312 109.535156 140.1875 109.128906 C 139.988281 109.085938 139.835938 108.972656 139.726562 108.800781 C 139.621094 108.628906 139.589844 108.441406 139.632812 108.242188 C 139.679688 108.042969 139.792969 107.890625 139.964844 107.78125 C 140.136719 107.675781 140.324219 107.644531 140.523438 107.691406 C 142.234375 108.085938 143.972656 108.40625 145.6875 108.636719 C 145.773438 108.648438 145.851562 108.671875 145.925781 108.707031 Z M 135.554688 106.378906 C 135.722656 106.46875 135.839844 106.601562 135.90625 106.777344 C 135.972656 106.957031 135.972656 107.132812 135.902344 107.308594 C 135.835938 107.488281 135.714844 107.617188 135.542969 107.699219 C 135.375 107.785156 135.195312 107.796875 135.011719 107.746094 C 134.199219 107.511719 133.375 107.265625 132.578125 107.027344 C 131.703125 106.769531 130.800781 106.5 129.910156 106.242188 C 129.710938 106.1875 129.566406 106.066406 129.46875 105.890625 C 129.367188 105.710938 129.347656 105.527344 129.402344 105.328125 C 129.460938 105.132812 129.578125 104.984375 129.757812 104.886719 C 129.9375 104.789062 130.125 104.765625 130.320312 104.824219 C 131.214844 105.082031 132.121094 105.351562 132.996094 105.613281 C 133.792969 105.851562 134.613281 106.09375 135.421875 106.328125 C 135.46875 106.34375 135.515625 106.359375 135.558594 106.382812 Z M 125.3125 103.519531 C 125.480469 103.605469 125.59375 103.734375 125.664062 103.910156 C 125.730469 104.082031 125.734375 104.257812 125.671875 104.429688 C 125.605469 104.609375 125.492188 104.738281 125.328125 104.824219 C 125.164062 104.917969 124.992188 104.941406 124.808594 104.898438 C 123.109375 104.5 121.390625 104.203125 119.65625 103.996094 C 119.449219 103.972656 119.285156 103.886719 119.160156 103.722656 C 119.03125 103.5625 118.980469 103.382812 119.003906 103.179688 C 119.023438 102.976562 119.117188 102.8125 119.277344 102.683594 C 119.4375 102.558594 119.617188 102.503906 119.820312 102.53125 C 121.609375 102.734375 123.382812 103.046875 125.140625 103.457031 C 125.199219 103.472656 125.257812 103.492188 125.3125 103.519531 Z M 114.761719 102.472656 C 114.90625 102.546875 115.015625 102.660156 115.089844 102.8125 C 115.160156 102.960938 115.183594 103.117188 115.148438 103.28125 C 115.117188 103.445312 115.035156 103.578125 114.910156 103.6875 C 114.785156 103.800781 114.636719 103.859375 114.472656 103.867188 C 112.75 103.976562 111.054688 104.265625 109.390625 104.730469 C 109.195312 104.785156 109.003906 104.765625 108.828125 104.667969 C 108.648438 104.566406 108.53125 104.421875 108.472656 104.222656 C 108.417969 104.023438 108.4375 103.835938 108.542969 103.660156 C 108.640625 103.480469 108.789062 103.363281 108.984375 103.308594 C 110.75 102.816406 112.542969 102.511719 114.378906 102.394531 C 114.511719 102.386719 114.636719 102.410156 114.757812 102.472656 Z M 104.652344 105.464844 C 104.914062 105.59375 105.046875 105.804688 105.058594 106.089844 C 105.066406 106.378906 104.953125 106.597656 104.707031 106.75 C 103.25 107.636719 101.988281 108.742188 100.917969 110.066406 C 100.789062 110.230469 100.625 110.324219 100.417969 110.347656 C 100.210938 110.375 100.03125 110.324219 99.871094 110.191406 C 99.707031 110.0625 99.613281 109.894531 99.59375 109.691406 C 99.574219 109.484375 99.628906 109.304688 99.761719 109.144531 C 100.9375 107.683594 102.332031 106.46875 103.933594 105.488281 C 104.167969 105.347656 104.410156 105.339844 104.652344 105.464844 Z M 104.652344 105.464844 " fill-opacity="1" fill-rule="nonzero"/></g></g></g></g></g><g clip-path="url(#bf283a1778)"><g clip-path="url(#14a608c3d3)"><g clip-path="url(#fbe7c7ccf8)"><g clip-path="url(#fc755d4e4a)"><g clip-path="url(#4f914a3227)"><path fill="#444455" d="M 256.867188 46.007812 C 257.023438 46.089844 257.136719 46.207031 257.207031 46.371094 C 258.574219 49.464844 260.558594 52.097656 263.152344 54.269531 C 263.308594 54.402344 263.398438 54.570312 263.417969 54.773438 C 263.4375 54.976562 263.378906 55.15625 263.25 55.3125 C 263.117188 55.46875 262.953125 55.558594 262.746094 55.574219 C 262.542969 55.59375 262.363281 55.535156 262.210938 55.40625 C 259.699219 53.304688 257.722656 50.789062 256.273438 47.863281 C 254.21875 49.601562 252.089844 51.285156 249.929688 52.875 C 249.761719 52.996094 249.582031 53.039062 249.378906 53.007812 C 249.183594 52.980469 249.019531 52.882812 248.898438 52.71875 C 248.777344 52.554688 248.730469 52.375 248.761719 52.171875 C 248.792969 51.972656 248.886719 51.8125 249.050781 51.691406 C 251.441406 49.921875 253.796875 48.046875 256.050781 46.109375 C 256.238281 45.945312 256.453125 45.894531 256.695312 45.949219 C 256.753906 45.960938 256.8125 45.980469 256.867188 46.007812 Z M 256.867188 46.007812 " fill-opacity="1" fill-rule="nonzero"/></g></g></g></g></g><g clip-path="url(#b7a628b0b5)"><g clip-path="url(#99109e3125)"><g clip-path="url(#1007c7394f)"><path fill="#444455" d="M 171.570312 48.285156 C 171.738281 48.335938 171.867188 48.433594 171.964844 48.578125 C 172.0625 48.722656 172.105469 48.878906 172.097656 49.054688 C 171.980469 50.921875 171.699219 52.765625 171.261719 54.585938 C 171.21875 54.796875 171.105469 54.957031 170.925781 55.070312 C 170.742188 55.183594 170.550781 55.214844 170.34375 55.164062 C 170.136719 55.113281 169.976562 55 169.867188 54.816406 C 169.757812 54.632812 169.730469 54.4375 169.785156 54.234375 C 170.203125 52.5 170.46875 50.742188 170.578125 48.960938 C 170.59375 48.75 170.675781 48.578125 170.835938 48.4375 C 170.992188 48.296875 171.175781 48.234375 171.382812 48.246094 C 171.449219 48.253906 171.511719 48.265625 171.570312 48.285156 Z M 169.042969 58.875 C 169.066406 58.882812 169.085938 58.890625 169.109375 58.898438 C 169.300781 58.980469 169.4375 59.117188 169.515625 59.3125 C 169.59375 59.503906 169.59375 59.699219 169.511719 59.890625 C 168.78125 61.613281 167.917969 63.265625 166.921875 64.84375 C 166.8125 65.023438 166.652344 65.136719 166.449219 65.179688 C 166.242188 65.226562 166.050781 65.195312 165.875 65.082031 C 165.695312 64.972656 165.585938 64.8125 165.539062 64.609375 C 165.492188 64.402344 165.523438 64.210938 165.636719 64.035156 C 166.589844 62.523438 167.417969 60.949219 168.113281 59.304688 C 168.191406 59.125 168.320312 58.992188 168.5 58.910156 C 168.675781 58.828125 168.859375 58.816406 169.046875 58.875 Z M 163.234375 68.089844 C 163.335938 68.125 163.425781 68.175781 163.503906 68.246094 C 163.660156 68.386719 163.746094 68.558594 163.757812 68.769531 C 163.769531 68.976562 163.707031 69.160156 163.566406 69.316406 C 162.324219 70.71875 160.976562 72.003906 159.515625 73.171875 C 159.351562 73.304688 159.164062 73.359375 158.957031 73.335938 C 158.746094 73.3125 158.578125 73.21875 158.445312 73.054688 C 158.316406 72.890625 158.261719 72.703125 158.285156 72.496094 C 158.308594 72.289062 158.402344 72.117188 158.566406 71.988281 C 159.957031 70.871094 161.246094 69.644531 162.429688 68.308594 C 162.652344 68.058594 162.921875 67.988281 163.238281 68.089844 Z M 154.71875 74.871094 C 155.035156 74.972656 155.210938 75.191406 155.242188 75.527344 C 155.269531 75.859375 155.136719 76.105469 154.84375 76.261719 C 154.378906 76.511719 153.90625 76.75 153.4375 76.96875 C 152.238281 77.53125 151.015625 78.019531 149.757812 78.511719 C 149.5625 78.59375 149.367188 78.59375 149.167969 78.511719 C 148.972656 78.425781 148.835938 78.285156 148.757812 78.085938 C 148.679688 77.890625 148.683594 77.691406 148.773438 77.496094 C 148.859375 77.304688 149.003906 77.167969 149.207031 77.097656 C 150.4375 76.613281 151.636719 76.136719 152.789062 75.59375 C 153.238281 75.382812 153.6875 75.160156 154.125 74.921875 C 154.316406 74.820312 154.515625 74.800781 154.722656 74.871094 Z M 136.03125 74.863281 C 136.191406 74.914062 136.347656 74.964844 136.503906 75.019531 C 136.703125 75.085938 136.847656 75.214844 136.941406 75.402344 C 137.035156 75.59375 137.046875 75.785156 136.976562 75.984375 C 136.910156 76.183594 136.78125 76.328125 136.59375 76.421875 C 136.40625 76.515625 136.210938 76.527344 136.011719 76.457031 C 134.324219 75.882812 132.601562 75.46875 130.835938 75.210938 C 130.628906 75.179688 130.464844 75.082031 130.335938 74.914062 C 130.210938 74.746094 130.164062 74.558594 130.195312 74.351562 C 130.222656 74.140625 130.324219 73.976562 130.492188 73.851562 C 130.660156 73.722656 130.847656 73.675781 131.054688 73.707031 C 132.75 73.953125 134.410156 74.335938 136.035156 74.863281 Z M 141.480469 77.242188 C 141.527344 77.257812 141.574219 77.277344 141.617188 77.300781 C 142.496094 77.792969 143.355469 78.332031 144.175781 78.90625 C 144.316406 79.003906 144.453125 79.101562 144.585938 79.199219 C 144.832031 79.242188 145.015625 79.375 145.128906 79.601562 C 145.519531 79.902344 145.890625 80.203125 146.234375 80.503906 C 146.390625 80.640625 146.476562 80.816406 146.492188 81.023438 C 146.507812 81.234375 146.445312 81.417969 146.308594 81.574219 C 146.167969 81.734375 145.996094 81.820312 145.785156 81.835938 C 145.578125 81.847656 145.394531 81.789062 145.234375 81.648438 C 144.941406 81.394531 144.628906 81.132812 144.296875 80.878906 C 143.585938 81.257812 142.902344 81.679688 142.246094 82.144531 C 141.636719 82.582031 141.074219 83.074219 140.558594 83.617188 C 140.417969 83.769531 140.238281 83.851562 140.027344 83.859375 C 139.816406 83.863281 139.632812 83.796875 139.480469 83.648438 C 139.324219 83.503906 139.246094 83.324219 139.242188 83.113281 C 139.238281 82.902344 139.3125 82.71875 139.457031 82.570312 C 140.039062 81.957031 140.675781 81.402344 141.359375 80.910156 C 141.851562 80.558594 142.375 80.222656 142.9375 79.898438 C 142.269531 79.449219 141.578125 79.019531 140.875 78.625 C 140.703125 78.53125 140.585938 78.390625 140.523438 78.207031 C 140.460938 78.019531 140.46875 77.839844 140.546875 77.660156 C 140.625 77.480469 140.753906 77.351562 140.933594 77.269531 C 141.109375 77.191406 141.292969 77.179688 141.480469 77.238281 Z M 125.722656 73.480469 C 125.898438 73.535156 126.035156 73.640625 126.132812 73.796875 C 126.230469 73.953125 126.265625 74.121094 126.242188 74.300781 C 126.21875 74.484375 126.140625 74.636719 126.007812 74.761719 C 125.871094 74.886719 125.714844 74.953125 125.53125 74.960938 C 124.878906 74.996094 124.226562 75.050781 123.585938 75.136719 C 122.472656 75.28125 121.375 75.496094 120.289062 75.78125 C 120.089844 75.828125 119.902344 75.800781 119.726562 75.695312 C 119.550781 75.585938 119.4375 75.4375 119.382812 75.238281 C 119.332031 75.039062 119.355469 74.851562 119.457031 74.671875 C 119.554688 74.492188 119.703125 74.375 119.898438 74.316406 C 121.050781 74.011719 122.214844 73.78125 123.394531 73.628906 C 124.070312 73.542969 124.761719 73.480469 125.449219 73.445312 C 125.546875 73.4375 125.636719 73.449219 125.726562 73.480469 Z M 149.382812 84.585938 C 149.585938 84.648438 149.734375 84.777344 149.828125 84.96875 C 149.847656 85.007812 149.867188 85.046875 149.890625 85.089844 C 150.761719 86.878906 151.097656 88.878906 150.839844 90.722656 C 150.8125 90.929688 150.710938 91.097656 150.546875 91.222656 C 150.378906 91.347656 150.191406 91.398438 149.980469 91.367188 C 149.773438 91.339844 149.605469 91.238281 149.480469 91.074219 C 149.355469 90.90625 149.304688 90.71875 149.335938 90.507812 C 149.550781 88.964844 149.265625 87.277344 148.523438 85.757812 L 148.46875 85.648438 C 148.320312 85.347656 148.351562 85.066406 148.574219 84.8125 C 148.792969 84.554688 149.0625 84.480469 149.382812 84.585938 Z M 115.21875 76.257812 C 115.542969 76.363281 115.71875 76.585938 115.742188 76.921875 C 115.769531 77.261719 115.628906 77.507812 115.324219 77.660156 C 113.734375 78.453125 112.242188 79.402344 110.851562 80.507812 C 110.683594 80.632812 110.5 80.679688 110.292969 80.65625 C 110.089844 80.628906 109.921875 80.535156 109.792969 80.375 C 109.664062 80.210938 109.613281 80.027344 109.632812 79.820312 C 109.65625 79.617188 109.746094 79.445312 109.90625 79.316406 C 111.382812 78.148438 112.964844 77.140625 114.648438 76.300781 C 114.835938 76.207031 115.027344 76.195312 115.222656 76.257812 Z M 137.515625 87.050781 C 137.707031 87.113281 137.855469 87.230469 137.949219 87.410156 C 138.046875 87.585938 138.070312 87.773438 138.015625 87.96875 C 137.628906 89.402344 137.6875 90.757812 138.179688 91.992188 C 138.277344 92.230469 138.390625 92.464844 138.519531 92.6875 C 138.625 92.871094 138.652344 93.0625 138.597656 93.265625 C 138.542969 93.46875 138.425781 93.621094 138.242188 93.726562 C 138.0625 93.832031 137.867188 93.855469 137.667969 93.800781 C 137.464844 93.75 137.308594 93.628906 137.203125 93.449219 C 137.039062 93.160156 136.894531 92.863281 136.773438 92.554688 C 136.164062 91.027344 136.085938 89.304688 136.554688 87.574219 C 136.609375 87.371094 136.726562 87.21875 136.90625 87.113281 C 137.089844 87.007812 137.28125 86.984375 137.484375 87.039062 Z M 147.585938 94.445312 C 147.878906 94.542969 148.050781 94.746094 148.097656 95.054688 C 148.144531 95.363281 148.039062 95.605469 147.785156 95.785156 C 146.355469 96.785156 144.648438 97.265625 142.980469 97.128906 C 142.640625 97.101562 142.304688 97.046875 141.976562 96.972656 C 141.769531 96.925781 141.613281 96.8125 141.5 96.632812 C 141.390625 96.457031 141.359375 96.265625 141.40625 96.058594 C 141.453125 95.855469 141.566406 95.699219 141.742188 95.585938 C 141.921875 95.476562 142.113281 95.445312 142.316406 95.492188 C 142.574219 95.550781 142.835938 95.59375 143.101562 95.617188 C 144.402344 95.722656 145.789062 95.332031 146.914062 94.542969 C 147.121094 94.398438 147.34375 94.367188 147.582031 94.441406 Z M 106.730469 83.023438 C 106.847656 83.0625 106.953125 83.128906 107.039062 83.21875 C 107.128906 83.304688 107.1875 83.410156 107.226562 83.53125 C 107.261719 83.652344 107.265625 83.773438 107.242188 83.894531 C 107.21875 84.019531 107.164062 84.128906 107.085938 84.226562 C 106.785156 84.597656 106.492188 84.984375 106.21875 85.371094 C 105.421875 86.488281 104.726562 87.675781 104.152344 88.6875 C 104.046875 88.871094 103.894531 88.988281 103.691406 89.042969 C 103.492188 89.101562 103.296875 89.078125 103.117188 88.972656 C 102.933594 88.871094 102.8125 88.714844 102.757812 88.515625 C 102.703125 88.3125 102.726562 88.121094 102.832031 87.9375 C 103.421875 86.890625 104.144531 85.664062 104.976562 84.488281 C 105.273438 84.074219 105.585938 83.664062 105.90625 83.269531 C 106.125 83 106.398438 82.917969 106.730469 83.023438 Z M 95.742188 87.664062 C 96.390625 87.871094 97.015625 88.140625 97.617188 88.464844 C 97.804688 88.5625 97.929688 88.710938 97.992188 88.917969 C 98.054688 89.121094 98.035156 89.316406 97.933594 89.5 C 97.832031 89.6875 97.679688 89.8125 97.476562 89.871094 C 97.269531 89.929688 97.074219 89.90625 96.890625 89.800781 C 96.375 89.519531 95.832031 89.289062 95.273438 89.109375 C 94.214844 88.765625 93.125 88.605469 92.011719 88.636719 C 91.804688 88.640625 91.621094 88.574219 91.46875 88.429688 C 91.316406 88.285156 91.238281 88.109375 91.230469 87.898438 C 91.226562 87.6875 91.296875 87.507812 91.441406 87.355469 C 91.582031 87.203125 91.761719 87.125 91.972656 87.117188 C 93.257812 87.082031 94.515625 87.265625 95.742188 87.664062 Z M 101.402344 92.144531 C 101.578125 92.203125 101.714844 92.304688 101.8125 92.460938 C 102.8125 94.03125 103.515625 95.886719 103.835938 97.832031 C 103.875 98.039062 103.832031 98.230469 103.710938 98.402344 C 103.589844 98.578125 103.421875 98.679688 103.214844 98.714844 C 103.003906 98.75 102.8125 98.707031 102.640625 98.582031 C 102.472656 98.457031 102.371094 98.289062 102.335938 98.082031 C 102.105469 96.664062 101.65625 95.324219 100.984375 94.054688 C 100.824219 94.289062 100.667969 94.515625 100.503906 94.734375 C 99.691406 95.855469 98.761719 96.871094 97.710938 97.773438 C 97.550781 97.910156 97.367188 97.96875 97.160156 97.953125 C 96.949219 97.9375 96.777344 97.847656 96.640625 97.6875 C 96.503906 97.527344 96.445312 97.34375 96.460938 97.136719 C 96.480469 96.925781 96.566406 96.753906 96.726562 96.617188 C 97.6875 95.792969 98.535156 94.863281 99.277344 93.839844 C 99.554688 93.460938 99.824219 93.0625 100.109375 92.625 C 100.339844 92.515625 100.558594 92.382812 100.761719 92.226562 C 100.964844 92.101562 101.175781 92.074219 101.402344 92.148438 Z M 87.121094 88.859375 C 87.414062 88.957031 87.585938 89.15625 87.632812 89.457031 C 87.683594 89.761719 87.589844 90.003906 87.34375 90.191406 C 87.253906 90.257812 87.164062 90.324219 87.078125 90.398438 C 86.207031 91.121094 85.597656 91.972656 85.308594 92.855469 C 85.292969 92.914062 85.273438 92.964844 85.261719 93.023438 C 85.15625 93.394531 85.117188 93.777344 85.132812 94.164062 C 85.144531 94.371094 85.078125 94.554688 84.9375 94.710938 C 84.796875 94.867188 84.621094 94.949219 84.410156 94.957031 C 84.203125 94.96875 84.019531 94.902344 83.863281 94.761719 C 83.710938 94.621094 83.625 94.445312 83.617188 94.238281 C 83.589844 93.6875 83.648438 93.148438 83.796875 92.617188 C 83.816406 92.542969 83.839844 92.464844 83.863281 92.386719 C 84.238281 91.226562 85.015625 90.132812 86.109375 89.226562 C 86.214844 89.140625 86.320312 89.054688 86.429688 88.972656 C 86.640625 88.816406 86.871094 88.78125 87.121094 88.863281 Z M 92.640625 98.949219 C 92.804688 99.003906 92.933594 99.101562 93.03125 99.242188 C 93.128906 99.386719 93.175781 99.542969 93.164062 99.714844 C 93.15625 99.886719 93.09375 100.039062 92.980469 100.171875 C 92.867188 100.300781 92.722656 100.382812 92.554688 100.417969 C 92.007812 100.527344 91.453125 100.585938 90.898438 100.589844 C 90.144531 100.59375 89.414062 100.480469 88.699219 100.246094 C 88.007812 100.019531 87.363281 99.707031 86.757812 99.304688 C 86.585938 99.1875 86.476562 99.027344 86.4375 98.820312 C 86.394531 98.613281 86.433594 98.425781 86.546875 98.25 C 86.664062 98.074219 86.824219 97.96875 87.03125 97.925781 C 87.238281 97.886719 87.425781 97.921875 87.601562 98.039062 C 88.089844 98.363281 88.609375 98.617188 89.167969 98.800781 C 89.722656 98.984375 90.296875 99.074219 90.882812 99.070312 C 91.34375 99.066406 91.804688 99.019531 92.257812 98.925781 C 92.386719 98.902344 92.511719 98.910156 92.636719 98.953125 Z M 103.207031 102.671875 C 103.390625 102.730469 103.527344 102.84375 103.625 103.007812 C 103.722656 103.175781 103.753906 103.351562 103.71875 103.539062 C 103.578125 104.246094 103.394531 104.941406 103.171875 105.628906 C 102.804688 106.75 102.347656 107.832031 101.800781 108.875 C 101.707031 109.066406 101.558594 109.195312 101.355469 109.261719 C 101.152344 109.328125 100.957031 109.3125 100.769531 109.210938 C 100.582031 109.113281 100.457031 108.960938 100.394531 108.757812 C 100.332031 108.554688 100.351562 108.359375 100.457031 108.171875 C 100.960938 107.203125 101.386719 106.199219 101.726562 105.160156 C 101.929688 104.53125 102.09375 103.894531 102.226562 103.242188 C 102.265625 103.039062 102.375 102.875 102.550781 102.761719 C 102.722656 102.644531 102.914062 102.605469 103.121094 102.648438 C 103.148438 102.652344 103.179688 102.664062 103.207031 102.671875 Z M 98.296875 112.324219 C 98.417969 112.363281 98.523438 112.425781 98.613281 112.519531 C 98.699219 112.609375 98.761719 112.714844 98.796875 112.839844 C 98.832031 112.960938 98.835938 113.082031 98.808594 113.207031 C 98.78125 113.332031 98.726562 113.441406 98.644531 113.539062 C 97.429688 114.96875 96.09375 116.273438 94.636719 117.453125 C 94.476562 117.585938 94.289062 117.640625 94.082031 117.621094 C 93.871094 117.597656 93.699219 117.507812 93.566406 117.34375 C 93.433594 117.179688 93.378906 116.996094 93.402344 116.785156 C 93.421875 116.578125 93.515625 116.40625 93.679688 116.273438 C 95.0625 115.152344 96.328125 113.910156 97.484375 112.554688 C 97.703125 112.292969 97.976562 112.214844 98.300781 112.324219 Z M 89.871094 119.203125 C 90.183594 119.304688 90.359375 119.519531 90.394531 119.851562 C 90.425781 120.179688 90.296875 120.425781 90.007812 120.589844 C 88.382812 121.5 86.695312 122.285156 84.953125 122.945312 C 84.757812 123.023438 84.5625 123.015625 84.371094 122.929688 C 84.179688 122.84375 84.046875 122.703125 83.96875 122.507812 C 83.894531 122.3125 83.902344 122.117188 83.988281 121.925781 C 84.074219 121.734375 84.214844 121.601562 84.410156 121.527344 C 86.085938 120.890625 87.703125 120.136719 89.265625 119.261719 C 89.460938 119.152344 89.664062 119.132812 89.875 119.203125 Z M 79.6875 123.121094 C 79.851562 123.171875 79.980469 123.269531 80.078125 123.40625 C 80.175781 123.546875 80.222656 123.703125 80.214844 123.871094 C 80.207031 124.042969 80.152344 124.195312 80.042969 124.324219 C 79.933594 124.457031 79.796875 124.542969 79.632812 124.582031 C 77.828125 125.011719 76.007812 125.34375 74.167969 125.570312 C 73.957031 125.597656 73.769531 125.546875 73.601562 125.417969 C 73.433594 125.289062 73.339844 125.121094 73.3125 124.910156 C 73.285156 124.703125 73.339844 124.515625 73.46875 124.347656 C 73.597656 124.183594 73.769531 124.085938 73.976562 124.0625 C 75.761719 123.84375 77.527344 123.523438 79.277344 123.105469 C 79.417969 123.070312 79.554688 123.078125 79.691406 123.121094 Z M 68.851562 124.496094 C 69.027344 124.550781 69.164062 124.660156 69.261719 124.816406 C 69.359375 124.972656 69.394531 125.144531 69.367188 125.328125 C 69.34375 125.511719 69.261719 125.664062 69.121094 125.785156 C 68.980469 125.910156 68.820312 125.972656 68.636719 125.976562 C 66.808594 126.019531 64.945312 125.976562 63.09375 125.847656 C 62.886719 125.832031 62.710938 125.746094 62.574219 125.585938 C 62.4375 125.429688 62.375 125.246094 62.390625 125.035156 C 62.40625 124.828125 62.492188 124.652344 62.648438 124.515625 C 62.808594 124.378906 62.992188 124.316406 63.203125 124.332031 C 65.003906 124.457031 66.816406 124.5 68.597656 124.457031 C 68.683594 124.457031 68.769531 124.46875 68.855469 124.496094 Z M 57.941406 123.804688 C 58.128906 123.863281 58.269531 123.980469 58.367188 124.148438 C 58.464844 124.320312 58.488281 124.5 58.449219 124.691406 C 58.40625 124.882812 58.304688 125.035156 58.144531 125.148438 C 57.984375 125.257812 57.808594 125.304688 57.613281 125.28125 C 56.75 125.171875 55.871094 125.054688 55.023438 124.945312 C 54.09375 124.820312 53.132812 124.695312 52.1875 124.574219 C 51.980469 124.550781 51.8125 124.453125 51.683594 124.289062 C 51.554688 124.121094 51.503906 123.9375 51.527344 123.726562 C 51.554688 123.519531 51.652344 123.351562 51.816406 123.222656 C 51.980469 123.09375 52.167969 123.042969 52.375 123.066406 C 53.328125 123.1875 54.289062 123.3125 55.222656 123.4375 C 56.070312 123.546875 56.945312 123.664062 57.804688 123.773438 C 57.851562 123.777344 57.898438 123.789062 57.945312 123.804688 Z M 47.078125 122.550781 C 47.261719 122.613281 47.402344 122.722656 47.5 122.890625 C 47.597656 123.054688 47.625 123.230469 47.589844 123.417969 C 47.554688 123.609375 47.460938 123.761719 47.308594 123.878906 C 47.15625 123.996094 46.984375 124.046875 46.792969 124.035156 C 45 123.902344 43.207031 123.875 41.410156 123.949219 C 41.203125 123.960938 41.019531 123.894531 40.863281 123.753906 C 40.710938 123.609375 40.625 123.433594 40.617188 123.226562 C 40.609375 123.015625 40.671875 122.832031 40.816406 122.679688 C 40.957031 122.523438 41.132812 122.441406 41.339844 122.433594 C 43.195312 122.355469 45.046875 122.382812 46.894531 122.515625 C 46.957031 122.519531 47.019531 122.53125 47.078125 122.550781 Z M 36.195312 123.191406 C 36.355469 123.246094 36.488281 123.339844 36.585938 123.480469 C 36.683594 123.621094 36.726562 123.777344 36.71875 123.949219 C 36.710938 124.117188 36.652344 124.269531 36.542969 124.402344 C 36.433594 124.53125 36.296875 124.617188 36.128906 124.65625 C 34.394531 125.042969 32.722656 125.609375 31.105469 126.351562 C 30.914062 126.441406 30.722656 126.449219 30.523438 126.378906 C 30.324219 126.304688 30.183594 126.175781 30.09375 125.984375 C 30.003906 125.792969 29.996094 125.597656 30.070312 125.402344 C 30.140625 125.203125 30.273438 125.058594 30.464844 124.972656 C 32.175781 124.183594 33.953125 123.585938 35.792969 123.175781 C 35.925781 123.144531 36.058594 123.148438 36.191406 123.191406 Z M 26.414062 127.859375 C 26.695312 127.953125 26.867188 128.144531 26.925781 128.433594 C 26.984375 128.722656 26.898438 128.964844 26.675781 129.160156 C 25.339844 130.292969 24.234375 131.621094 23.359375 133.140625 C 23.257812 133.324219 23.105469 133.449219 22.902344 133.507812 C 22.695312 133.5625 22.5 133.539062 22.316406 133.433594 C 22.132812 133.332031 22.011719 133.175781 21.957031 132.96875 C 21.90625 132.765625 21.929688 132.570312 22.039062 132.386719 C 23 130.714844 24.21875 129.253906 25.6875 128.003906 C 25.902344 127.820312 26.144531 127.773438 26.414062 127.859375 Z M 26.414062 127.859375 " fill-opacity="1" fill-rule="nonzero"/></g></g></g></svg>