<svg xmlns="http://www.w3.org/2000/svg" xmlns:xlink="http://www.w3.org/1999/xlink" width="200" zoomAndPan="magnify" viewBox="0 0 150 149.999998" height="200" preserveAspectRatio="xMidYMid meet" version="1.0"><defs><clipPath id="e08cb0ba9e"><path d="M 7.492188 20 L 129 20 L 129 149.996094 L 7.492188 149.996094 Z M 7.492188 20 " clip-rule="nonzero"/></clipPath><clipPath id="c3f806a207"><path d="M 119 15.746094 L 134.992188 15.746094 L 134.992188 26 L 119 26 Z M 119 15.746094 " clip-rule="nonzero"/></clipPath></defs><g clip-path="url(#e08cb0ba9e)"><path fill="#445" d="M 126.375 20.683594 C 126.550781 20.683594 126.710938 20.738281 126.851562 20.847656 C 126.988281 20.957031 127.082031 21.09375 127.125 21.265625 C 127.597656 23.113281 127.90625 24.988281 128.050781 26.890625 C 128.070312 27.105469 128.011719 27.296875 127.871094 27.460938 C 127.734375 27.628906 127.554688 27.71875 127.339844 27.734375 C 127.125 27.753906 126.933594 27.691406 126.769531 27.546875 C 126.609375 27.40625 126.519531 27.226562 126.507812 27.007812 C 126.367188 25.195312 126.074219 23.410156 125.625 21.652344 C 125.574219 21.445312 125.601562 21.25 125.710938 21.0625 C 125.816406 20.878906 125.976562 20.761719 126.183594 20.707031 C 126.246094 20.691406 126.308594 20.683594 126.375 20.683594 Z M 127.242188 31.738281 C 127.265625 31.738281 127.289062 31.738281 127.3125 31.738281 C 127.523438 31.757812 127.699219 31.851562 127.835938 32.011719 C 127.972656 32.175781 128.03125 32.367188 128.015625 32.578125 C 127.847656 34.472656 127.527344 36.34375 127.058594 38.1875 C 127.003906 38.394531 126.886719 38.554688 126.703125 38.660156 C 126.519531 38.769531 126.324219 38.800781 126.117188 38.746094 C 125.910156 38.695312 125.75 38.574219 125.640625 38.390625 C 125.53125 38.207031 125.503906 38.011719 125.558594 37.804688 C 126.007812 36.042969 126.316406 34.257812 126.476562 32.445312 C 126.496094 32.246094 126.578125 32.078125 126.726562 31.941406 C 126.871094 31.804688 127.046875 31.738281 127.246094 31.738281 Z M 124.5 42.488281 C 124.605469 42.488281 124.710938 42.511719 124.808594 42.554688 C 125.003906 42.640625 125.140625 42.78125 125.21875 42.980469 C 125.296875 43.179688 125.292969 43.375 125.207031 43.574219 C 124.441406 45.316406 123.535156 46.984375 122.488281 48.578125 C 122.367188 48.753906 122.207031 48.867188 121.996094 48.910156 C 121.785156 48.953125 121.59375 48.914062 121.414062 48.796875 C 121.234375 48.679688 121.125 48.515625 121.082031 48.304688 C 121.039062 48.097656 121.078125 47.902344 121.195312 47.722656 C 122.195312 46.207031 123.0625 44.617188 123.789062 42.949219 C 123.925781 42.640625 124.164062 42.484375 124.503906 42.488281 Z M 118.371094 51.722656 C 118.710938 51.722656 118.949219 51.878906 119.082031 52.195312 C 119.214844 52.507812 119.164062 52.789062 118.929688 53.035156 C 118.554688 53.417969 118.175781 53.796875 117.785156 54.160156 C 116.800781 55.078125 115.769531 55.933594 114.707031 56.804688 C 114.542969 56.945312 114.351562 57.007812 114.132812 56.988281 C 113.917969 56.96875 113.742188 56.875 113.601562 56.707031 C 113.464844 56.539062 113.410156 56.347656 113.433594 56.128906 C 113.457031 55.914062 113.554688 55.738281 113.726562 55.605469 C 114.765625 54.753906 115.78125 53.914062 116.730469 53.027344 C 117.097656 52.683594 117.460938 52.324219 117.8125 51.960938 C 117.964844 51.800781 118.152344 51.722656 118.375 51.722656 Z M 100.261719 57.566406 C 100.433594 57.566406 100.601562 57.566406 100.769531 57.570312 C 100.980469 57.574219 101.164062 57.652344 101.3125 57.804688 C 101.460938 57.960938 101.535156 58.144531 101.53125 58.355469 C 101.527344 58.570312 101.449219 58.753906 101.296875 58.902344 C 101.140625 59.050781 100.957031 59.121094 100.742188 59.117188 C 98.929688 59.089844 97.128906 59.226562 95.339844 59.53125 C 95.128906 59.566406 94.933594 59.523438 94.761719 59.398438 C 94.585938 59.277344 94.480469 59.109375 94.445312 58.898438 C 94.410156 58.6875 94.453125 58.496094 94.578125 58.320312 C 94.699219 58.144531 94.867188 58.039062 95.078125 58.003906 C 96.796875 57.710938 98.523438 57.566406 100.265625 57.566406 Z M 106.285156 58.164062 C 106.339844 58.164062 106.390625 58.171875 106.4375 58.179688 C 107.445312 58.382812 108.445312 58.636719 109.421875 58.933594 C 109.585938 58.984375 109.746094 59.035156 109.90625 59.089844 C 110.164062 59.054688 110.378906 59.128906 110.5625 59.3125 C 111.03125 59.476562 111.484375 59.652344 111.914062 59.835938 C 112.109375 59.921875 112.246094 60.0625 112.328125 60.261719 C 112.40625 60.460938 112.40625 60.65625 112.320312 60.851562 C 112.238281 61.050781 112.09375 61.1875 111.898438 61.269531 C 111.699219 61.347656 111.5 61.34375 111.304688 61.261719 C 110.941406 61.105469 110.554688 60.953125 110.15625 60.808594 C 109.582031 61.398438 109.054688 62.019531 108.5625 62.679688 C 108.109375 63.292969 107.71875 63.941406 107.390625 64.628906 C 107.300781 64.824219 107.152344 64.960938 106.949219 65.03125 C 106.746094 65.105469 106.546875 65.09375 106.355469 65 C 106.160156 64.90625 106.027344 64.757812 105.957031 64.554688 C 105.886719 64.351562 105.898438 64.152344 105.996094 63.960938 C 106.367188 63.183594 106.808594 62.449219 107.320312 61.757812 C 107.683594 61.261719 108.085938 60.773438 108.53125 60.285156 C 107.742188 60.054688 106.9375 59.859375 106.132812 59.699219 C 105.9375 59.660156 105.78125 59.558594 105.664062 59.398438 C 105.542969 59.238281 105.496094 59.058594 105.515625 58.863281 C 105.535156 58.664062 105.617188 58.5 105.765625 58.363281 C 105.914062 58.230469 106.085938 58.164062 106.285156 58.164062 Z M 89.84375 59.453125 C 90.027344 59.453125 90.191406 59.515625 90.335938 59.632812 C 90.480469 59.753906 90.570312 59.90625 90.601562 60.089844 C 90.636719 60.273438 90.605469 60.445312 90.515625 60.605469 C 90.425781 60.769531 90.292969 60.882812 90.117188 60.953125 C 89.5 61.1875 88.882812 61.445312 88.289062 61.726562 C 87.257812 62.214844 86.257812 62.769531 85.296875 63.386719 C 85.117188 63.496094 84.925781 63.523438 84.722656 63.476562 C 84.519531 63.429688 84.363281 63.320312 84.25 63.144531 C 84.136719 62.96875 84.101562 62.777344 84.140625 62.574219 C 84.183594 62.367188 84.289062 62.207031 84.460938 62.085938 C 85.476562 61.433594 86.535156 60.847656 87.632812 60.328125 C 88.261719 60.035156 88.910156 59.757812 89.566406 59.507812 C 89.65625 59.472656 89.75 59.453125 89.84375 59.453125 Z M 116.242188 62.804688 C 116.460938 62.804688 116.644531 62.882812 116.796875 63.035156 C 116.828125 63.070312 116.855469 63.101562 116.890625 63.136719 C 118.296875 64.597656 119.25 66.429688 119.578125 68.296875 C 119.613281 68.507812 119.570312 68.699219 119.449219 68.875 C 119.324219 69.046875 119.15625 69.152344 118.949219 69.191406 C 118.738281 69.226562 118.542969 69.183594 118.371094 69.0625 C 118.195312 68.9375 118.089844 68.773438 118.050781 68.5625 C 117.777344 66.996094 116.972656 65.453125 115.777344 64.210938 L 115.691406 64.121094 C 115.449219 63.878906 115.394531 63.597656 115.527344 63.28125 C 115.660156 62.964844 115.898438 62.804688 116.242188 62.804688 Z M 80.535156 65.433594 C 80.878906 65.433594 81.117188 65.59375 81.25 65.917969 C 81.378906 66.238281 81.324219 66.519531 81.074219 66.761719 C 79.785156 68.027344 78.632812 69.414062 77.628906 70.921875 C 77.507812 71.09375 77.34375 71.199219 77.140625 71.238281 C 76.933594 71.277344 76.742188 71.238281 76.566406 71.121094 C 76.390625 71.003906 76.28125 70.84375 76.238281 70.636719 C 76.195312 70.429688 76.230469 70.238281 76.34375 70.0625 C 77.40625 68.46875 78.625 67 79.996094 65.65625 C 80.144531 65.507812 80.324219 65.433594 80.539062 65.433594 Z M 105.515625 68.910156 C 105.722656 68.910156 105.902344 68.980469 106.050781 69.125 C 106.199219 69.265625 106.277344 69.441406 106.289062 69.644531 C 106.363281 71.15625 106.839844 72.449219 107.707031 73.488281 C 107.875 73.691406 108.058594 73.882812 108.253906 74.058594 C 108.414062 74.203125 108.5 74.378906 108.507812 74.59375 C 108.519531 74.808594 108.453125 74.992188 108.3125 75.152344 C 108.167969 75.3125 107.988281 75.394531 107.777344 75.40625 C 107.5625 75.417969 107.378906 75.351562 107.21875 75.207031 C 106.96875 74.980469 106.738281 74.738281 106.523438 74.476562 C 105.453125 73.191406 104.839844 71.542969 104.746094 69.71875 C 104.738281 69.503906 104.804688 69.320312 104.945312 69.160156 C 105.089844 69.003906 105.269531 68.917969 105.480469 68.910156 Z M 117.585938 72.921875 C 117.90625 72.925781 118.136719 73.066406 118.277344 73.351562 C 118.417969 73.636719 118.394531 73.90625 118.203125 74.160156 C 117.132812 75.578125 115.625 76.574219 113.964844 76.964844 C 113.628906 77.042969 113.289062 77.097656 112.945312 77.128906 C 112.730469 77.144531 112.542969 77.085938 112.378906 76.949219 C 112.214844 76.8125 112.125 76.636719 112.105469 76.421875 C 112.089844 76.210938 112.148438 76.023438 112.285156 75.859375 C 112.425781 75.695312 112.597656 75.605469 112.8125 75.585938 C 113.082031 75.5625 113.347656 75.523438 113.609375 75.460938 C 114.902344 75.15625 116.125 74.34375 116.96875 73.230469 C 117.125 73.023438 117.328125 72.921875 117.585938 72.921875 Z M 74.425781 74.652344 C 74.554688 74.652344 74.675781 74.679688 74.785156 74.738281 C 74.898438 74.800781 74.992188 74.882812 75.066406 74.988281 C 75.136719 75.09375 75.179688 75.207031 75.195312 75.335938 C 75.210938 75.460938 75.195312 75.585938 75.148438 75.703125 C 74.972656 76.15625 74.808594 76.621094 74.664062 77.085938 C 74.242188 78.417969 73.941406 79.785156 73.703125 80.945312 C 73.660156 81.152344 73.546875 81.316406 73.371094 81.433594 C 73.191406 81.550781 72.996094 81.589844 72.789062 81.546875 C 72.578125 81.503906 72.414062 81.390625 72.296875 81.210938 C 72.179688 81.035156 72.144531 80.839844 72.1875 80.632812 C 72.433594 79.433594 72.746094 78.019531 73.1875 76.617188 C 73.34375 76.125 73.515625 75.628906 73.703125 75.144531 C 73.832031 74.816406 74.070312 74.648438 74.425781 74.648438 Z M 65.230469 82.585938 C 65.925781 82.585938 66.617188 82.648438 67.300781 82.773438 C 67.511719 82.8125 67.683594 82.917969 67.804688 83.09375 C 67.929688 83.273438 67.972656 83.46875 67.933594 83.679688 C 67.894531 83.894531 67.78125 84.058594 67.601562 84.179688 C 67.421875 84.300781 67.226562 84.339844 67.015625 84.296875 C 66.425781 84.1875 65.832031 84.132812 65.230469 84.132812 C 64.097656 84.128906 62.992188 84.320312 61.921875 84.695312 C 61.722656 84.769531 61.523438 84.757812 61.332031 84.664062 C 61.140625 84.574219 61.007812 84.425781 60.9375 84.226562 C 60.863281 84.023438 60.875 83.828125 60.96875 83.632812 C 61.058594 83.441406 61.207031 83.308594 61.40625 83.238281 C 62.644531 82.800781 63.917969 82.582031 65.230469 82.585938 Z M 72.121094 85.15625 C 72.308594 85.15625 72.472656 85.214844 72.617188 85.332031 C 74.078125 86.542969 75.339844 88.117188 76.257812 89.902344 C 76.359375 90.09375 76.378906 90.289062 76.316406 90.496094 C 76.253906 90.703125 76.125 90.855469 75.933594 90.957031 C 75.742188 91.054688 75.542969 91.070312 75.335938 91.003906 C 75.132812 90.9375 74.980469 90.808594 74.886719 90.613281 C 74.214844 89.316406 73.359375 88.15625 72.3125 87.136719 C 72.230469 87.414062 72.148438 87.683594 72.0625 87.945312 C 71.625 89.289062 71.042969 90.5625 70.308594 91.765625 C 70.195312 91.949219 70.035156 92.0625 69.828125 92.113281 C 69.621094 92.160156 69.425781 92.128906 69.242188 92.019531 C 69.0625 91.90625 68.945312 91.746094 68.898438 91.539062 C 68.847656 91.332031 68.878906 91.136719 68.992188 90.953125 C 69.660156 89.851562 70.195312 88.6875 70.59375 87.460938 C 70.742188 87.007812 70.878906 86.539062 71.015625 86.027344 C 71.207031 85.847656 71.375 85.648438 71.527344 85.4375 C 71.683594 85.25 71.878906 85.15625 72.121094 85.15625 Z M 57.253906 86.445312 C 57.566406 86.445312 57.792969 86.585938 57.9375 86.863281 C 58.082031 87.140625 58.066406 87.410156 57.886719 87.664062 C 57.820312 87.757812 57.753906 87.851562 57.695312 87.949219 C 57.074219 88.921875 56.75 89.9375 56.75 90.882812 C 56.75 90.945312 56.75 91 56.753906 91.058594 C 56.773438 91.453125 56.851562 91.835938 56.988281 92.207031 C 57.066406 92.40625 57.058594 92.601562 56.96875 92.796875 C 56.882812 92.992188 56.738281 93.125 56.539062 93.203125 C 56.339844 93.277344 56.140625 93.273438 55.945312 93.183594 C 55.753906 93.09375 55.617188 92.953125 55.542969 92.75 C 55.34375 92.226562 55.234375 91.6875 55.207031 91.128906 C 55.203125 91.046875 55.203125 90.964844 55.203125 90.878906 C 55.203125 89.640625 55.613281 88.339844 56.386719 87.117188 C 56.460938 87 56.539062 86.886719 56.621094 86.773438 C 56.773438 86.554688 56.984375 86.445312 57.253906 86.445312 Z M 65.757812 94.492188 C 65.9375 94.492188 66.09375 94.546875 66.234375 94.652344 C 66.371094 94.761719 66.464844 94.898438 66.507812 95.070312 C 66.554688 95.242188 66.539062 95.40625 66.472656 95.570312 C 66.402344 95.730469 66.292969 95.855469 66.136719 95.941406 C 65.640625 96.21875 65.125 96.449219 64.585938 96.628906 C 63.859375 96.867188 63.113281 96.984375 62.347656 96.980469 C 61.609375 96.980469 60.882812 96.878906 60.171875 96.675781 C 59.96875 96.617188 59.8125 96.496094 59.707031 96.308594 C 59.605469 96.125 59.582031 95.925781 59.640625 95.722656 C 59.699219 95.515625 59.820312 95.363281 60.007812 95.257812 C 60.191406 95.152344 60.386719 95.128906 60.59375 95.1875 C 61.167969 95.351562 61.753906 95.433594 62.347656 95.433594 C 62.945312 95.4375 63.527344 95.347656 64.097656 95.160156 C 64.542969 95.011719 64.972656 94.820312 65.382812 94.589844 C 65.5 94.527344 65.625 94.496094 65.757812 94.496094 Z M 77.164062 94.792969 C 77.359375 94.792969 77.53125 94.855469 77.675781 94.984375 C 77.824219 95.117188 77.910156 95.277344 77.933594 95.472656 C 78.015625 96.203125 78.058594 96.933594 78.054688 97.667969 C 78.054688 98.867188 77.949219 100.058594 77.746094 101.242188 C 77.714844 101.457031 77.613281 101.628906 77.4375 101.753906 C 77.261719 101.882812 77.066406 101.929688 76.851562 101.890625 C 76.636719 101.855469 76.46875 101.746094 76.34375 101.570312 C 76.222656 101.390625 76.179688 101.195312 76.222656 100.980469 C 76.410156 99.886719 76.503906 98.78125 76.507812 97.667969 C 76.507812 96.992188 76.46875 96.320312 76.394531 95.652344 C 76.367188 95.441406 76.421875 95.25 76.554688 95.082031 C 76.6875 94.914062 76.859375 94.816406 77.074219 94.792969 C 77.105469 94.792969 77.132812 94.789062 77.164062 94.792969 Z M 75.429688 105.679688 C 75.5625 105.679688 75.683594 105.710938 75.796875 105.769531 C 75.910156 105.832031 76.003906 105.914062 76.074219 106.023438 C 76.144531 106.128906 76.1875 106.246094 76.203125 106.375 C 76.214844 106.503906 76.195312 106.628906 76.148438 106.746094 C 75.417969 108.511719 74.53125 110.195312 73.492188 111.796875 C 73.375 111.976562 73.210938 112.085938 73.003906 112.132812 C 72.792969 112.175781 72.597656 112.140625 72.417969 112.023438 C 72.238281 111.90625 72.128906 111.746094 72.082031 111.535156 C 72.039062 111.328125 72.074219 111.132812 72.191406 110.953125 C 73.179688 109.433594 74.019531 107.835938 74.714844 106.160156 C 74.847656 105.835938 75.085938 105.675781 75.433594 105.679688 Z M 69.417969 114.984375 C 69.757812 114.984375 69.992188 115.140625 70.128906 115.449219 C 70.261719 115.757812 70.214844 116.035156 69.988281 116.285156 C 68.695312 117.675781 67.308594 118.964844 65.828125 120.152344 C 65.660156 120.285156 65.46875 120.34375 65.257812 120.320312 C 65.042969 120.296875 64.871094 120.199219 64.738281 120.035156 C 64.601562 119.867188 64.546875 119.675781 64.570312 119.464844 C 64.59375 119.25 64.691406 119.078125 64.859375 118.945312 C 66.28125 117.804688 67.609375 116.566406 68.851562 115.230469 C 69.003906 115.066406 69.195312 114.984375 69.421875 114.984375 Z M 60.78125 121.96875 C 60.953125 121.96875 61.109375 122.019531 61.246094 122.125 C 61.386719 122.230469 61.476562 122.363281 61.527344 122.53125 C 61.574219 122.699219 61.5625 122.863281 61.5 123.023438 C 61.4375 123.1875 61.332031 123.3125 61.183594 123.402344 C 59.570312 124.382812 57.910156 125.273438 56.195312 126.070312 C 56.003906 126.164062 55.804688 126.175781 55.601562 126.101562 C 55.402344 126.027344 55.253906 125.894531 55.164062 125.699219 C 55.070312 125.507812 55.0625 125.308594 55.136719 125.105469 C 55.210938 124.90625 55.347656 124.757812 55.542969 124.667969 C 57.203125 123.898438 58.8125 123.035156 60.375 122.082031 C 60.5 122.003906 60.636719 121.96875 60.785156 121.96875 Z M 50.710938 126.691406 C 50.898438 126.691406 51.0625 126.753906 51.207031 126.875 C 51.351562 126.996094 51.441406 127.152344 51.472656 127.335938 C 51.503906 127.523438 51.472656 127.699219 51.375 127.859375 C 51.28125 128.023438 51.144531 128.136719 50.964844 128.199219 C 49.207031 128.8125 47.386719 129.351562 45.554688 129.808594 C 45.347656 129.859375 45.152344 129.828125 44.96875 129.71875 C 44.789062 129.609375 44.671875 129.449219 44.617188 129.242188 C 44.566406 129.035156 44.597656 128.839844 44.707031 128.65625 C 44.816406 128.472656 44.976562 128.355469 45.183594 128.304688 C 46.96875 127.863281 48.742188 127.335938 50.453125 126.738281 C 50.539062 126.707031 50.625 126.691406 50.710938 126.691406 Z M 39.925781 129.4375 C 40.125 129.441406 40.296875 129.507812 40.441406 129.640625 C 40.589844 129.777344 40.671875 129.941406 40.691406 130.140625 C 40.710938 130.339844 40.660156 130.519531 40.539062 130.675781 C 40.421875 130.835938 40.261719 130.933594 40.066406 130.972656 C 39.195312 131.140625 38.308594 131.300781 37.453125 131.457031 C 36.511719 131.628906 35.542969 131.808594 34.589844 131.988281 C 34.378906 132.03125 34.1875 131.988281 34.011719 131.871094 C 33.832031 131.75 33.726562 131.585938 33.683594 131.375 C 33.644531 131.164062 33.683594 130.972656 33.804688 130.792969 C 33.925781 130.617188 34.089844 130.507812 34.300781 130.46875 C 35.257812 130.285156 36.230469 130.109375 37.171875 129.9375 C 38.027344 129.78125 38.910156 129.617188 39.777344 129.453125 C 39.828125 129.445312 39.878906 129.4375 39.929688 129.4375 Z M 29.007812 131.628906 C 29.203125 131.628906 29.371094 131.695312 29.519531 131.824219 C 29.664062 131.953125 29.75 132.117188 29.773438 132.308594 C 29.796875 132.503906 29.753906 132.679688 29.640625 132.839844 C 29.53125 133.003906 29.382812 133.105469 29.191406 133.152344 C 27.414062 133.589844 25.667969 134.125 23.953125 134.757812 C 23.75 134.832031 23.554688 134.828125 23.359375 134.738281 C 23.164062 134.648438 23.03125 134.503906 22.957031 134.304688 C 22.878906 134.105469 22.886719 133.90625 22.976562 133.710938 C 23.066406 133.519531 23.207031 133.382812 23.410156 133.308594 C 25.179688 132.652344 26.980469 132.101562 28.816406 131.652344 C 28.878906 131.636719 28.941406 131.628906 29.007812 131.628906 Z M 18.660156 135.65625 C 18.832031 135.65625 18.988281 135.710938 19.128906 135.816406 C 19.265625 135.921875 19.359375 136.058594 19.40625 136.226562 C 19.453125 136.394531 19.441406 136.558594 19.375 136.71875 C 19.3125 136.882812 19.203125 137.007812 19.054688 137.09375 C 17.496094 138.015625 16.050781 139.085938 14.71875 140.3125 C 14.5625 140.457031 14.375 140.527344 14.164062 140.519531 C 13.949219 140.511719 13.769531 140.429688 13.621094 140.273438 C 13.476562 140.113281 13.40625 139.929688 13.417969 139.714844 C 13.425781 139.5 13.507812 139.320312 13.664062 139.175781 C 15.078125 137.878906 16.609375 136.742188 18.265625 135.765625 C 18.386719 135.695312 18.515625 135.65625 18.65625 135.65625 Z M 10.644531 143.242188 C 10.949219 143.242188 11.171875 143.375 11.320312 143.636719 C 11.464844 143.902344 11.460938 144.160156 11.304688 144.417969 C 10.367188 145.9375 9.710938 147.566406 9.339844 149.3125 C 9.296875 149.527344 9.1875 149.691406 9.007812 149.8125 C 8.828125 149.933594 8.632812 149.972656 8.421875 149.925781 C 8.207031 149.882812 8.042969 149.769531 7.925781 149.589844 C 7.8125 149.40625 7.777344 149.210938 7.824219 149 C 8.230469 147.078125 8.953125 145.28125 9.984375 143.609375 C 10.136719 143.363281 10.359375 143.242188 10.644531 143.242188 Z M 10.644531 143.242188 " fill-opacity="1" fill-rule="nonzero"/></g><g clip-path="url(#c3f806a207)"><path fill="#445" d="M 124.527344 15.53125 C 124.710938 15.53125 124.875 15.589844 125.015625 15.707031 C 127.761719 17.949219 130.863281 19.464844 134.316406 20.261719 C 134.523438 20.308594 134.6875 20.425781 134.800781 20.605469 C 134.914062 20.785156 134.945312 20.980469 134.898438 21.1875 C 134.851562 21.398438 134.738281 21.558594 134.554688 21.671875 C 134.375 21.785156 134.179688 21.816406 133.972656 21.769531 C 130.632812 21 127.59375 19.589844 124.851562 17.542969 C 123.757812 20.140625 122.570312 22.722656 121.308594 25.234375 C 121.210938 25.425781 121.0625 25.550781 120.859375 25.617188 C 120.660156 25.683594 120.464844 25.671875 120.273438 25.574219 C 120.082031 25.480469 119.953125 25.332031 119.886719 25.128906 C 119.820312 24.929688 119.832031 24.734375 119.925781 24.542969 C 121.320312 21.757812 122.628906 18.890625 123.8125 16.011719 C 123.910156 15.769531 124.085938 15.621094 124.339844 15.554688 C 124.398438 15.539062 124.464844 15.53125 124.527344 15.53125 Z M 124.527344 15.53125 " fill-opacity="1" fill-rule="nonzero"/></g></svg>