<svg xmlns="http://www.w3.org/2000/svg" xmlns:xlink="http://www.w3.org/1999/xlink" width="500" zoomAndPan="magnify" viewBox="0 0 375 149.999998" height="200" preserveAspectRatio="xMidYMid meet" version="1.0"><defs><g/></defs><g fill="#000000" fill-opacity="1"><g transform="translate(13.482664, 94.15149)"><g><path d="M 22.9375 -59.71875 C 26.007812 -59.71875 28.6875 -59.347656 30.96875 -58.609375 C 33.25 -57.867188 35.21875 -56.84375 36.875 -55.53125 C 36.414062 -54.382812 35.957031 -53.082031 35.5 -51.625 C 35.050781 -50.175781 34.597656 -48.65625 34.140625 -47.0625 L 32.859375 -47.0625 C 31.035156 -51.96875 27.582031 -54.421875 22.5 -54.421875 C 21.25 -54.421875 20.082031 -54.21875 19 -53.8125 C 17.914062 -53.414062 16.972656 -52.859375 16.171875 -52.140625 C 15.367188 -51.429688 14.738281 -50.601562 14.28125 -49.65625 C 13.832031 -48.71875 13.609375 -47.738281 13.609375 -46.71875 C 13.609375 -44.4375 14.40625 -42.539062 16 -41.03125 C 17.59375 -39.519531 19.960938 -38.019531 23.109375 -36.53125 C 26.867188 -34.757812 29.789062 -33.175781 31.875 -31.78125 C 33.957031 -30.382812 35.507812 -28.972656 36.53125 -27.546875 C 38.582031 -24.691406 39.609375 -21.441406 39.609375 -17.796875 C 39.609375 -14.941406 39.066406 -12.332031 37.984375 -9.96875 C 36.898438 -7.601562 35.375 -5.5625 33.40625 -3.84375 C 31.4375 -2.132812 29.054688 -0.8125 26.265625 0.125 C 23.472656 1.070312 20.363281 1.546875 16.9375 1.546875 C 14.3125 1.546875 11.742188 1.226562 9.234375 0.59375 C 6.722656 -0.03125 4.703125 -0.941406 3.171875 -2.140625 C 3.847656 -4.421875 4.398438 -6.554688 4.828125 -8.546875 C 5.253906 -10.546875 5.523438 -12.03125 5.640625 -13 L 7.265625 -13 C 7.953125 -9.925781 9.320312 -7.617188 11.375 -6.078125 C 13.425781 -4.535156 15.992188 -3.765625 19.078125 -3.765625 C 22.328125 -3.765625 24.804688 -4.578125 26.515625 -6.203125 C 28.234375 -7.828125 29.09375 -9.921875 29.09375 -12.484375 C 29.09375 -14.660156 28.378906 -16.53125 26.953125 -18.09375 C 25.523438 -19.664062 23.1875 -21.222656 19.9375 -22.765625 C 17.476562 -23.898438 15.25 -25.023438 13.25 -26.140625 C 11.257812 -27.253906 9.550781 -28.519531 8.125 -29.9375 C 6.695312 -31.363281 5.582031 -32.988281 4.78125 -34.8125 C 3.988281 -36.644531 3.59375 -38.84375 3.59375 -41.40625 C 3.59375 -44.207031 4.09375 -46.734375 5.09375 -48.984375 C 6.09375 -51.234375 7.445312 -53.15625 9.15625 -54.75 C 10.863281 -56.351562 12.898438 -57.582031 15.265625 -58.4375 C 17.640625 -59.289062 20.195312 -59.71875 22.9375 -59.71875 Z M 22.9375 -59.71875 "/></g></g></g><g fill="#000000" fill-opacity="1"><g transform="translate(59.593836, 94.15149)"><g><path d="M 33.203125 -22.15625 C 31.660156 -26.4375 30.289062 -30.21875 29.09375 -33.5 C 27.894531 -36.78125 26.722656 -39.789062 25.578125 -42.53125 C 23.984375 -38.757812 22.546875 -35.273438 21.265625 -32.078125 C 19.984375 -28.890625 18.742188 -25.582031 17.546875 -22.15625 Z M 25.578125 -59.03125 C 25.867188 -58.914062 26.367188 -58.816406 27.078125 -58.734375 C 27.796875 -58.648438 28.378906 -58.609375 28.828125 -58.609375 C 29.117188 -58.609375 29.535156 -58.632812 30.078125 -58.6875 C 30.617188 -58.75 31.285156 -58.863281 32.078125 -59.03125 L 35.421875 -50.140625 C 37.191406 -45.398438 39.070312 -40.476562 41.0625 -35.375 C 43.0625 -30.269531 45.003906 -25.394531 46.890625 -20.75 C 48.773438 -16.101562 50.5 -11.910156 52.0625 -8.171875 C 53.632812 -4.429688 54.90625 -1.566406 55.875 0.421875 C 53.820312 0.253906 52.207031 0.140625 51.03125 0.078125 C 49.863281 0.0234375 48.96875 0 48.34375 0 C 47.769531 0 47.007812 0.0078125 46.0625 0.03125 C 45.125 0.0625 43.457031 0.191406 41.0625 0.421875 L 38.25 -8.296875 C 38.019531 -8.984375 37.757812 -9.769531 37.46875 -10.65625 C 37.1875 -11.539062 36.890625 -12.394531 36.578125 -13.21875 C 36.265625 -14.039062 35.992188 -14.804688 35.765625 -15.515625 C 35.535156 -16.234375 35.335938 -16.765625 35.171875 -17.109375 C 34.304688 -17.171875 32.847656 -17.210938 30.796875 -17.234375 C 28.742188 -17.265625 26.609375 -17.28125 24.390625 -17.28125 C 23.359375 -17.28125 22.328125 -17.265625 21.296875 -17.234375 C 20.273438 -17.210938 19.335938 -17.203125 18.484375 -17.203125 C 17.628906 -17.203125 16.898438 -17.1875 16.296875 -17.15625 C 15.703125 -17.125 15.375 -17.109375 15.3125 -17.109375 C 14.226562 -14.203125 13.1875 -11.320312 12.1875 -8.46875 C 11.1875 -5.613281 10.289062 -2.648438 9.5 0.421875 C 8.351562 0.253906 7.476562 0.140625 6.875 0.078125 C 6.28125 0.0234375 5.8125 0 5.46875 0 C 5.132812 0 4.664062 0.0234375 4.0625 0.078125 C 3.46875 0.140625 2.515625 0.253906 1.203125 0.421875 C 2.566406 -2.710938 4.03125 -6.117188 5.59375 -9.796875 C 7.164062 -13.472656 8.734375 -17.207031 10.296875 -21 C 11.867188 -24.800781 13.425781 -28.582031 14.96875 -32.34375 C 16.507812 -36.101562 17.953125 -39.648438 19.296875 -42.984375 C 20.640625 -46.328125 21.851562 -49.378906 22.9375 -52.140625 C 24.019531 -54.910156 24.898438 -57.207031 25.578125 -59.03125 Z M 25.578125 -59.03125 "/></g></g></g><g fill="#000000" fill-opacity="1"><g transform="translate(119.991644, 94.15149)"><g><path d="M 6.9375 -58.609375 C 8.582031 -58.441406 9.972656 -58.328125 11.109375 -58.265625 C 12.253906 -58.210938 13.203125 -58.1875 13.953125 -58.1875 C 14.691406 -58.1875 15.671875 -58.210938 16.890625 -58.265625 C 18.117188 -58.328125 19.476562 -58.441406 20.96875 -58.609375 C 20.851562 -57.015625 20.75 -55.257812 20.65625 -53.34375 C 20.570312 -51.4375 20.5 -49.507812 20.4375 -47.5625 C 20.382812 -45.625 20.34375 -43.703125 20.3125 -41.796875 C 20.289062 -39.890625 20.28125 -38.132812 20.28125 -36.53125 L 20.28125 -21.140625 C 20.28125 -20.453125 20.289062 -19.722656 20.3125 -18.953125 C 20.34375 -18.179688 20.359375 -17.238281 20.359375 -16.125 C 20.359375 -15.007812 20.375 -13.640625 20.40625 -12.015625 C 20.4375 -10.390625 20.453125 -8.378906 20.453125 -5.984375 C 23.753906 -5.984375 27.015625 -6.066406 30.234375 -6.234375 C 33.460938 -6.410156 36.734375 -6.703125 40.046875 -7.109375 C 39.867188 -6.128906 39.765625 -5.351562 39.734375 -4.78125 C 39.710938 -4.21875 39.703125 -3.707031 39.703125 -3.25 C 39.703125 -2.445312 39.726562 -1.800781 39.78125 -1.3125 C 39.84375 -0.832031 39.929688 -0.253906 40.046875 0.421875 C 37.304688 0.304688 34.625 0.207031 32 0.125 C 29.375 0.0390625 26.863281 0 24.46875 0 C 21.332031 0 18.222656 0.0078125 15.140625 0.03125 C 12.066406 0.0625 9.332031 0.191406 6.9375 0.421875 C 7.050781 -1.171875 7.148438 -3.066406 7.234375 -5.265625 C 7.316406 -7.460938 7.382812 -9.644531 7.4375 -11.8125 C 7.5 -13.976562 7.539062 -15.957031 7.5625 -17.75 C 7.59375 -19.550781 7.609375 -20.847656 7.609375 -21.640625 L 7.609375 -36.53125 C 7.609375 -40.300781 7.550781 -43.984375 7.4375 -47.578125 C 7.320312 -51.171875 7.15625 -54.847656 6.9375 -58.609375 Z M 6.9375 -58.609375 "/></g></g></g><g fill="#000000" fill-opacity="1"><g transform="translate(166.10281, 94.15149)"><g><path d="M 7.265625 -58.609375 C 9.097656 -58.441406 10.539062 -58.328125 11.59375 -58.265625 C 12.644531 -58.210938 13.539062 -58.1875 14.28125 -58.1875 C 15.03125 -58.1875 15.945312 -58.210938 17.03125 -58.265625 C 18.113281 -58.328125 19.539062 -58.441406 21.3125 -58.609375 C 21.195312 -56.835938 21.09375 -54.894531 21 -52.78125 C 20.914062 -50.675781 20.84375 -48.597656 20.78125 -46.546875 C 20.726562 -44.492188 20.6875 -42.582031 20.65625 -40.8125 C 20.632812 -39.039062 20.625 -37.613281 20.625 -36.53125 L 20.625 -21.640625 C 20.625 -20.503906 20.632812 -19.050781 20.65625 -17.28125 C 20.6875 -15.507812 20.726562 -13.597656 20.78125 -11.546875 C 20.84375 -9.492188 20.914062 -7.410156 21 -5.296875 C 21.09375 -3.191406 21.195312 -1.285156 21.3125 0.421875 C 19.132812 0.191406 17.585938 0.0625 16.671875 0.03125 C 15.765625 0.0078125 14.96875 0 14.28125 0 C 13.601562 0 12.804688 0.0078125 11.890625 0.03125 C 10.984375 0.0625 9.441406 0.191406 7.265625 0.421875 C 7.441406 -1.859375 7.570312 -4.140625 7.65625 -6.421875 C 7.738281 -8.703125 7.804688 -10.835938 7.859375 -12.828125 C 7.921875 -14.828125 7.953125 -16.597656 7.953125 -18.140625 C 7.953125 -19.679688 7.953125 -20.847656 7.953125 -21.640625 L 7.953125 -36.53125 C 7.953125 -40.300781 7.894531 -43.984375 7.78125 -47.578125 C 7.664062 -51.171875 7.492188 -54.847656 7.265625 -58.609375 Z M 7.265625 -58.609375 "/></g></g></g><g fill="#000000" fill-opacity="1"><g transform="translate(197.927351, 94.15149)"><g><path d="M 13.859375 -58.359375 C 15.003906 -58.296875 16.257812 -58.25 17.625 -58.21875 C 18.988281 -58.195312 20.441406 -58.1875 21.984375 -58.1875 C 26.835938 -58.1875 30.617188 -58.226562 33.328125 -58.3125 C 36.035156 -58.394531 38.015625 -58.492188 39.265625 -58.609375 C 39.160156 -57.804688 39.078125 -57.175781 39.015625 -56.71875 C 38.960938 -56.269531 38.9375 -55.703125 38.9375 -55.015625 C 38.9375 -54.554688 38.960938 -54.039062 39.015625 -53.46875 C 39.078125 -52.90625 39.160156 -52.140625 39.265625 -51.171875 L 29.953125 -51.765625 C 27.671875 -51.878906 25.53125 -51.976562 23.53125 -52.0625 C 21.53125 -52.144531 20.332031 -52.1875 19.9375 -52.1875 C 19.820312 -50.757812 19.734375 -49.21875 19.671875 -47.5625 C 19.617188 -45.914062 19.578125 -44.25 19.546875 -42.5625 C 19.523438 -40.882812 19.515625 -39.257812 19.515625 -37.6875 C 19.515625 -36.125 19.515625 -34.742188 19.515625 -33.546875 C 22.648438 -33.597656 25.8125 -33.679688 29 -33.796875 C 32.195312 -33.910156 35.507812 -34.050781 38.9375 -34.21875 C 38.757812 -33.25 38.640625 -32.507812 38.578125 -32 C 38.523438 -31.488281 38.5 -30.945312 38.5 -30.375 C 38.5 -29.914062 38.539062 -29.328125 38.625 -28.609375 C 38.71875 -27.898438 38.820312 -27.316406 38.9375 -26.859375 C 35.507812 -27.085938 32.226562 -27.273438 29.09375 -27.421875 C 25.957031 -27.566406 22.765625 -27.640625 19.515625 -27.640625 L 19.421875 -16.765625 C 19.421875 -16.140625 19.421875 -15.367188 19.421875 -14.453125 C 19.421875 -13.546875 19.4375 -12.59375 19.46875 -11.59375 C 19.5 -10.59375 19.523438 -9.59375 19.546875 -8.59375 C 19.578125 -7.601562 19.617188 -6.734375 19.671875 -5.984375 C 22.984375 -5.984375 26.25 -6.066406 29.46875 -6.234375 C 32.695312 -6.410156 35.960938 -6.703125 39.265625 -7.109375 C 39.160156 -6.128906 39.078125 -5.351562 39.015625 -4.78125 C 38.960938 -4.21875 38.9375 -3.707031 38.9375 -3.25 C 38.9375 -2.445312 38.960938 -1.832031 39.015625 -1.40625 C 39.078125 -0.976562 39.160156 -0.367188 39.265625 0.421875 C 36.703125 0.304688 34.078125 0.207031 31.390625 0.125 C 28.710938 0.0390625 26.148438 0 23.703125 0 C 20.566406 0 17.457031 0.0078125 14.375 0.03125 C 11.289062 0.0625 8.550781 0.191406 6.15625 0.421875 C 6.269531 -1.109375 6.367188 -2.828125 6.453125 -4.734375 C 6.546875 -6.648438 6.617188 -8.59375 6.671875 -10.5625 C 6.734375 -12.53125 6.773438 -14.46875 6.796875 -16.375 C 6.828125 -18.289062 6.84375 -20.046875 6.84375 -21.640625 L 6.84375 -36.53125 C 6.84375 -38.132812 6.828125 -39.890625 6.796875 -41.796875 C 6.773438 -43.703125 6.734375 -45.625 6.671875 -47.5625 C 6.617188 -49.507812 6.546875 -51.4375 6.453125 -53.34375 C 6.367188 -55.257812 6.269531 -57.015625 6.15625 -58.609375 Z M 13.859375 -58.359375 "/></g></g></g><g fill="#000000" fill-opacity="1"><g transform="translate(244.038517, 94.15149)"><g><path d="M 7.953125 -58.609375 C 8.296875 -58.492188 8.863281 -58.394531 9.65625 -58.3125 C 10.457031 -58.226562 11.175781 -58.1875 11.8125 -58.1875 C 12.4375 -58.1875 13.0625 -58.226562 13.6875 -58.3125 C 14.3125 -58.394531 14.96875 -58.492188 15.65625 -58.609375 L 52.796875 -17.875 L 52.796875 -33.28125 C 52.796875 -35.050781 52.78125 -37.304688 52.75 -40.046875 C 52.71875 -42.785156 52.671875 -45.476562 52.609375 -48.125 C 52.554688 -50.78125 52.488281 -53.101562 52.40625 -55.09375 C 52.320312 -57.09375 52.25 -58.265625 52.1875 -58.609375 C 53.789062 -58.328125 55.078125 -58.1875 56.046875 -58.1875 C 56.671875 -58.1875 57.296875 -58.226562 57.921875 -58.3125 C 58.546875 -58.394531 59.203125 -58.492188 59.890625 -58.609375 C 59.609375 -53.242188 59.378906 -48.40625 59.203125 -44.09375 C 59.035156 -39.789062 58.894531 -35.816406 58.78125 -32.171875 C 58.664062 -28.523438 58.59375 -25.085938 58.5625 -21.859375 C 58.539062 -18.640625 58.53125 -15.460938 58.53125 -12.328125 L 58.53125 0.421875 C 57.894531 0.253906 57.289062 0.140625 56.71875 0.078125 C 56.15625 0.0234375 55.585938 0 55.015625 0 C 54.441406 0 53.882812 0.0234375 53.34375 0.078125 C 52.800781 0.140625 52.25 0.253906 51.6875 0.421875 C 45.632812 -6.765625 39.484375 -13.804688 33.234375 -20.703125 C 26.992188 -27.609375 20.675781 -34.425781 14.28125 -41.15625 C 14.226562 -40.1875 14.1875 -38.988281 14.15625 -37.5625 C 14.132812 -36.132812 14.125 -34.691406 14.125 -33.234375 C 14.125 -31.785156 14.125 -30.414062 14.125 -29.125 C 14.125 -27.84375 14.125 -26.863281 14.125 -26.1875 C 14.125 -22.132812 14.125 -18.738281 14.125 -16 C 14.125 -13.257812 14.148438 -10.90625 14.203125 -8.9375 C 14.253906 -6.96875 14.304688 -5.269531 14.359375 -3.84375 C 14.421875 -2.425781 14.507812 -1.003906 14.625 0.421875 C 13.882812 0.304688 13.1875 0.207031 12.53125 0.125 C 11.875 0.0390625 11.234375 0 10.609375 0 C 9.984375 0 9.34375 0.0390625 8.6875 0.125 C 8.03125 0.207031 7.359375 0.304688 6.671875 0.421875 C 6.785156 -0.597656 6.910156 -2.050781 7.046875 -3.9375 C 7.191406 -5.820312 7.320312 -7.972656 7.4375 -10.390625 C 7.550781 -12.816406 7.664062 -15.398438 7.78125 -18.140625 C 7.894531 -20.878906 7.992188 -23.628906 8.078125 -26.390625 C 8.171875 -29.160156 8.242188 -31.84375 8.296875 -34.4375 C 8.359375 -37.03125 8.390625 -39.382812 8.390625 -41.5 C 8.390625 -42.75 8.359375 -44.160156 8.296875 -45.734375 C 8.242188 -47.304688 8.203125 -48.890625 8.171875 -50.484375 C 8.140625 -52.078125 8.09375 -53.585938 8.03125 -55.015625 C 7.976562 -56.441406 7.953125 -57.640625 7.953125 -58.609375 Z M 7.953125 -58.609375 "/></g></g></g><g fill="#000000" fill-opacity="1"><g transform="translate(313.93223, 94.15149)"><g><path d="M 1.796875 -58.609375 C 6.816406 -58.378906 11.222656 -58.25 15.015625 -58.21875 C 18.804688 -58.195312 21.816406 -58.1875 24.046875 -58.1875 C 26.210938 -58.1875 29.234375 -58.195312 33.109375 -58.21875 C 36.992188 -58.25 41.21875 -58.378906 45.78125 -58.609375 C 45.601562 -57.804688 45.484375 -57.117188 45.421875 -56.546875 C 45.367188 -55.984375 45.34375 -55.414062 45.34375 -54.84375 C 45.34375 -54.269531 45.367188 -53.679688 45.421875 -53.078125 C 45.484375 -52.484375 45.601562 -51.816406 45.78125 -51.078125 C 42.53125 -51.484375 39.5625 -51.769531 36.875 -51.9375 C 34.195312 -52.101562 32.085938 -52.1875 30.546875 -52.1875 C 30.546875 -52.070312 30.53125 -51.769531 30.5 -51.28125 C 30.46875 -50.800781 30.453125 -50.257812 30.453125 -49.65625 C 30.453125 -49.0625 30.4375 -48.4375 30.40625 -47.78125 C 30.382812 -47.125 30.375 -46.570312 30.375 -46.125 L 30.375 -21.640625 C 30.375 -20.503906 30.382812 -19.050781 30.40625 -17.28125 C 30.4375 -15.507812 30.476562 -13.597656 30.53125 -11.546875 C 30.59375 -9.492188 30.664062 -7.410156 30.75 -5.296875 C 30.84375 -3.191406 30.945312 -1.285156 31.0625 0.421875 C 29.570312 0.253906 28.210938 0.140625 26.984375 0.078125 C 25.765625 0.0234375 24.785156 0 24.046875 0 C 23.304688 0 22.363281 0.0234375 21.21875 0.078125 C 20.082031 0.140625 18.6875 0.253906 17.03125 0.421875 C 17.195312 -1.859375 17.320312 -4.140625 17.40625 -6.421875 C 17.5 -8.703125 17.570312 -10.835938 17.625 -12.828125 C 17.6875 -14.828125 17.71875 -16.597656 17.71875 -18.140625 C 17.71875 -19.679688 17.71875 -20.847656 17.71875 -21.640625 L 17.71875 -46.03125 C 17.71875 -47.0625 17.703125 -48.085938 17.671875 -49.109375 C 17.640625 -50.140625 17.566406 -51.164062 17.453125 -52.1875 C 16.023438 -52.1875 13.957031 -52.101562 11.25 -51.9375 C 8.539062 -51.769531 5.390625 -51.484375 1.796875 -51.078125 C 1.910156 -51.816406 2.007812 -52.472656 2.09375 -53.046875 C 2.175781 -53.617188 2.21875 -54.21875 2.21875 -54.84375 C 2.21875 -55.46875 2.175781 -56.066406 2.09375 -56.640625 C 2.007812 -57.210938 1.910156 -57.867188 1.796875 -58.609375 Z M 1.796875 -58.609375 "/></g></g></g></svg>