<svg xmlns="http://www.w3.org/2000/svg" xmlns:xlink="http://www.w3.org/1999/xlink" width="150" zoomAndPan="magnify" viewBox="0 0 112.5 112.499997" height="150" preserveAspectRatio="xMidYMid meet" version="1.0"><defs><clipPath id="043336888a"><path d="M 26.820312 27.75 L 70 27.75 L 70 70 L 26.820312 70 Z M 26.820312 27.75 " clip-rule="nonzero"/></clipPath><clipPath id="e569bc2b2b"><path d="M 26.820312 55 L 49 55 L 49 70 L 26.820312 70 Z M 26.820312 55 " clip-rule="nonzero"/></clipPath><clipPath id="bb7f0a1e72"><path d="M 58 59 L 74.609375 59 L 74.609375 75.539062 L 58 75.539062 Z M 58 59 " clip-rule="nonzero"/></clipPath><clipPath id="e9832099b9"><path d="M 9.632812 9.632812 L 92 9.632812 L 92 92 L 9.632812 92 Z M 9.632812 9.632812 " clip-rule="nonzero"/></clipPath><clipPath id="4a2a55aae1"><path d="M 9.632812 63 L 52 63 L 52 92 L 9.632812 92 Z M 9.632812 63 " clip-rule="nonzero"/></clipPath><clipPath id="ca02cc8c4c"><path d="M 71 71 L 102.222656 71 L 102.222656 102.222656 L 71 102.222656 Z M 71 71 " clip-rule="nonzero"/></clipPath></defs><g clip-path="url(#043336888a)"><path fill="#edf4fe" d="M 59.636719 69.960938 C 59.886719 69.960938 60.125 69.847656 60.28125 69.648438 C 60.4375 69.453125 60.496094 69.199219 60.441406 68.953125 C 60.335938 68.503906 60.285156 68.035156 60.285156 67.550781 C 60.285156 64.054688 63.125 61.214844 66.621094 61.214844 C 67.105469 61.214844 67.574219 61.265625 68.023438 61.371094 C 68.269531 61.425781 68.523438 61.367188 68.71875 61.210938 C 68.917969 61.054688 69.03125 60.816406 69.03125 60.566406 L 69.03125 34.980469 C 69.03125 30.988281 65.792969 27.75 61.800781 27.75 L 34.046875 27.75 C 30.058594 27.75 26.820312 30.988281 26.820312 34.980469 L 26.820312 62.730469 C 26.820312 66.722656 30.058594 69.960938 34.046875 69.960938 Z M 59.636719 69.960938 " fill-opacity="1" fill-rule="evenodd"/></g><path fill="#00912c" d="M 59.636719 69.960938 C 59.886719 69.960938 60.125 69.847656 60.28125 69.648438 C 60.4375 69.453125 60.496094 69.199219 60.441406 68.953125 C 60.335938 68.503906 60.285156 68.035156 60.285156 67.550781 C 60.285156 64.054688 63.125 61.214844 66.621094 61.214844 C 66.785156 61.214844 66.945312 61.21875 67.101562 61.230469 C 67.421875 61.257812 67.726562 61.09375 67.882812 60.8125 C 68.039062 60.53125 68.019531 60.1875 67.832031 59.925781 L 62.6875 52.839844 C 61.328125 50.96875 59.152344 49.859375 56.835938 49.859375 C 54.523438 49.859375 52.347656 50.96875 50.988281 52.839844 C 50.988281 52.839844 43.152344 63.632812 43.152344 63.632812 C 42.945312 63.921875 42.945312 64.3125 43.152344 64.601562 L 46.796875 69.621094 C 46.953125 69.832031 47.199219 69.960938 47.464844 69.960938 Z M 59.636719 69.960938 " fill-opacity="1" fill-rule="evenodd"/><path fill="#008127" d="M 44.839844 61.3125 L 43.152344 63.632812 C 42.945312 63.921875 42.945312 64.3125 43.152344 64.601562 L 46.796875 69.621094 C 46.953125 69.832031 47.199219 69.960938 47.464844 69.960938 L 49.792969 69.960938 C 50.0625 69.199219 49.945312 68.347656 49.464844 67.683594 Z M 44.839844 61.3125 " fill-opacity="1" fill-rule="evenodd"/><g clip-path="url(#e569bc2b2b)"><path fill="#00bf4b" d="M 26.976562 61.363281 C 26.875 61.503906 26.820312 61.671875 26.820312 61.84375 L 26.820312 62.730469 C 26.820312 66.722656 30.058594 69.960938 34.046875 69.960938 L 47.464844 69.960938 C 47.773438 69.960938 48.058594 69.785156 48.199219 69.511719 C 48.339844 69.234375 48.3125 68.902344 48.132812 68.652344 L 40.757812 58.496094 C 39.398438 56.621094 37.222656 55.515625 34.90625 55.515625 C 32.59375 55.515625 30.417969 56.621094 29.058594 58.496094 C 29.058594 58.496094 26.976562 61.363281 26.976562 61.363281 Z M 26.976562 61.363281 " fill-opacity="1" fill-rule="evenodd"/></g><path fill="#00bf4b" d="M 64.347656 48.855469 L 64.347656 47.207031 C 64.347656 46.980469 64.164062 46.796875 63.9375 46.796875 C 63.710938 46.796875 63.523438 46.980469 63.523438 47.207031 L 63.523438 48.855469 C 63.523438 49.082031 63.710938 49.265625 63.9375 49.265625 C 64.164062 49.265625 64.347656 49.082031 64.347656 48.855469 Z M 64.347656 45.558594 L 64.347656 43.910156 C 64.347656 43.683594 64.164062 43.5 63.9375 43.5 C 63.710938 43.5 63.523438 43.683594 63.523438 43.910156 L 63.523438 45.558594 C 63.523438 45.785156 63.710938 45.972656 63.9375 45.972656 C 64.164062 45.972656 64.347656 45.785156 64.347656 45.558594 Z M 64.347656 42.261719 L 64.347656 40.617188 C 64.347656 40.386719 64.164062 40.203125 63.9375 40.203125 C 63.710938 40.203125 63.523438 40.386719 63.523438 40.617188 L 63.523438 42.261719 C 63.523438 42.492188 63.710938 42.675781 63.9375 42.675781 C 64.164062 42.675781 64.347656 42.492188 64.347656 42.261719 Z M 64.347656 38.96875 L 64.347656 37.417969 C 64.347656 37.382812 64.347656 37.347656 64.347656 37.3125 C 64.34375 37.085938 64.152344 36.902344 63.925781 36.90625 C 63.699219 36.914062 63.519531 37.101562 63.523438 37.328125 C 63.523438 37.359375 63.523438 37.386719 63.523438 37.417969 L 63.523438 38.96875 C 63.523438 39.195312 63.710938 39.378906 63.9375 39.378906 C 64.164062 39.378906 64.347656 39.195312 64.347656 38.96875 Z M 63.992188 35.558594 C 63.765625 35 63.441406 34.488281 63.039062 34.050781 C 62.882812 33.882812 62.625 33.871094 62.457031 34.023438 C 62.289062 34.175781 62.277344 34.4375 62.429688 34.605469 C 62.765625 34.972656 63.039062 35.398438 63.226562 35.867188 C 63.3125 36.078125 63.550781 36.179688 63.761719 36.097656 C 63.972656 36.011719 64.074219 35.773438 63.992188 35.558594 Z M 61.617188 32.96875 C 61.089844 32.703125 60.511719 32.527344 59.902344 32.460938 C 59.675781 32.4375 59.472656 32.601562 59.449219 32.828125 C 59.425781 33.050781 59.589844 33.253906 59.8125 33.28125 C 60.324219 33.335938 60.804688 33.480469 61.242188 33.703125 C 61.445312 33.808594 61.695312 33.726562 61.796875 33.523438 C 61.898438 33.320312 61.816406 33.070312 61.617188 32.96875 Z M 54.914062 32.433594 L 53.269531 32.433594 C 53.039062 32.433594 52.855469 32.617188 52.855469 32.84375 C 52.855469 33.070312 53.039062 33.253906 53.269531 33.253906 L 54.914062 33.253906 C 55.144531 33.253906 55.328125 33.070312 55.328125 32.84375 C 55.328125 32.617188 55.144531 32.433594 54.914062 32.433594 Z M 58.210938 32.433594 L 56.5625 32.433594 C 56.335938 32.433594 56.152344 32.617188 56.152344 32.84375 C 56.152344 33.070312 56.335938 33.253906 56.5625 33.253906 L 58.210938 33.253906 C 58.4375 33.253906 58.625 33.070312 58.625 32.84375 C 58.625 32.617188 58.4375 32.433594 58.210938 32.433594 Z M 51.621094 32.433594 L 49.972656 32.433594 C 49.746094 32.433594 49.558594 32.617188 49.558594 32.84375 C 49.558594 33.070312 49.746094 33.253906 49.972656 33.253906 L 51.621094 33.253906 C 51.847656 33.253906 52.03125 33.070312 52.03125 32.84375 C 52.03125 32.617188 51.847656 32.433594 51.621094 32.433594 Z M 47.6875 32.695312 C 47.582031 32.582031 47.511719 32.703125 47.511719 32.84375 C 47.511719 33.070312 47.699219 33.253906 47.925781 33.253906 L 48.324219 33.253906 C 48.550781 33.253906 48.734375 33.070312 48.734375 32.84375 C 48.734375 32.617188 48.550781 32.433594 48.324219 32.433594 L 47.929688 32.433594 C 47.722656 32.433594 47.671875 32.550781 47.6875 32.695312 Z M 47.6875 32.695312 " fill-opacity="1" fill-rule="evenodd"/><path fill="#f8bc38" d="M 43.679688 39.972656 C 43.679688 40.277344 43.648438 40.578125 43.589844 40.875 C 43.53125 41.175781 43.441406 41.464844 43.324219 41.746094 C 43.210938 42.027344 43.066406 42.296875 42.898438 42.546875 C 42.726562 42.800781 42.535156 43.035156 42.320312 43.25 C 42.105469 43.464844 41.871094 43.65625 41.617188 43.828125 C 41.363281 43.996094 41.097656 44.140625 40.816406 44.253906 C 40.535156 44.371094 40.246094 44.460938 39.945312 44.519531 C 39.648438 44.578125 39.347656 44.609375 39.042969 44.609375 C 38.738281 44.609375 38.4375 44.578125 38.136719 44.519531 C 37.839844 44.460938 37.550781 44.371094 37.269531 44.253906 C 36.988281 44.140625 36.71875 43.996094 36.46875 43.828125 C 36.214844 43.65625 35.980469 43.464844 35.765625 43.25 C 35.550781 43.035156 35.355469 42.800781 35.1875 42.546875 C 35.019531 42.296875 34.875 42.027344 34.757812 41.746094 C 34.644531 41.464844 34.554688 41.175781 34.496094 40.875 C 34.4375 40.578125 34.40625 40.277344 34.40625 39.972656 C 34.40625 39.667969 34.4375 39.367188 34.496094 39.066406 C 34.554688 38.769531 34.644531 38.480469 34.757812 38.199219 C 34.875 37.917969 35.019531 37.648438 35.1875 37.398438 C 35.355469 37.144531 35.550781 36.910156 35.765625 36.695312 C 35.980469 36.480469 36.214844 36.285156 36.46875 36.117188 C 36.71875 35.949219 36.988281 35.804688 37.269531 35.6875 C 37.550781 35.574219 37.839844 35.484375 38.136719 35.425781 C 38.4375 35.367188 38.738281 35.335938 39.042969 35.335938 C 39.347656 35.335938 39.648438 35.367188 39.945312 35.425781 C 40.246094 35.484375 40.535156 35.574219 40.816406 35.6875 C 41.097656 35.804688 41.363281 35.949219 41.617188 36.117188 C 41.871094 36.285156 42.105469 36.480469 42.320312 36.695312 C 42.535156 36.910156 42.726562 37.144531 42.898438 37.398438 C 43.066406 37.648438 43.210938 37.917969 43.324219 38.199219 C 43.441406 38.480469 43.53125 38.769531 43.589844 39.066406 C 43.648438 39.367188 43.679688 39.667969 43.679688 39.972656 Z M 43.679688 39.972656 " fill-opacity="1" fill-rule="nonzero"/><g clip-path="url(#bb7f0a1e72)"><path fill="#55a1ff" d="M 74.609375 67.550781 C 74.609375 68.074219 74.558594 68.59375 74.457031 69.109375 C 74.351562 69.625 74.203125 70.125 74 70.609375 C 73.800781 71.09375 73.554688 71.550781 73.261719 71.988281 C 72.972656 72.425781 72.640625 72.828125 72.269531 73.199219 C 71.898438 73.570312 71.496094 73.902344 71.058594 74.191406 C 70.625 74.484375 70.164062 74.730469 69.679688 74.929688 C 69.195312 75.128906 68.695312 75.28125 68.179688 75.382812 C 67.667969 75.488281 67.148438 75.539062 66.621094 75.539062 C 66.097656 75.539062 65.578125 75.488281 65.066406 75.382812 C 64.550781 75.28125 64.050781 75.128906 63.566406 74.929688 C 63.082031 74.730469 62.621094 74.484375 62.1875 74.191406 C 61.75 73.902344 61.347656 73.570312 60.976562 73.199219 C 60.605469 72.828125 60.273438 72.425781 59.980469 71.988281 C 59.691406 71.550781 59.445312 71.09375 59.246094 70.609375 C 59.042969 70.125 58.890625 69.625 58.789062 69.109375 C 58.6875 68.59375 58.636719 68.074219 58.636719 67.550781 C 58.636719 67.027344 58.6875 66.507812 58.789062 65.992188 C 58.890625 65.480469 59.042969 64.980469 59.246094 64.496094 C 59.445312 64.011719 59.691406 63.550781 59.980469 63.113281 C 60.273438 62.679688 60.605469 62.273438 60.976562 61.90625 C 61.347656 61.535156 61.75 61.203125 62.1875 60.910156 C 62.621094 60.621094 63.082031 60.375 63.566406 60.171875 C 64.050781 59.972656 64.550781 59.820312 65.066406 59.71875 C 65.578125 59.617188 66.097656 59.566406 66.621094 59.566406 C 67.148438 59.566406 67.667969 59.617188 68.179688 59.71875 C 68.695312 59.820312 69.195312 59.972656 69.679688 60.171875 C 70.164062 60.375 70.625 60.621094 71.058594 60.910156 C 71.496094 61.203125 71.898438 61.535156 72.269531 61.90625 C 72.640625 62.273438 72.972656 62.679688 73.261719 63.113281 C 73.554688 63.550781 73.800781 64.011719 74 64.496094 C 74.203125 64.980469 74.351562 65.480469 74.457031 65.992188 C 74.558594 66.507812 74.609375 67.027344 74.609375 67.550781 Z M 74.609375 67.550781 " fill-opacity="1" fill-rule="nonzero"/></g><path fill="#eef6ff" d="M 65.796875 64.667969 L 65.796875 70.433594 C 65.796875 70.890625 66.167969 71.261719 66.621094 71.257812 C 67.078125 71.257812 67.445312 70.890625 67.445312 70.433594 L 67.445312 64.667969 C 67.445312 64.214844 67.078125 63.84375 66.621094 63.84375 C 66.167969 63.84375 65.796875 64.214844 65.796875 64.667969 Z M 65.796875 64.667969 " fill-opacity="1" fill-rule="evenodd"/><path fill="#eef6ff" d="M 63.738281 68.375 L 69.503906 68.375 C 69.960938 68.375 70.328125 68.007812 70.332031 67.550781 C 70.332031 67.097656 69.960938 66.726562 69.507812 66.726562 L 63.738281 66.726562 C 63.285156 66.726562 62.914062 67.097656 62.914062 67.550781 C 62.914062 68.007812 63.285156 68.375 63.738281 68.375 Z M 63.738281 68.375 " fill-opacity="1" fill-rule="evenodd"/><g clip-path="url(#e9832099b9)"><path fill="#edf4fe" d="M 73.214844 91.414062 C 73.699219 91.414062 74.160156 91.195312 74.460938 90.816406 C 74.765625 90.4375 74.878906 89.941406 74.773438 89.464844 C 74.574219 88.59375 74.46875 87.683594 74.46875 86.75 C 74.46875 79.972656 79.972656 74.46875 86.75 74.46875 C 87.683594 74.46875 88.59375 74.574219 89.464844 74.773438 C 89.941406 74.878906 90.4375 74.765625 90.816406 74.460938 C 91.195312 74.160156 91.414062 73.699219 91.414062 73.214844 L 91.414062 23.640625 C 91.414062 15.90625 85.144531 9.632812 77.410156 9.632812 L 23.640625 9.632812 C 15.90625 9.632812 9.632812 15.90625 9.632812 23.640625 L 9.632812 77.410156 C 9.632812 85.144531 15.90625 91.414062 23.640625 91.414062 Z M 73.214844 91.414062 " fill-opacity="1" fill-rule="evenodd"/></g><path fill="#00912c" d="M 73.214844 91.414062 C 73.699219 91.414062 74.160156 91.195312 74.460938 90.816406 C 74.765625 90.4375 74.878906 89.941406 74.773438 89.464844 C 74.574219 88.59375 74.46875 87.683594 74.46875 86.75 C 74.46875 79.972656 79.972656 74.46875 86.75 74.46875 C 87.0625 74.46875 87.375 74.480469 87.679688 74.503906 C 88.300781 74.550781 88.890625 74.234375 89.195312 73.691406 C 89.496094 73.148438 89.457031 72.476562 89.09375 71.976562 L 79.125 58.246094 C 76.492188 54.617188 72.277344 52.46875 67.792969 52.46875 C 63.304688 52.46875 59.09375 54.617188 56.457031 58.246094 C 56.457031 58.246094 41.277344 79.15625 41.277344 79.15625 C 40.871094 79.714844 40.871094 80.472656 41.277344 81.03125 L 48.339844 90.757812 C 48.640625 91.171875 49.121094 91.414062 49.628906 91.414062 Z M 73.214844 91.414062 " fill-opacity="1" fill-rule="evenodd"/><path fill="#008127" d="M 44.542969 74.660156 L 41.277344 79.15625 C 40.871094 79.714844 40.871094 80.472656 41.277344 81.03125 L 48.339844 90.757812 C 48.640625 91.171875 49.121094 91.414062 49.628906 91.414062 L 54.148438 91.414062 C 54.667969 89.941406 54.441406 88.292969 53.507812 87.003906 Z M 44.542969 74.660156 " fill-opacity="1" fill-rule="evenodd"/><g clip-path="url(#4a2a55aae1)"><path fill="#00bf4b" d="M 9.9375 74.753906 C 9.742188 75.027344 9.632812 75.355469 9.632812 75.691406 L 9.632812 77.410156 C 9.632812 85.144531 15.90625 91.414062 23.640625 91.414062 L 49.628906 91.414062 C 50.230469 91.414062 50.78125 91.078125 51.054688 90.542969 C 51.324219 90.007812 51.277344 89.367188 50.921875 88.878906 L 36.636719 69.203125 C 34 65.574219 29.789062 63.425781 25.304688 63.425781 C 20.816406 63.425781 16.605469 65.574219 13.96875 69.203125 C 13.96875 69.203125 9.9375 74.753906 9.9375 74.753906 Z M 9.9375 74.753906 " fill-opacity="1" fill-rule="evenodd"/></g><path fill="#00bf4b" d="M 82.34375 50.523438 L 82.34375 47.332031 C 82.34375 46.890625 81.988281 46.535156 81.546875 46.535156 C 81.105469 46.535156 80.75 46.890625 80.75 47.332031 L 80.75 50.523438 C 80.75 50.964844 81.105469 51.324219 81.546875 51.324219 C 81.988281 51.324219 82.34375 50.964844 82.34375 50.523438 Z M 82.34375 44.140625 L 82.34375 40.945312 C 82.34375 40.503906 81.988281 40.148438 81.546875 40.148438 C 81.105469 40.148438 80.75 40.503906 80.75 40.945312 L 80.75 44.140625 C 80.75 44.578125 81.105469 44.9375 81.546875 44.9375 C 81.988281 44.9375 82.34375 44.578125 82.34375 44.140625 Z M 82.34375 37.753906 L 82.34375 34.5625 C 82.34375 34.121094 81.988281 33.761719 81.546875 33.761719 C 81.105469 33.761719 80.75 34.121094 80.75 34.5625 L 80.75 37.753906 C 80.75 38.195312 81.105469 38.550781 81.546875 38.550781 C 81.988281 38.550781 82.34375 38.195312 82.34375 37.753906 Z M 82.34375 31.367188 L 82.34375 28.367188 C 82.34375 28.296875 82.34375 28.226562 82.34375 28.15625 C 82.332031 27.71875 81.96875 27.367188 81.527344 27.378906 C 81.085938 27.386719 80.738281 27.753906 80.746094 28.191406 C 80.75 28.25 80.75 28.308594 80.75 28.367188 L 80.75 31.367188 C 80.75 31.808594 81.105469 32.167969 81.546875 32.167969 C 81.988281 32.167969 82.34375 31.808594 82.34375 31.367188 Z M 81.652344 24.765625 C 81.214844 23.679688 80.585938 22.6875 79.804688 21.839844 C 79.507812 21.515625 79.003906 21.492188 78.679688 21.789062 C 78.355469 22.085938 78.332031 22.59375 78.628906 22.917969 C 79.28125 23.628906 79.804688 24.453125 80.171875 25.359375 C 80.335938 25.769531 80.800781 25.96875 81.207031 25.804688 C 81.617188 25.640625 81.816406 25.175781 81.652344 24.765625 Z M 77.050781 19.746094 C 76.03125 19.230469 74.914062 18.886719 73.730469 18.761719 C 73.292969 18.714844 72.898438 19.03125 72.851562 19.46875 C 72.804688 19.90625 73.121094 20.300781 73.558594 20.347656 C 74.546875 20.453125 75.480469 20.738281 76.328125 21.167969 C 76.71875 21.367188 77.199219 21.210938 77.402344 20.816406 C 77.597656 20.425781 77.441406 19.945312 77.050781 19.746094 Z M 64.066406 18.703125 L 60.875 18.703125 C 60.433594 18.703125 60.078125 19.0625 60.078125 19.503906 C 60.078125 19.941406 60.433594 20.300781 60.875 20.300781 L 64.066406 20.300781 C 64.507812 20.300781 64.867188 19.941406 64.867188 19.503906 C 64.867188 19.0625 64.507812 18.703125 64.066406 18.703125 Z M 70.453125 18.703125 L 67.261719 18.703125 C 66.820312 18.703125 66.460938 19.0625 66.460938 19.503906 C 66.460938 19.941406 66.820312 20.300781 67.261719 20.300781 L 70.453125 20.300781 C 70.894531 20.300781 71.25 19.941406 71.25 19.503906 C 71.25 19.0625 70.894531 18.703125 70.453125 18.703125 Z M 57.683594 18.703125 L 54.488281 18.703125 C 54.050781 18.703125 53.691406 19.0625 53.691406 19.503906 C 53.691406 19.941406 54.050781 20.300781 54.488281 20.300781 L 57.683594 20.300781 C 58.125 20.300781 58.480469 19.941406 58.480469 19.503906 C 58.480469 19.0625 58.125 18.703125 57.683594 18.703125 Z M 50.066406 19.21875 C 49.859375 18.996094 49.726562 19.234375 49.726562 19.503906 C 49.726562 19.941406 50.082031 20.300781 50.523438 20.300781 L 51.296875 20.300781 C 51.738281 20.300781 52.09375 19.941406 52.09375 19.503906 C 52.09375 19.0625 51.738281 18.703125 51.296875 18.703125 L 50.53125 18.703125 C 50.132812 18.703125 50.03125 18.933594 50.066406 19.21875 Z M 50.066406 19.21875 " fill-opacity="1" fill-rule="evenodd"/><path fill="#f8bc38" d="M 42.296875 33.3125 C 42.296875 33.902344 42.238281 34.488281 42.125 35.066406 C 42.007812 35.644531 41.839844 36.207031 41.613281 36.75 C 41.386719 37.296875 41.109375 37.8125 40.78125 38.304688 C 40.457031 38.796875 40.082031 39.25 39.664062 39.664062 C 39.25 40.082031 38.796875 40.457031 38.304688 40.78125 C 37.8125 41.109375 37.296875 41.386719 36.75 41.613281 C 36.207031 41.839844 35.644531 42.007812 35.066406 42.125 C 34.488281 42.238281 33.902344 42.296875 33.3125 42.296875 C 32.722656 42.296875 32.140625 42.238281 31.5625 42.125 C 30.984375 42.007812 30.421875 41.839844 29.875 41.613281 C 29.332031 41.386719 28.8125 41.109375 28.324219 40.78125 C 27.832031 40.457031 27.378906 40.082031 26.960938 39.664062 C 26.546875 39.25 26.171875 38.796875 25.84375 38.304688 C 25.519531 37.8125 25.242188 37.296875 25.015625 36.75 C 24.789062 36.207031 24.621094 35.644531 24.503906 35.066406 C 24.390625 34.488281 24.332031 33.902344 24.332031 33.3125 C 24.332031 32.722656 24.390625 32.140625 24.503906 31.5625 C 24.621094 30.984375 24.789062 30.421875 25.015625 29.875 C 25.242188 29.332031 25.519531 28.8125 25.84375 28.324219 C 26.171875 27.832031 26.546875 27.378906 26.960938 26.960938 C 27.378906 26.546875 27.832031 26.171875 28.324219 25.84375 C 28.8125 25.519531 29.332031 25.242188 29.875 25.015625 C 30.421875 24.789062 30.984375 24.621094 31.5625 24.503906 C 32.140625 24.390625 32.722656 24.332031 33.3125 24.332031 C 33.902344 24.332031 34.488281 24.390625 35.066406 24.503906 C 35.644531 24.621094 36.207031 24.789062 36.75 25.015625 C 37.296875 25.242188 37.8125 25.519531 38.304688 25.84375 C 38.796875 26.171875 39.25 26.546875 39.664062 26.960938 C 40.082031 27.378906 40.457031 27.832031 40.78125 28.324219 C 41.109375 28.8125 41.386719 29.332031 41.613281 29.875 C 41.839844 30.421875 42.007812 30.984375 42.125 31.5625 C 42.238281 32.140625 42.296875 32.722656 42.296875 33.3125 Z M 42.296875 33.3125 " fill-opacity="1" fill-rule="nonzero"/><g clip-path="url(#ca02cc8c4c)"><path fill="#55a1ff" d="M 102.222656 86.75 C 102.222656 87.765625 102.125 88.769531 101.925781 89.769531 C 101.726562 90.765625 101.433594 91.730469 101.046875 92.671875 C 100.65625 93.609375 100.179688 94.5 99.617188 95.34375 C 99.050781 96.191406 98.410156 96.972656 97.691406 97.691406 C 96.972656 98.410156 96.191406 99.050781 95.347656 99.613281 C 94.503906 100.179688 93.609375 100.65625 92.671875 101.042969 C 91.734375 101.433594 90.765625 101.726562 89.769531 101.925781 C 88.773438 102.125 87.765625 102.222656 86.75 102.222656 C 85.734375 102.222656 84.726562 102.125 83.730469 101.925781 C 82.734375 101.726562 81.769531 101.433594 80.828125 101.042969 C 79.890625 100.65625 79 100.179688 78.152344 99.613281 C 77.308594 99.050781 76.527344 98.410156 75.808594 97.691406 C 75.089844 96.972656 74.449219 96.191406 73.886719 95.34375 C 73.320312 94.5 72.84375 93.609375 72.453125 92.671875 C 72.066406 91.730469 71.773438 90.765625 71.574219 89.769531 C 71.375 88.769531 71.277344 87.765625 71.277344 86.75 C 71.277344 85.734375 71.375 84.726562 71.574219 83.730469 C 71.773438 82.734375 72.066406 81.765625 72.453125 80.828125 C 72.84375 79.890625 73.320312 78.996094 73.886719 78.152344 C 74.449219 77.308594 75.089844 76.527344 75.808594 75.808594 C 76.527344 75.089844 77.308594 74.449219 78.152344 73.882812 C 79 73.320312 79.890625 72.84375 80.828125 72.453125 C 81.769531 72.066406 82.734375 71.769531 83.730469 71.574219 C 84.726562 71.375 85.734375 71.277344 86.75 71.277344 C 87.765625 71.277344 88.773438 71.375 89.769531 71.574219 C 90.765625 71.769531 91.734375 72.066406 92.671875 72.453125 C 93.609375 72.84375 94.503906 73.320312 95.347656 73.882812 C 96.191406 74.449219 96.972656 75.089844 97.691406 75.808594 C 98.410156 76.527344 99.050781 77.308594 99.617188 78.152344 C 100.179688 78.996094 100.65625 79.890625 101.046875 80.828125 C 101.433594 81.765625 101.726562 82.734375 101.925781 83.730469 C 102.125 84.726562 102.222656 85.734375 102.222656 86.75 Z M 102.222656 86.75 " fill-opacity="1" fill-rule="nonzero"/></g><path fill="#eef6ff" d="M 85.152344 81.160156 L 85.152344 92.335938 C 85.152344 93.21875 85.871094 93.933594 86.75 93.933594 C 87.628906 93.933594 88.347656 93.21875 88.347656 92.335938 L 88.347656 81.160156 C 88.347656 80.28125 87.628906 79.566406 86.75 79.566406 C 85.871094 79.566406 85.152344 80.28125 85.152344 81.160156 Z M 85.152344 81.160156 " fill-opacity="1" fill-rule="evenodd"/><path fill="#eef6ff" d="M 81.164062 88.34375 L 92.335938 88.34375 C 93.21875 88.347656 93.933594 87.628906 93.933594 86.75 C 93.933594 85.871094 93.21875 85.152344 92.335938 85.152344 L 81.160156 85.152344 C 80.28125 85.152344 79.566406 85.871094 79.566406 86.75 C 79.566406 87.628906 80.28125 88.347656 81.164062 88.34375 Z M 81.164062 88.34375 " fill-opacity="1" fill-rule="evenodd"/></svg>